<svg xmlns="http://www.w3.org/2000/svg" width="239.366" height="299.822" viewBox="0 0 239.366 299.822">
    <defs>
        <filter id="사각형_348187" width="94.645" height="80.241" x="0" y="29.856" filterUnits="userSpaceOnUse">
            <feOffset dy="2"/>
            <feGaussianBlur result="blur" stdDeviation="4"/>
            <feFlood flood-opacity=".078"/>
            <feComposite in2="blur" operator="in"/>
            <feComposite in="SourceGraphic"/>
        </filter>
        <style>
            .cls-1{fill:#ffb664}.cls-2,.cls-22{fill:#ffcbcb}.cls-3{fill:#bed2de}.cls-13,.cls-6{fill:none}.cls-6{stroke:#236595}.cls-13,.cls-22,.cls-6{stroke-miterlimit:10}.cls-17{opacity:.4}.cls-13,.cls-22{stroke-linecap:round}.cls-12{fill:#fff}.cls-13{stroke:#e6e6e6}.cls-22{stroke:#eaa9a9}.cls-16{fill:#ffd276}.cls-17{fill:#ffc071}
        </style>
    </defs>
    <g id="그룹_457033" transform="translate(12)">
        <g id="그룹_457010" transform="translate(92.718 34.169)">
            <g id="그룹_457007" transform="translate(10.683 1.012)">
                <path id="패스_842634" d="M783.808 357.879c-.02.007.1.077.114.092-.011-.039-.141-.108-.114-.092z" class="cls-1" transform="translate(-783.571 -348.671)"/>
                <path id="패스_842635" d="M783.712 357.54l.041.033-.089-.1z" class="cls-1" transform="translate(-783.585 -348.713)"/>
                <path id="패스_842636" d="M783.843 357.353c-.2-.1-.02.1-.109.086l-.044-.022.138.117c.007-.061-.055-.185.015-.181z" class="cls-1" transform="translate(-783.583 -348.728)"/>
                <path id="패스_842637" d="M784.269 357.5c-.077-.042-.049-.064-.04.009a.077.077 0 0 0 .021.011c.002-.008.006-.014.019-.02z" class="cls-1" transform="translate(-783.528 -348.714)"/>
                <path id="패스_842638" d="M784.247 357.513c-.01.024.072.026 0 0z" class="cls-1" transform="translate(-783.525 -348.708)"/>
                <path id="패스_842639" d="M784.265 357.4l.051.073c.047.021.072 0 .1.033-.016-.057-.067-.078-.151-.106z" class="cls-1" transform="translate(-783.523 -348.721)"/>
                <path id="패스_842640" d="M784.156 357.292l.02.033c.017.009.024.008-.02-.033z" class="cls-1" transform="translate(-783.534 -348.731)"/>
                <path id="패스_842641" d="M784.215 357.392l-.036-.067c-.034-.018-.095-.057.011.028-.052-.042-.004.001.025.039z" class="cls-1" transform="translate(-783.537 -348.731)"/>
                <path id="패스_842642" d="M784.187 357.389a.167.167 0 0 1-.14-.076c-.01.07.13.147.14.076z" class="cls-1" transform="translate(-783.546 -348.729)"/>
                <path id="패스_842643" d="M783.664 357.227l-.071-.012.054.059c-.027-.031.075-.008.017-.047z" class="cls-1" transform="translate(-783.593 -348.739)"/>
                <path id="패스_842644" d="M784.474 357.3c-.04-.028-.114-.061-.166-.092l.031.052a.305.305 0 0 1 .135.04z" class="cls-1" transform="translate(-783.519 -348.74)"/>
                <path id="패스_842645" d="M784.314 357.219l-.051-.076c-.027.022.003.049.051.076z" class="cls-1" transform="translate(-783.524 -348.747)"/>
                <path id="패스_842646" d="M783.969 357.164l.112.147-.107-.159z" class="cls-1" transform="translate(-783.554 -348.746)"/>
                <path id="패스_842647" d="M784.533 357.195l.084.078-.119-.123z" class="cls-1" transform="translate(-783.499 -348.746)"/>
                <path id="패스_842648" d="M784.565 357.112c.068.065.142.068.18.113 0-.029-.054-.092-.1-.148.017.04-.003.052-.08.035z" class="cls-1" transform="translate(-783.492 -348.754)"/>
                <path id="패스_842649" d="M784.572 357a.443.443 0 0 0 .07.084.338.338 0 0 0-.07-.084z" class="cls-1" transform="translate(-783.491 -348.762)"/>
                <path id="패스_842650" d="M784.311 357.11a.436.436 0 0 0 .133.046l-.117-.057z" class="cls-1" transform="translate(-783.518 -348.752)"/>
                <path id="패스_842651" d="M784.318 357.1h.008a.05.05 0 0 1 .018-.021.119.119 0 0 0-.026.021z" class="cls-1" transform="translate(-783.518 -348.753)"/>
                <path id="패스_842652" d="M784.31 357.11c-.01-.01-.01-.01 0 0z" class="cls-1" transform="translate(-783.519 -348.751)"/>
                <path id="패스_842653" d="M784.132 357.164c-.055-.057-.1-.14-.215-.169.07.066.136.079.215.169z" class="cls-1" transform="translate(-783.559 -348.762)"/>
                <path id="패스_842654" d="M784.179 357.04l-.05.014a.458.458 0 0 1 .1.073z" class="cls-1" transform="translate(-783.537 -348.758)"/>
                <path id="패스_842655" d="M784.15 357l.026.04.015-.007z" class="cls-1" transform="translate(-783.535 -348.761)"/>
                <path id="패스_842656" d="M784.451 357c-.039-.045-.033-.064-.029-.087a.084.084 0 0 0-.069.035c.032.023.09.073.098.052z" class="cls-1" transform="translate(-783.514 -348.771)"/>
                <path id="패스_842657" d="M784.372 357.036v-.007c-.014-.004-.018-.005 0 .007z" class="cls-1" transform="translate(-783.513 -348.759)"/>
                <path id="패스_842658" d="M784.518 356.754l-.019-.011.017.016z" class="cls-1" transform="translate(-783.499 -348.789)"/>
                <path id="패스_842659" d="M784.328 356.933c-.029 0-.007.025.026.057a.05.05 0 0 1 0-.047c-.016-.01-.026-.021-.026-.01z" class="cls-1" transform="translate(-783.518 -348.769)"/>
                <path id="패스_842660" d="M784.56 356.929a.353.353 0 0 0-.079-.017c.041.014.107.039.079.017z" class="cls-1" transform="translate(-783.501 -348.771)"/>
                <path id="패스_842661" d="M784.4 357.044c.034.017.02.009 0 0z" class="cls-1" transform="translate(-783.509 -348.757)"/>
                <path id="패스_842662" d="M784.406 357.05a.651.651 0 0 0-.055-.065.113.113 0 0 0 .018.049z" class="cls-1" transform="translate(-783.514 -348.763)"/>
                <path id="패스_842663" d="M783.889 356.277c.1.07.174.171.044.131a2.6 2.6 0 0 0 .629.384.3.3 0 0 1-.129-.133c-.065-.026-.183-.012-.258-.1-.026-.077.057-.011.128 0-.141-.067-.154-.178-.354-.294l.044.079c-.031-.013-.072-.059-.104-.067z" class="cls-1" transform="translate(-783.562 -348.838)"/>
                <path id="패스_842664" d="M784.451 356.8v.021a.529.529 0 0 1 .174.047.4.4 0 0 0-.107-.109l-.054.059z" class="cls-1" transform="translate(-783.504 -348.787)"/>
                <path id="패스_842665" d="M784.446 356.89a1.1 1.1 0 0 0-.272-.212c-.022.046.076.091.11.147.014-.083.052.059.147.056a.07.07 0 0 1 .01.053.326.326 0 0 1 .072 0h-.009c-.017-.01-.028-.014-.012-.011-.013-.009-.03-.018-.042-.028.033 0 .03.014.042.028l.017.015-.021-.107c-.028-.002-.034.019-.042.059z" class="cls-1" transform="translate(-783.533 -348.795)"/>
                <path id="패스_842666" d="M783.712 356.82a.221.221 0 0 1 .029.015c-.015-.012-.024-.021-.029-.015z" class="cls-1" transform="translate(-783.581 -348.781)"/>
                <path id="패스_842667" d="M783.8 356.837c.011.017.056.049.034.056-.044-.009-.054-.036-.092-.06a.191.191 0 0 0 .132.093l-.008-.014a.744.744 0 0 1 .231.075 3.267 3.267 0 0 0-.297-.15z" class="cls-1" transform="translate(-783.578 -348.779)"/>
                <path id="패스_842668" d="M784.091 356.845l-.018-.088-.119-.036.061.036c-.044.014.034.056.076.088z" class="cls-1" transform="translate(-783.555 -348.791)"/>
                <path id="패스_842669" d="M784.575 356.786l.115.086-.149-.142z" class="cls-1" transform="translate(-783.494 -348.79)"/>
                <path id="패스_842670" d="M784.6 356.709l.1.071-.053-.059z" class="cls-1" transform="translate(-783.488 -348.792)"/>
                <path id="패스_842671" d="M785.777 352.429l-.018-.034a.344.344 0 0 0 .018.034z" class="cls-1" transform="translate(-783.368 -349.241)"/>
                <path id="패스_842672" d="M785.7 352.523l.049.038c-.026-.024-.049-.041-.049-.038z" class="cls-1" transform="translate(-783.374 -349.228)"/>
                <path id="패스_842673" d="M785.59 355.179c.114.044.283.118.159.044l-.117-.07c.01.03-.011.033-.042.026z" class="cls-1" transform="translate(-783.385 -348.954)"/>
                <path id="패스_842674" d="M785.667 353.723l-.039-.014c.034.031.067.062.1.088a.924.924 0 0 1-.061-.074z" class="cls-1" transform="translate(-783.381 -349.104)"/>
                <path id="패스_842675" d="M785.244 353.419l.1.021a.258.258 0 0 0-.1-.021z" class="cls-1" transform="translate(-783.421 -349.134)"/>
                <path id="패스_842676" d="M786.076 351.811l-.1-.1c-.021.026.047.059.1.1z" class="cls-1" transform="translate(-783.346 -349.312)"/>
                <path id="패스_842677" d="M784.981 356.05c.057.007.087.006.1-.008-.081-.016-.192-.063-.1.008z" class="cls-1" transform="translate(-783.452 -348.865)"/>
                <path id="패스_842678" d="M786.833 353.238a.272.272 0 0 0-.061-.063.165.165 0 0 0 .061.063z" class="cls-1" transform="translate(-783.262 -349.16)"/>
                <path id="패스_842679" d="M785.107 355.991l-.036-.009c.012.026.018.053 0 .063.055.019.102.014.036-.054z" class="cls-1" transform="translate(-783.439 -348.868)"/>
                <path id="패스_842680" d="M787.674 349.925h.014c-.011-.006-.012-.005-.014 0z" class="cls-1" transform="translate(-783.169 -349.498)"/>
                <path id="패스_842681" d="M789.076 350.207a.079.079 0 0 1-.013.03c.011.003.015-.006.013-.03z" class="cls-1" transform="translate(-783.024 -349.468)"/>
                <path id="패스_842682" d="M784.809 356.489c0 .019.01.012 0 0z" class="cls-1" transform="translate(-783.466 -348.815)"/>
                <path id="패스_842683" d="M784.36 356.291a.2.2 0 0 0-.052-.046.357.357 0 0 1 .052.046z" class="cls-1" transform="translate(-783.519 -348.84)"/>
                <path id="패스_842684" d="M784.539 355.437c-.023-.014-.017-.011 0 0z" class="cls-1" transform="translate(-783.496 -348.925)"/>
                <path id="패스_842685" d="M784.751 356.477a.1.1 0 0 0 .042 0 .153.153 0 0 0-.042 0z" class="cls-1" transform="translate(-783.473 -348.816)"/>
                <path id="패스_842686" d="M784.8 356.508h-.019c.019.019.033.024.019 0z" class="cls-1" transform="translate(-783.469 -348.813)"/>
                <path id="패스_842687" d="M784.818 356.466c0 .01-.015.012-.029.015a.083.083 0 0 1 .022.01s.002-.014.007-.025z" class="cls-1" transform="translate(-783.469 -348.817)"/>
                <path id="패스_842688" d="M787.092 351.153h.012c-.033-.044-.032-.035-.012 0z" class="cls-1" transform="translate(-783.23 -349.373)"/>
                <path id="패스_842689" d="M784.74 354.119v.005h.007z" class="cls-1" transform="translate(-783.474 -349.061)"/>
                <path id="패스_842690" d="M784.694 354.021c.127.116.1.116.061.114l.34.2z" class="cls-1" transform="translate(-783.479 -349.072)"/>
                <path id="패스_842691" d="M786.113 352.438l-.123-.035c-.134-.163-.056-.155-.222-.221.344.256-.067.167.279.423l-.091-.029c.009 0-.012-.021 0-.025-.2-.074.23.216.135.24a.167.167 0 0 1-.135-.064l.055.108c-.017.009-.075-.036-.059-.049l-.022.093-.011-.008c.049.051.117.134.142.168-.062-.017-.03-.033-.077-.062l.061.1c-.107-.047-.17-.144-.138-.162-.379-.21.065.1-.2.03l-.016-.067c-.215-.117-.166-.036-.325-.083.076.035.378.136.434.242-.035-.008-.056 0 0 .072-.128-.088-.111-.043-.124-.011l-.167-.118c.024.063.114.121.172.192-.037.023-.172-.061-.288-.13-.065.036.235.108.221.194-.095 0-.051.077.009.2-.083-.01-.1-.078-.153-.1l.113.121c-.01 0-.044-.025-.068-.044.037.061.166.12.184.185.177.138-.32-.106-.14.085a1.769 1.769 0 0 1-.167-.117 1.3 1.3 0 0 0 .214.3l-.14-.028a.962.962 0 0 1 .367.314l.157.068.052.117a.632.632 0 0 1-.149-.112l.034.036a.71.71 0 0 1-.25-.177c.034.018.078.034.117.052a2.233 2.233 0 0 0-.3-.24.14.14 0 0 1 .033.052.487.487 0 0 0-.067-.054c-.018-.009.016.021.051.062l-.2-.115.074.054h-.17c.152.183.4.42.418.559a2.981 2.981 0 0 0-.382-.268c.188.093-.031-.117.036-.139-.035.012-.108-.044-.13-.071l.1.187c-.131-.091-.108-.049-.18-.066.27.162.134.179.192.266-.087-.057-.172-.127-.128-.153-.225-.088.274.266.077.2.005-.013.02-.009-.019-.04.062.073-.037.087-.107.022v-.011c-.074.042-.132.2.085.358-.026-.022-.262-.2-.309-.225l.68.619a4.8 4.8 0 0 1-.744-.532c-.036 0-.079-.006-.034.072a1.51 1.51 0 0 1 .3.188 1.872 1.872 0 0 0-.348-.123c.054.01.342.231.317.251-.043-.038-.3-.2-.326-.227l.255.258a1.61 1.61 0 0 0-.344-.213c.064.032-.04.05-.021.087l.088.02c-.092.04.373.346.309.4a1.652 1.652 0 0 0-.428-.258 5.654 5.654 0 0 1 .765.694l-.095-.046.066.113c-.209-.18-.636-.581-.794-.75-.087-.019-.109-.06-.128-.015-.089-.041-.109-.1-.1-.119l-.115.057c.181.112.131.187.286.283l-.12-.221c.18.114.466.391.394.433a3.7 3.7 0 0 1-.372-.256c.057.046.076.136.03.116l-.078-.093c-.088-.007.2.213 0 .147-.022.008-.256-.106-.152-.036a10.55 10.55 0 0 1 .992.634 2.674 2.674 0 0 1-.359-.1c-.178-.083-.354-.287-.5-.355a.79.79 0 0 1 .109.1c-.048-.011-.141-.106-.147-.057.18.125-.058.061.142.118.03.067-.061.01-.076.055a1.5 1.5 0 0 1 .4.36 1.258 1.258 0 0 0-.138-.076c-.063.056-.169.041-.213.1a.571.571 0 0 1-.189-.088c.026.028.081.073.074.1-.183-.064 0-.061-.205-.153.1.072.115.146.162.217.169.1.077-.045.026-.114a1.428 1.428 0 0 1 .487.478c.021.093-.159-.07-.131-.041-.107.075.335.341.116.319a2.373 2.373 0 0 1-.39-.244c-.026-.079.132-.007.147-.041l-.09-.009c-.041-.043-.056-.1 0-.086-.147-.053-.134.155-.3.155a.379.379 0 0 0 .134.127v-.039c.129.053.129.151.2.155.061.086.162.2.068.21l-.169-.1c.05.029.117.032.075-.012.057.066-.266-.074-.065.087l.135.041c.058.082.206.237.128.243.172.088-.013-.02.192.075-.248-.126.08-.1-.192-.216.237.11.125.006.336.091-.052-.036-.11-.055-.061-.072-.012-.013-.034-.03-.044-.039 0-.007-.007-.008 0 0a.324.324 0 0 1-.094-.035c-.11-.1-.072-.148-.123-.211.04 0 .056.051.119.076l-.077-.089c.121.075.233.074.273.17l.034-.041c.085.021.132 0 .1-.053.035-.006-.1-.138-.022-.061l-.029-.114.033.018c.055-.057-.11-.265.153-.2-.013-.041-.035-.089.02-.1l.109.057c-.016-.052.161-.018.062-.1.3.149.151-.1.23-.116l-.128-.091c.028-.029.015-.086-.014-.163l-.118-.077c-.073-.1.148-.039.174-.106.044.036.021.043-.016.035.315.1-.1-.277.141-.212-.034-.044-.01-.044.03-.035v.008-.006l.079.019a.41.41 0 0 0-.075-.023.133.133 0 0 0-.014-.078l.131.076v-.007c.059.013-.049-.053-.154-.108a.313.313 0 0 0-.059-.075c.215.123-.037-.094.2.034-.1-.084-.019-.145-.24-.3.032.018.049.023.044.036.039 0 .078-.011.024-.071l.168.1-.188-.19a.585.585 0 0 1 .288.176c-.15-.192-.039-.1-.191-.28l.1.073c.011-.022-.11-.148-.014-.1.229.088.168-.2.428-.188-.323-.185.166.043-.064-.123a.5.5 0 0 1 .179.116c-.034-.1.17-.01 0-.184.08.043.1.086.145.109-.012-.015-.049-.061 0-.039s.054.052.081.083c.026-.068-.2-.225-.4-.373.116.038.112.014-.012-.1.076.034.159.067.159.119.023-.014.181-.055.016-.172.049.022.032-.02.019-.038.04-.04.057-.032.072-.091l-.038-.006c-.186-.156-.021-.066-.019-.12l.019.015c.2.018-.043-.082.179-.047l-.125-.082c-.266-.2.205.039.14-.078l-.085-.032c-.072-.091.414.183.466.179.029.013.033.036.046.056.2.044-.158-.124-.162-.2.095.052.213.168.256.147.083.033-.216-.3-.017-.224a.415.415 0 0 1-.183-.134c0-.052.325.087.135-.1a.474.474 0 0 1 .056.03c-.034-.064-.028-.151-.131-.248.447.283-.088-.316.307-.032l.04-.1.035.031c.067-.033-.016-.123-.1-.208a.167.167 0 0 1 .084.057c.135-.019.126-.038-.021-.246l.132.088c-.063-.071.277.034.186-.151a.542.542 0 0 1 .05.051c-.087-.194.5.059.059-.316l-.073-.139c-.085.045-.191-.161-.288-.189-.008-.051.191.029.191.082l-.025-.011c.227.193.148-.026.308.1.094-.151.32-.192.437-.307l-.193-.128.045-.035c.052.021.158.1.124.123.117.062-.046-.121-.081-.153.12 0 .193.19.21.174l.009-.035-.025-.011c-.059-.079-.134-.142-.1-.172.059 0 .123.076.14.072s.019.011.013-.011l.063-.043-.162-.092c-.049-.079.049-.047-.134-.149.283.163.264-.135.361-.1-.077-.119-.046-.152 0-.181-.04-.015-.2-.141-.154-.16.32.283.2.05.459.216-.18-.1.046-.137-.211-.279.052-.008.125.1.219.142-.066-.18.216-.091.247-.215a.758.758 0 0 1-.167-.151l.253.131c-.009-.034-.233-.223-.059-.129-.036-.024-.1-.067-.1-.088.351 0 .13-.506.661-.344-.1-.047-.1-.071-.084-.093-.031 0-.1-.091-.163-.139l.22.066c-.148-.155.056-.087-.087-.232l.008.049a7.527 7.527 0 0 0-.65-.512c.17.213-.38-.173-.139.142-.056-.028-.065-.074-.124-.115.086.1.092.137.019.131l-.02-.025c-.054.116-.185.073-.339.124l.119.091c-.033.008-.072-.017-.109-.031.15.176.065-.056.234.131-.255-.169-.139.157-.418-.047-.031.034.142.1.11.136l-.081-.051.087.087c-.038.01-.134-.055-.194-.107.009 0 0-.029-.005-.039-.107-.043-.044.107-.079.095h.073c-.013.151-.2.192-.134.407l.061.035c.042.155-.1.009-.123.126l-.012-.015c.04.06.053.1.025.119-.043-.071-.156-.065-.2-.147.046.166.052.106.219.322l-.1-.061c.066.084.109.119.1.178-.054-.1-.162-.088-.236-.209-.267-.078.1.284-.223.087.224.238.2.042.238.106.095.05.167.183.118.187-.029.021-.36-.215-.415-.144.012-.008-.011-.022 0-.029-.085-.026.05.118-.079.067.139.135-.043.03.15.188v-.093c.024.073.231.286.073.252a.535.535 0 0 1-.1-.125c-.072-.032.017.061-.063.031-.193-.159.02-.1-.1-.262-.095-.046.085.181-.116 0 .256.237-.087.035.088.242l-.118-.095c.01.022.057.081.044.091l-.134-.144c.1.139-.176-.018-.128.073.054-.077.157.092.268.128.091.216-.354-.184-.372-.035-.005-.028.11 0 .15.065a.375.375 0 0 1-.178-.043c-.024.088.134.084.185.168-.163-.087.034.081.059.147l-.12-.093c-.136.018.238.212.094.211l-.151-.157.018.068-.131-.11c.074.118.038.109-.028.12.093.054.216.172.192.209-.089-.03-.1-.1-.123-.036-.067-.07-.156-.153-.027-.091-.036-.036-.07-.066-.107-.1-.1-.036-.067.053-.075.071.008-.007.019-.009.042 0l.117.2a.318.318 0 0 1-.115-.1c.005.025.052.076.047.106-.092-.078-.2-.155-.223-.22l.057.149a.783.783 0 0 1-.172-.087c-.088-.006.124.234.008.23a.108.108 0 0 1 .041.059c-.055.028-.208-.018-.112.138l-.2-.1c.012.074.257.125.275.245.021.094-.169-.092-.233-.11.073.091.228.27.047.212-.032-.026.003-.017-.002-.043zm-.309.6c-.016-.029-.085-.107 0-.062.13.111.055.073-.004.062zm-.272 1.036c-.036-.039-.005-.034.049-.013.003.013-.005.022-.049.012zm-.645 2.91l-.005-.007c.064.01.04.004.005.006zm-.087.016a.2.2 0 0 0 .049.036c-.025-.022-.021-.038-.007-.042-.035-.022-.062-.032-.042.006zm3.536-5.189l-.037-.014c-.019-.05.001-.02.037.011z" class="cls-1" transform="translate(-783.545 -349.538)"/>
                <path id="패스_842692" d="M785.294 353.454c.023.012.046.026.073.042a.146.146 0 0 0-.073-.042z" class="cls-1" transform="translate(-783.416 -349.131)"/>
                <path id="패스_842693" d="M786.084 351.819l-.017-.017z" class="cls-1" transform="translate(-783.336 -349.303)"/>
                <path id="패스_842694" d="M784.2 354.959a.268.268 0 0 1 .082.023c-.034-.019-.066-.033-.082-.023z" class="cls-1" transform="translate(-783.53 -348.974)"/>
                <path id="패스_842695" d="M784.779 356.664l-.014-.054c0 .02-.034.009-.06 0 .03.022.081.043.074.054z" class="cls-1" transform="translate(-783.477 -348.802)"/>
                <path id="패스_842696" d="M783.892 356.44c.013.02 0 .012.008.028l.061.036c.008-.021-.028-.066-.069-.064z" class="cls-1" transform="translate(-783.562 -348.82)"/>
                <path id="패스_842697" d="M784.375 356.439c-.1-.067-.083-.023-.078.011.151.101.115.044.078-.011z" class="cls-1" transform="translate(-783.52 -348.824)"/>
                <path id="패스_842698" d="M784.3 356.453c0 .011 0 .018-.013.021.06.044.019.001.013-.021z" class="cls-1" transform="translate(-783.521 -348.819)"/>
                <path id="패스_842699" d="M784.758 356.4c-.036-.007.136.1.087.075.127.095-.122-.184-.087-.075z" class="cls-1" transform="translate(-783.472 -348.827)"/>
                <path id="패스_842700" d="M784.035 356.243l.141.077-.1-.079z" class="cls-1" transform="translate(-783.547 -348.841)"/>
                <path id="패스_842701" d="M784.236 356.142l-.062.011a.121.121 0 0 1 .04.039c.02-.019.057-.025.022-.05z" class="cls-1" transform="translate(-783.533 -348.851)"/>
                <path id="패스_842702" d="M784.211 356.187c-.009.011-.013.022 0 .043a.039.039 0 0 0 0-.043z" class="cls-1" transform="translate(-783.53 -348.846)"/>
                <path id="패스_842703" d="M784.028 356.178l.037.006.025-.019z" class="cls-1" transform="translate(-783.548 -348.849)"/>
                <path id="패스_842704" d="M784.483 355.82l-.01-.064c-.045-.034-.081-.042-.072-.017.029.032.035.061.082.081z" class="cls-1" transform="translate(-783.509 -348.895)"/>
                <path id="패스_842705" d="M784.083 355.71a.436.436 0 0 1 .112.046l-.164-.11z" class="cls-1" transform="translate(-783.548 -348.903)"/>
                <path id="패스_842706" d="M784.119 355.585c-.043-.035-.095-.14-.116-.084.043.035.055.099.116.084z" class="cls-1" transform="translate(-783.55 -348.919)"/>
                <path id="패스_842707" d="M784.644 355.173l-.008.012.274.174z" class="cls-1" transform="translate(-783.484 -348.952)"/>
                <path id="패스_842708" d="M784.369 354.323c-.1 0 .161.121.054.108.055.054.084.012.131.059-.047-.072-.003-.062-.185-.167z" class="cls-1" transform="translate(-783.515 -349.04)"/>
                <path id="패스_842709" d="M784.535 354.474l.033.041a.13.13 0 0 0-.033-.041z" class="cls-1" transform="translate(-783.495 -349.025)"/>
                <path id="패스_842710" d="M789.265 350.227l.072.017-.095-.053z" class="cls-1" transform="translate(-783.005 -349.47)"/>
                <path id="패스_842711" d="M789.141 350.033l.157.13-.127-.139c.003.012.005.036-.03.009z" class="cls-1" transform="translate(-783.016 -349.487)"/>
                <path id="패스_842712" d="M785.28 352.566l.039.031c.047.025.057.021.072.012z" class="cls-1" transform="translate(-783.418 -349.223)"/>
                <path id="패스_842713" d="M785.651 352.288v.005l.158.1z" class="cls-1" transform="translate(-783.379 -349.252)"/>
                <path id="패스_842714" d="M785.694 351.862c-.015.009.008.05-.008.057-.008-.048.2.075.008-.057z" class="cls-1" transform="translate(-783.375 -349.296)"/>
            </g>
            <g id="그룹_457008" transform="translate(16.07 12.684)">
                <path id="패스_842715" d="M788.509 361.668c-.007-.014-.033.117-.036.139a.431.431 0 0 0 .036-.139z" class="cls-1" transform="translate(-788.473 -359.948)"/>
                <path id="패스_842716" d="M788.74 361.437l-.016.054.058-.126z" class="cls-1" transform="translate(-788.447 -359.979)"/>
                <path id="패스_842717" d="M788.915 361.474c.027-.225-.073.023-.09-.06l.005-.053-.05.178c.044-.023.12-.133.135-.065z" class="cls-1" transform="translate(-788.441 -359.98)"/>
                <path id="패스_842718" d="M788.915 361.92c.008-.086.034-.071-.018-.03v.022a.026.026 0 0 1 .018.008z" class="cls-1" transform="translate(-788.429 -359.928)"/>
                <path id="패스_842719" d="M788.9 361.907c-.02 0 0 .075 0 0z" class="cls-1" transform="translate(-788.43 -359.923)"/>
                <path id="패스_842720" d="M788.99 361.877l-.039.072c0 .053.019.067 0 .106.039-.039.039-.092.039-.178z" class="cls-1" transform="translate(-788.423 -359.926)"/>
                <path id="패스_842721" d="M789.036 361.732l-.014.032c-.005.021 0 .03.014-.032z" class="cls-1" transform="translate(-788.416 -359.941)"/>
                <path id="패스_842722" d="M788.983 361.831l.043-.065c0-.038.01-.11-.02.021.015-.064-.006-.003-.023.044z" class="cls-1" transform="translate(-788.42 -359.943)"/>
                <path id="패스_842723" d="M788.974 361.8a.2.2 0 0 1 .022-.155c-.056.02-.074.179-.022.155z" class="cls-1" transform="translate(-788.424 -359.95)"/>
                <path id="패스_842724" d="M788.952 361.26l-.008-.067-.025.072c.012-.033.02.066.033-.005z" class="cls-1" transform="translate(-788.427 -359.997)"/>
                <path id="패스_842725" d="M789.117 362.024c.011-.046.013-.125.02-.187l-.028.049a.339.339 0 0 1 .008.138z" class="cls-1" transform="translate(-788.407 -359.93)"/>
                <path id="패스_842726" d="M789.134 361.845l.043-.077c-.025-.015-.033.022-.043.077z" class="cls-1" transform="translate(-788.404 -359.938)"/>
                <path id="패스_842727" d="M789.086 361.509l-.077.162.086-.162z" class="cls-1" transform="translate(-788.417 -359.964)"/>
                <path id="패스_842728" d="M789.223 362.035l-.036.107.052-.163z" class="cls-1" transform="translate(-788.399 -359.915)"/>
                <path id="패스_842729" d="M789.289 362.024c-.028.091-.007.158-.03.211a.441.441 0 0 0 .076-.156c-.02.037-.035.021-.046-.055z" class="cls-1" transform="translate(-788.391 -359.911)"/>
                <path id="패스_842730" d="M789.37 361.984c-.012.021-.022.06-.042.1a.357.357 0 0 0 .042-.1z" class="cls-1" transform="translate(-788.384 -359.915)"/>
                <path id="패스_842731" d="M789.214 361.8a.4.4 0 0 0 0 .14l.011-.138z" class="cls-1" transform="translate(-788.396 -359.934)"/>
                <path id="패스_842732" d="M789.226 361.794a.067.067 0 0 1 .02.013z" class="cls-1" transform="translate(-788.395 -359.935)"/>
                <path id="패스_842733" d="M789.212 361.8c.002-.016.002-.022 0 0z" class="cls-1" transform="translate(-788.396 -359.936)"/>
                <path id="패스_842734" d="M789.126 361.655a.476.476 0 0 0 .061-.266 1.457 1.457 0 0 1-.061.266z" class="cls-1" transform="translate(-788.405 -359.977)"/>
                <path id="패스_842735" d="M789.225 361.647l-.023-.039a1.1 1.1 0 0 1-.021.125z" class="cls-1" transform="translate(-788.399 -359.954)"/>
                <path id="패스_842736" d="M789.246 361.6l-.026.042.015.011z" class="cls-1" transform="translate(-788.395 -359.954)"/>
                <path id="패스_842737" d="M789.336 361.874c.022-.055.039-.057.055-.065-.012-.03-.028-.046-.043-.047-.012.038-.031.113-.012.112z" class="cls-1" transform="translate(-788.384 -359.938)"/>
                <path id="패스_842738" d="M789.283 361.822v-.007c.003-.015.003-.015 0 .007z" class="cls-1" transform="translate(-788.389 -359.934)"/>
                <path id="패스_842739" d="M789.53 361.827v-.025.023z" class="cls-1" transform="translate(-788.363 -359.934)"/>
                <path id="패스_842740" d="M789.352 361.739c-.013-.031-.023 0-.039.041.013-.01.022-.019.036-.015.005-.021.005-.034.003-.026z" class="cls-1" transform="translate(-788.386 -359.942)"/>
                <path id="패스_842741" d="M789.416 361.941a.316.316 0 0 0-.012-.077c-.004.043.008.11.012.077z" class="cls-1" transform="translate(-788.376 -359.927)"/>
                <path id="패스_842742" d="M789.286 361.847v.007c-.003.027 0 .014 0-.007z" class="cls-1" transform="translate(-788.389 -359.929)"/>
                <path id="패스_842743" d="M789.286 361.854a.566.566 0 0 0 .03-.079.137.137 0 0 0-.03.043z" class="cls-1" transform="translate(-788.388 -359.937)"/>
                <path id="패스_842744" d="M789.7 361.048c-.016.126-.071.234-.083.1a3.757 3.757 0 0 0-.084.733.5.5 0 0 1 .052-.173.643.643 0 0 1 0-.277c.05-.059.027.045.036.117 0-.157.081-.22.1-.452l-.041.079c.002-.038.02-.093.02-.127z" class="cls-1" transform="translate(-788.363 -360.012)"/>
                <path id="패스_842745" d="M789.482 361.784l-.014.015a.541.541 0 0 1 .02.172.536.536 0 0 0 .046-.146l-.06-.024z" class="cls-1" transform="translate(-788.37 -359.936)"/>
                <path id="패스_842746" d="M789.418 361.823a1.3 1.3 0 0 0 .075-.337c-.041.006-.045.109-.073.168.063-.029-.028.072 0 .151-.017.023-.024.03-.038.032a.222.222 0 0 1 .021.066v-.031a.129.129 0 0 0 .01-.051c.015.028 0 .036-.01.051v.022l.068-.065c-.004-.022-.016-.018-.053-.006z" class="cls-1" transform="translate(-788.378 -359.967)"/>
                <path id="패스_842747" d="M789.25 361.132v.032c.008-.015.01-.026 0-.032z" class="cls-1" transform="translate(-788.392 -360.003)"/>
                <path id="패스_842748" d="M789.265 361.215c-.007.019-.017.071-.03.055a.327.327 0 0 1 .018-.109.258.258 0 0 0-.029.163l.007-.02a.912.912 0 0 1 .009.24c.011-.118.021-.207.025-.329z" class="cls-1" transform="translate(-788.395 -360)"/>
                <path id="패스_842749" d="M789.346 361.485l.056-.058-.008-.119-.009.071c-.024-.033-.03.053-.039.106z" class="cls-1" transform="translate(-788.382 -359.985)"/>
                <path id="패스_842750" d="M789.528 361.891l-.023.143.052-.2z" class="cls-1" transform="translate(-788.366 -359.93)"/>
                <path id="패스_842751" d="M789.589 361.877l-.02.123.027-.072z" class="cls-1" transform="translate(-788.359 -359.926)"/>
                <path id="패스_842752" d="M792.761 360.57l.012-.038a.055.055 0 0 0-.012.038z" class="cls-1" transform="translate(-788.027 -360.066)"/>
                <path id="패스_842753" d="M792.673 360.564v.063c.004-.034.007-.062 0-.063z" class="cls-1" transform="translate(-788.036 -360.063)"/>
                <path id="패스_842754" d="M791.013 361.994c.019.119.034.3.036.16v-.136c-.015.023-.026.006-.036-.024z" class="cls-1" transform="translate(-788.209 -359.914)"/>
                <path id="패스_842755" d="M791.985 361.265l-.008-.04c0 .045-.006.092-.011.134.005-.031.013-.059.019-.094z" class="cls-1" transform="translate(-788.11 -359.994)"/>
                <path id="패스_842756" d="M791.983 360.748l.028.088a.283.283 0 0 0-.028-.088z" class="cls-1" transform="translate(-788.108 -360.043)"/>
                <path id="패스_842757" d="M793.211 360.4v-.142c-.025.002-.011.071 0 .142z" class="cls-1" transform="translate(-787.982 -360.095)"/>
                <path id="패스_842758" d="M790.185 361.905c.013.057.022.083.032.091-.017-.083-.017-.203-.032-.091z" class="cls-1" transform="translate(-788.295 -359.928)"/>
                <path id="패스_842759" d="M792.838 361.893a.244.244 0 0 0 .006-.086.184.184 0 0 0-.006.086z" class="cls-1" transform="translate(-788.019 -359.933)"/>
                <path id="패스_842760" d="M790.273 361.989a.089.089 0 0 1-.007-.034c-.015.024-.034.04-.052.031.015.061.03.096.059.003z" class="cls-1" transform="translate(-788.292 -359.918)"/>
                <path id="패스_842761" d="M794.871 360.14c.008 0 .008.007.014.013-.006-.017-.006-.017-.014-.013z" class="cls-1" transform="translate(-787.808 -360.107)"/>
                <path id="패스_842762" d="M795.766 361.17c0 .01-.013.012-.021.02s.015.001.021-.02z" class="cls-1" transform="translate(-787.717 -360)"/>
                <path id="패스_842763" d="M789.814 361.959c-.013.005 0 .013 0 0z" class="cls-1" transform="translate(-788.334 -359.917)"/>
                <path id="패스_842764" d="M789.817 361.469c0-.014.008-.034.01-.065-.004.032-.01.053-.01.065z" class="cls-1" transform="translate(-788.333 -359.975)"/>
                <path id="패스_842765" d="M790.454 361.225c.001-.025 0-.018 0 0z" class="cls-1" transform="translate(-788.267 -359.995)"/>
                <path id="패스_842766" d="M789.8 361.9a.1.1 0 0 0 .01.044.163.163 0 0 0-.01-.044z" class="cls-1" transform="translate(-788.335 -359.924)"/>
                <path id="패스_842767" d="M789.8 361.962a.123.123 0 0 0-.013-.018c-.004.025-.004.039.013.018z" class="cls-1" transform="translate(-788.337 -359.919)"/>
                <path id="패스_842768" d="M789.834 361.955a.024.024 0 0 1-.021-.015v.021a.087.087 0 0 1 .021-.006z" class="cls-1" transform="translate(-788.334 -359.919)"/>
                <path id="패스_842769" d="M794.065 360.691l.006.009c0-.055-.002-.049-.006-.009z" class="cls-1" transform="translate(-787.891 -360.053)"/>
                <path id="패스_842770" d="M791.37 360.716v.006z" class="cls-1" transform="translate(-788.172 -360.047)"/>
                <path id="패스_842771" d="M791.415 360.621c-.02.172-.032.151-.046.116v.4z" class="cls-1" transform="translate(-788.172 -360.057)"/>
                <path id="패스_842772" d="M793.31 360.557l-.044-.12c.019-.2.05-.137 0-.308.042.428-.11.052-.072.48l-.033-.088c.007 0 .006-.022.014-.018-.059-.2 0 .311-.059.254a.2.2 0 0 1-.032-.143l-.031.107c-.013 0-.014-.079 0-.074l-.06.039v-.011c-.007.066-.015.171-.022.215-.02-.06 0-.045 0-.1l-.025.107c-.02-.108 0-.22.025-.209-.068-.425-.023.113-.11-.133l.029-.055c-.036-.245-.056-.155-.1-.3a1.646 1.646 0 0 1 .068.487c-.012-.032-.026-.046-.04.041-.009-.151-.029-.113-.051-.1l-.013-.2a1.909 1.909 0 0 0-.021.255c-.032-.015-.042-.173-.058-.3-.049-.03.047.248-.008.29-.043-.074-.064.01-.1.136-.032-.067 0-.125-.013-.181l-.018.161c-.007 0-.007-.052-.007-.077-.016.063.006.2-.022.258 0 .226-.08-.319-.113-.065-.009-.06 0-.128 0-.2a1.871 1.871 0 0 0-.081.343l-.044-.131a1.242 1.242 0 0 1-.028.478c.016.075.025.14.031.17l-.054.108a1.426 1.426 0 0 1 0-.184v.046a.983.983 0 0 1-.008-.307.913.913 0 0 1 .023.127 2.9 2.9 0 0 0 .013-.378.21.21 0 0 1-.013.055v-.086c0-.021-.008.024-.013.078l-.019-.227v.089l-.07-.14a2.343 2.343 0 0 1-.161.654 3.809 3.809 0 0 0 0-.466c.024.208.059-.086.1-.045a.27.27 0 0 1-.012-.149l-.065.191a.32.32 0 0 0-.036-.189c.017.319-.049.212-.081.311 0-.109.007-.217.041-.192-.036-.238-.052.374-.086.17.009 0 .013.015.016-.04-.021.095-.068.02-.058-.071h.011c-.059-.04-.169 0-.183.267 0-.034.017-.326.017-.38l-.124.906a6.517 6.517 0 0 1 .044-.912c-.01-.034-.026-.074-.059.01a1.755 1.755 0 0 1 0 .358 2.645 2.645 0 0 0-.053-.361 1.193 1.193 0 0 1-.036.4c.007-.055.011-.359.02-.4l-.065.351a2.1 2.1 0 0 0 0-.4c0 .072-.044-.008-.057.028l.018.084c-.057-.059-.084.5-.144.473a2.112 2.112 0 0 0 .013-.5 7 7 0 0 1-.174 1.011v-.106l-.049.117c.041-.272.148-.847.2-1.068-.017-.085 0-.125-.034-.117a.188.188 0 0 1 .036-.151l-.073-.067c-.009.214-.074.21-.078.385l.1-.214c-.012.212-.083.6-.141.56-.008-.086.032-.381.036-.448-.012.073-.062.135-.064.083l.03-.111c-.025-.081-.067.278-.089.074-.013-.014-.023-.277-.033-.15.005.244-.041.991-.071 1.177a2.846 2.846 0 0 1-.061-.358c-.006-.191.067-.454.061-.615a.621.621 0 0 1-.028.149c-.007-.047.019-.179-.012-.153-.023.214-.061-.023-.031.182-.032.057-.026-.046-.061-.039a1.908 1.908 0 0 1-.106.53c.006-.056 0-.128 0-.16-.058-.018-.079-.124-.138-.131a.913.913 0 0 1 0-.21c-.01.038-.022.106-.044.113-.012-.189.044-.024.04-.25a.72.72 0 0 1-.091.24c-.014.2.05.044.082-.031a1.828 1.828 0 0 1-.168.656c-.056.06 0-.174-.018-.137-.085-.059-.125.455-.18.255a3.517 3.517 0 0 1 .044-.461c.045-.06.045.116.075.112l-.025-.085c.02-.055.05-.094.057-.042-.008-.158-.147-.049-.2-.2a.515.515 0 0 0-.05.178l.026-.022c0 .142-.063.184-.042.254-.04.091-.093.238-.125.156l.016-.193c-.008.056.013.12.032.06-.031.085-.031-.268-.085-.017l.014.137c-.041.093-.107.293-.136.229-.01.19.013-.021.01.2.011-.28.095.022.1-.272-.006.259.03.115.04.34.007-.064 0-.121.028-.091a.245.245 0 0 0 .017-.053v-.008c0-.009 0-.01 0 0v-.1c.031-.141.081-.132.109-.205.013.033-.015.072-.015.141l.04-.108c-.017.139.02.238-.032.316l.036.011c.016.082.045.118.07.06.015.034.066-.151.04-.041l.072-.081v.035c.06.027.148-.222.2.043.021-.033.046-.072.08-.029v.125c.028-.042.068.126.089 0 0 .333.128.081.171.14l.013-.16c.03.012.067-.03.112-.092l.008-.144c.041-.114.082.107.138.1-.008.054-.02.039-.03.007.051.322.152-.225.2.008.017-.046.028-.03.035.007v.009l.017.078a.3.3 0 0 0-.011-.078c.011 0 .03-.018.047-.051v.153c.013.056.015-.075.013-.187.008-.025.016-.057.023-.095 0 .25.049-.079.055.184.02-.126.092-.091.107-.359v.054c.014.032.035.062.053-.011v.194l.047-.261a.691.691 0 0 1 0 .337 2.988 2.988 0 0 0 .106-.315v.123c.018 0 .05-.171.062-.07.035.24.194.032.3.255-.018-.368.052.167.054-.119a.591.591 0 0 1 0 .211c.056-.085.086.137.12-.1.005.088-.011.128 0 .18 0-.02.014-.076.021-.025a.21.21 0 0 1-.017.113c.056-.014.056-.285.056-.537.029.118.044.1.06-.064.01.083.028.171-.005.2.02.011.12.12.116-.083.008.052.025.015.031-.006.044.009.051.029.088.007l-.013-.032c.009-.246.035-.056.066-.087v.025c.086.168.03-.088.113.107l-.008-.151c-.012-.328.075.188.109.059l-.019-.084c.018-.115.095.439.122.476a.1.1 0 0 1-.015.068c.078.188 0-.2.042-.248.015.108.01.276.041.291.024.084.07-.357.129-.152a.526.526 0 0 1-.012-.227c.029-.032.116.306.125.044a.448.448 0 0 1 .011.061.568.568 0 0 0 .074-.257c.077.52.137-.265.184.216l.077-.034v.052c.056.023.056-.094.064-.213a.3.3 0 0 1 .014.1c.083.085.088.065.12-.183l.028.152c0-.092.139.231.187.036a.25.25 0 0 1 0 .072c.052-.192.264.4.205-.168l.032-.148c-.075-.033-.032-.245-.075-.336.021-.039.1.16.068.2l-.01-.03c.036.3.1.092.136.291.136-.033.3.112.425.089l-.059-.225h.047c.023.051.051.173.019.172.043.126.032-.121.022-.169.081.077.029.268.05.27l.023-.023-.013-.024c0-.1-.018-.194.025-.194.032.041.042.138.053.146s.007.022.014 0l.063.005-.063-.173c.007-.095.054 0-.018-.2.11.3.234.062.278.155.005-.137.038-.144.084-.139-.021-.032-.077-.231-.035-.213.092.414.111.164.22.454-.077-.191.093-.076-.028-.343.042.026.046.153.1.245.03-.172.185.055.259-.025a.909.909 0 0 1-.056-.214l.124.25c.01-.031-.077-.312.012-.137a.389.389 0 0 1-.041-.132c.257.2.278-.319.618.1-.058-.095-.045-.11-.03-.117a1.184 1.184 0 0 1-.071-.2l.142.173c-.058-.2.074-.039.009-.227l-.009.041c-.052-.231-.224-.48-.326-.767.061.266-.218-.347-.138.033-.033-.055-.022-.1-.051-.16.028.129.022.157-.029.112l-.005-.031c-.071.06-.148-.052-.268-.106l.054.14c-.024-.011-.043-.054-.065-.087.047.225.056-.007.118.241-.12-.284-.142.043-.263-.287-.03.009.06.163.029.17l-.036-.086.029.119a.518.518 0 0 1-.093-.2c.005.009.008-.024.008-.031-.055-.1-.059.058-.074.025l.041.045c-.056.113-.188.031-.219.23l.022.065c-.029.141-.068-.062-.124.011v-.018c0 .074 0 .112-.028.107 0-.082-.071-.148-.071-.242-.032.152-.007.117.01.381l-.035-.11c.007.1.02.159-.007.2 0-.106-.068-.171-.066-.307-.129-.235-.046.277-.162-.082.036.322.1.162.1.234.039.1.026.242 0 .216-.028 0-.13-.4-.183-.378.005 0 0-.025.005-.023-.041-.075-.02.12-.075-.008.024.2-.034 0 .013.243l.038-.065c-.014.07.017.365-.064.237v-.158c-.03-.071-.017.053-.047-.02-.043-.246.053-.065.047-.263-.036-.1-.025.194-.064-.077.049.344-.063-.029-.052.238l-.025-.149c0 .025 0 .1-.013.1l-.015-.194c0 .168-.086-.127-.1-.033.061-.02.044.174.095.277-.045.213-.12-.381-.2-.295.009-.024.062.082.053.153a.632.632 0 0 1-.077-.157c-.052.038.039.148.026.244-.05-.177-.017.077-.03.141l-.028-.152c-.083-.088.038.317-.044.212l-.009-.216-.022.058-.021-.172c-.016.134-.031.1-.072.056.024.106.039.277.008.284-.034-.086-.008-.142-.047-.116-.008-.1-.013-.215.029-.078-.006-.051-.008-.1-.015-.146-.036-.1-.054-.017-.072-.013a.059.059 0 0 1 .023.033l-.03.218a.432.432 0 0 1-.018-.147c-.011.015-.009.089-.022.1a1.01 1.01 0 0 1-.015-.309l-.04.144a1.53 1.53 0 0 1-.051-.19c-.038-.065-.044.252-.1.161a.152.152 0 0 1-.012.068c-.042-.023-.093-.171-.119.007l-.054-.217c-.031.056.068.276.018.369-.038.077-.04-.187-.059-.248-.011.116-.026.344-.086.167-.004-.055.009-.024.019-.041zm-.454.131c0-.031.013-.131.03-.043 0 .176-.013.095-.03.044zm-.705.4c.007-.052.016-.025.03.031-.008.014-.017.01-.03-.03zm-2.154.954c.018.058.01.031.003.001zm-.039-.067a.179.179 0 0 0-.009.061c.007-.038.017-.039.028-.024 0-.043-.004-.069-.019-.036zm4.916-.254l-.015-.038c.013-.045.016-.007.016.039z" class="cls-1" transform="translate(-788.353 -360.11)"/>
                <path id="패스_842773" d="M791.983 360.807c0 .025 0 .055.005.084a.167.167 0 0 0-.005-.084z" class="cls-1" transform="translate(-788.108 -360.037)"/>
                <path id="패스_842774" d="M793.21 360.41v-.027z" class="cls-1" transform="translate(-787.98 -360.081)"/>
                <path id="패스_842775" d="M790.657 360.69a.693.693 0 0 1 .009.081.1.1 0 0 0-.009-.081z" class="cls-1" transform="translate(-788.246 -360.049)"/>
                <path id="패스_842776" d="M789.681 362.013l.034-.038c-.02.007-.02-.024-.024-.049-.003.035-.003.086-.01.087z" class="cls-1" transform="translate(-788.347 -359.921)"/>
                <path id="패스_842777" d="M789.568 361.128c-.006.019-.006 0-.014.022l-.01.068c.02-.001.039-.057.024-.09z" class="cls-1" transform="translate(-788.362 -360.004)"/>
                <path id="패스_842778" d="M789.718 361.555c.014-.13-.01-.086-.032-.067-.029.179.002.123.032.067z" class="cls-1" transform="translate(-788.348 -359.969)"/>
                <path id="패스_842779" d="M789.683 361.489c-.01 0-.014.011-.019 0-.016.074.005.02.019 0z" class="cls-1" transform="translate(-788.35 -359.966)"/>
                <path id="패스_842780" d="M789.869 361.87c-.009-.034-.023.162-.028.11-.028.161.091-.189.028-.11z" class="cls-1" transform="translate(-788.331 -359.928)"/>
                <path id="패스_842781" d="M789.751 361.164l-.016.157.031-.125z" class="cls-1" transform="translate(-788.342 -360)"/>
                <path id="패스_842782" d="M789.883 361.29l-.027-.047a.124.124 0 0 1-.019.052c.021.005.037.042.046-.005z" class="cls-1" transform="translate(-788.331 -359.992)"/>
                <path id="패스_842783" d="M789.841 361.29c-.007-.006-.018 0-.028.023a.055.055 0 0 0 .028-.023z" class="cls-1" transform="translate(-788.334 -359.987)"/>
                <path id="패스_842784" d="M789.8 361.125v.035l.017.015z" class="cls-1" transform="translate(-788.335 -360.004)"/>
                <path id="패스_842785" d="M790.181 361.36l.04-.041c.008-.053 0-.088-.013-.068a.31.31 0 0 0-.027.109z" class="cls-1" transform="translate(-788.295 -359.992)"/>
                <path id="패스_842786" d="M790.128 360.954a.667.667 0 0 1 0 .12l.018-.194z" class="cls-1" transform="translate(-788.301 -360.03)"/>
                <path id="패스_842787" d="M790.224 360.928c.008-.054.065-.149.024-.141-.013.052-.048.094-.024.141z" class="cls-1" transform="translate(-788.292 -360.039)"/>
                <path id="패스_842788" d="M790.67 361.18h-.009l-.025.321z" class="cls-1" transform="translate(-788.248 -359.999)"/>
                <path id="패스_842789" d="M791.117 360.506c-.039-.079-.021.2-.052.1-.013.076.026.079.013.146.022-.076.037-.03.039-.246z" class="cls-1" transform="translate(-788.204 -360.07)"/>
                <path id="패스_842790" d="M791.078 360.728c0 .014-.008.028-.013.049.005-.021.011-.035.013-.049z" class="cls-1" transform="translate(-788.203 -360.046)"/>
                <path id="패스_842791" d="M795.9 361.293l.051.054-.056-.1z" class="cls-1" transform="translate(-787.701 -359.991)"/>
                <path id="패스_842792" d="M795.877 361.07l.076.191-.049-.179c-.004.01-.004.03-.027-.012z" class="cls-1" transform="translate(-787.703 -360.01)"/>
                <path id="패스_842793" d="M792.464 360.264v.052c0 .053.013.054.021.063z" class="cls-1" transform="translate(-788.058 -360.094)"/>
                <path id="패스_842794" d="M792.775 360.382h-.009l.028.183z" class="cls-1" transform="translate(-788.026 -360.082)"/>
                <path id="패스_842795" d="M793 360.15c-.012-.008-.02.034-.028.029.017-.037.059.197.028-.029z" class="cls-1" transform="translate(-788.005 -360.106)"/>
            </g>
            <g id="그룹_457009">
                <path id="패스_842796" d="M776.239 356c-.009.012.123 0 .146 0a.382.382 0 0 0-.146 0z" class="cls-1" transform="translate(-773.676 -347.854)"/>
                <path id="패스_842797" d="M775.956 355.849h.054l-.135-.014z" class="cls-1" transform="translate(-773.713 -347.871)"/>
                <path id="패스_842798" d="M775.94 355.679c-.223.041.046.063-.033.1l-.052.011h.184c-.031-.035-.159-.076-.099-.111z" class="cls-1" transform="translate(-773.715 -347.887)"/>
                <path id="패스_842799" d="M776.372 355.545c-.088.013-.077-.013-.025.026l.019-.008s-.001-.006.006-.018z" class="cls-1" transform="translate(-773.668 -347.901)"/>
                <path id="패스_842800" d="M776.36 355.563c.012.02.074-.02 0 0z" class="cls-1" transform="translate(-773.662 -347.9)"/>
                <path id="패스_842801" d="M776.31 355.489l.08.018c.054-.011.058-.038.1-.03-.046-.023-.097-.014-.18.012z" class="cls-1" transform="translate(-773.668 -347.909)"/>
                <path id="패스_842802" d="M776.154 355.48l.036.009c.02-.006.03-.01-.036-.009z" class="cls-1" transform="translate(-773.684 -347.908)"/>
                <path id="패스_842803" d="M776.266 355.508l-.074-.02c-.036.008-.109.015.03.011-.071.001-.003.001.044.009z" class="cls-1" transform="translate(-773.685 -347.907)"/>
                <path id="패스_842804" d="M776.24 355.525a.208.208 0 0 1-.158.021c.035.049.195.024.158-.021z" class="cls-1" transform="translate(-773.691 -347.903)"/>
                <path id="패스_842805" d="M775.726 355.692l-.064.027.08.009c-.042-.006.058-.044-.016-.036z" class="cls-1" transform="translate(-773.735 -347.886)"/>
                <path id="패스_842806" d="M776.414 355.329c-.045.006-.126.022-.184.031l.055.016a.3.3 0 0 1 .129-.047z" class="cls-1" transform="translate(-773.676 -347.923)"/>
                <path id="패스_842807" d="M776.238 355.359l-.088-.02c-.007.023.034.026.088.02z" class="cls-1" transform="translate(-773.684 -347.922)"/>
                <path id="패스_842808" d="M775.93 355.5l.177.028-.181-.036z" class="cls-1" transform="translate(-773.708 -347.906)"/>
                <path id="패스_842809" d="M776.4 355.23l.114.005-.17-.011z" class="cls-1" transform="translate(-773.664 -347.934)"/>
                <path id="패스_842810" d="M776.371 355.174c.093 0 .152-.032.21-.028a.519.519 0 0 0-.171-.035c.044.013.033.032-.039.063z" class="cls-1" transform="translate(-773.661 -347.946)"/>
                <path id="패스_842811" d="M776.312 355.1a.97.97 0 0 0 .1.012.765.765 0 0 0-.1-.012z" class="cls-1" transform="translate(-773.667 -347.947)"/>
                <path id="패스_842812" d="M776.168 355.3a.439.439 0 0 0 .137-.038l-.134.027z" class="cls-1" transform="translate(-773.682 -347.931)"/>
                <path id="패스_842813" d="M776.165 355.284h.007v-.024a.063.063 0 0 1-.007.024z" class="cls-1" transform="translate(-773.683 -347.93)"/>
                <path id="패스_842814" d="M776.169 355.3c-.015-.007-.016 0 0 0z" class="cls-1" transform="translate(-773.684 -347.927)"/>
                <path id="패스_842815" d="M776.059 355.421a.458.458 0 0 0-.273.011 2.306 2.306 0 0 1 .273-.011z" class="cls-1" transform="translate(-773.722 -347.915)"/>
                <path id="패스_842816" d="M776.021 355.323l-.028.034a.552.552 0 0 1 .124-.012z" class="cls-1" transform="translate(-773.701 -347.924)"/>
                <path id="패스_842817" d="M775.978 355.313l.044.01.009-.01z" class="cls-1" transform="translate(-773.702 -347.925)"/>
                <path id="패스_842818" d="M776.211 355.163c-.062-.007-.063-.021-.077-.038-.026.022-.036.04-.034.055.043.001.116-.002.111-.017z" class="cls-1" transform="translate(-773.69 -347.944)"/>
                <path id="패스_842819" d="M776.176 355.222l-.01-.005c-.012.005-.013.005.01.005z" class="cls-1" transform="translate(-773.684 -347.935)"/>
                <path id="패스_842820" d="M776.119 354.979l-.025.008h.025z" class="cls-1" transform="translate(-773.69 -347.96)"/>
                <path id="패스_842821" d="M776.078 355.184c-.027.014.01.019.052.022a.043.043 0 0 1-.028-.031c-.016.002-.033.002-.024.009z" class="cls-1" transform="translate(-773.693 -347.939)"/>
                <path id="패스_842822" d="M776.257 355.064l-.072.03c.044-.009.107-.031.072-.03z" class="cls-1" transform="translate(-773.681 -347.951)"/>
                <path id="패스_842823" d="M776.2 355.21c.033-.01.019-.003 0 0z" class="cls-1" transform="translate(-773.679 -347.936)"/>
                <path id="패스_842824" d="M776.208 355.211c-.023 0-.055-.007-.084-.008a.094.094 0 0 0 .045.015z" class="cls-1" transform="translate(-773.687 -347.936)"/>
                <path id="패스_842825" d="M775.329 355.024c.125-.011.244.01.109.053a3.483 3.483 0 0 0 .735-.089.49.49 0 0 1-.179-.011.631.631 0 0 1-.27.066c-.067-.033.043-.039.106-.062-.155.033-.232-.026-.459.007l.083.025a.461.461 0 0 0-.125.011z" class="cls-1" transform="translate(-773.77 -347.96)"/>
                <path id="패스_842826" d="M776.088 355.045l.019.011a.517.517 0 0 1 .165-.059.431.431 0 0 0-.152-.012l-.011.061z" class="cls-1" transform="translate(-773.691 -347.959)"/>
                <path id="패스_842827" d="M776.142 355.1a1.346 1.346 0 0 0-.344.013c.016.035.117.014.177.03-.035-.055.077.009.153-.041a.069.069 0 0 1 .036.026c.015-.012.037-.022.061-.038h-.009c-.02 0-.03.007-.02 0h-.006a.369.369 0 0 0-.049 0c.029-.021.036-.007.049 0h.025l-.08-.051c-.017.023-.012.04.007.061z" class="cls-1" transform="translate(-773.721 -347.952)"/>
                <path id="패스_842828" d="M775.518 355.427a.119.119 0 0 1 .033 0c-.02-.008-.029-.007-.033 0z" class="cls-1" transform="translate(-773.75 -347.914)"/>
                <path id="패스_842829" d="M775.6 355.4c.02 0 .074 0 .06.017a.389.389 0 0 1-.109.013.29.29 0 0 0 .162-.015h-.018a.888.888 0 0 1 .227-.075c-.122.02-.208.036-.322.06z" class="cls-1" transform="translate(-773.747 -347.922)"/>
                <path id="패스_842830" d="M775.836 355.254l-.07-.043-.119.038.073-.008c-.02.03.062.014.116.013z" class="cls-1" transform="translate(-773.737 -347.936)"/>
                <path id="패스_842831" d="M776.184 354.971l.144-.008-.2-.007z" class="cls-1" transform="translate(-773.687 -347.962)"/>
                <path id="패스_842832" d="M776.157 354.916l.126-.01-.077-.009z" class="cls-1" transform="translate(-773.684 -347.968)"/>
                <path id="패스_842833" d="M774.378 351.876l-.04-.009a.108.108 0 0 0 .04.009z" class="cls-1" transform="translate(-773.873 -348.283)"/>
                <path id="패스_842834" d="M774.382 351.971l.058-.009c-.04 0-.058.001-.058.009z" class="cls-1" transform="translate(-773.868 -348.273)"/>
                <path id="패스_842835" d="M775.988 353.515c.115-.033.294-.078.155-.061l-.137.023c.028.013.014.023-.018.038z" class="cls-1" transform="translate(-773.701 -348.119)"/>
                <path id="패스_842836" d="M775.146 352.636l-.04.011h.133z" class="cls-1" transform="translate(-773.793 -348.203)"/>
                <path id="패스_842837" d="M774.628 352.691l.085-.038a.5.5 0 0 0-.085.038z" class="cls-1" transform="translate(-773.843 -348.202)"/>
                <path id="패스_842838" d="M774.181 351.4l-.139.006c.004.021.073-.006.139-.006z" class="cls-1" transform="translate(-773.904 -348.332)"/>
                <path id="패스_842839" d="M776.057 354.339c.054-.023.071-.04.073-.053-.072.029-.188.058-.073.053z" class="cls-1" transform="translate(-773.699 -348.032)"/>
                <path id="패스_842840" d="M775.695 351.721a.451.451 0 0 0-.084 0 .184.184 0 0 0 .084 0z" class="cls-1" transform="translate(-773.74 -348.299)"/>
                <path id="패스_842841" d="M776.119 354.239l-.031.013c.022.009.046.022.033.039.06-.024.093-.046-.002-.052z" class="cls-1" transform="translate(-773.691 -348.037)"/>
                <path id="패스_842842" d="M773.948 349.588c.007 0 .008 0 .015-.008-.02.004-.018.007-.015.008z" class="cls-1" transform="translate(-773.914 -348.521)"/>
                <path id="패스_842843" d="M775.07 348.791a.05.05 0 0 1 .018.022c.012-.005.005-.013-.018-.022z" class="cls-1" transform="translate(-773.797 -348.603)"/>
                <path id="패스_842844" d="M776.187 354.678c.011.014.017 0 0 0z" class="cls-1" transform="translate(-773.68 -347.991)"/>
                <path id="패스_842845" d="M775.709 354.79a.57.57 0 0 0-.066 0 .563.563 0 0 1 .066 0z" class="cls-1" transform="translate(-773.737 -347.979)"/>
                <path id="패스_842847" d="M776.132 354.707a.118.118 0 0 0 .039-.024.2.2 0 0 0-.039.024z" class="cls-1" transform="translate(-773.686 -347.99)"/>
                <path id="패스_842848" d="M776.191 354.7c0 .005-.008.008-.01.014.019-.008.039-.014.01-.014z" class="cls-1" transform="translate(-773.681 -347.989)"/>
                <path id="패스_842849" d="M776.182 354.664a.026.026 0 0 1-.015.021l.022-.006a.022.022 0 0 1-.007-.015z" class="cls-1" transform="translate(-773.683 -347.992)"/>
                <path id="패스_842850" d="M774.472 350.487l.012-.006c-.062-.002-.05 0-.012.006z" class="cls-1" transform="translate(-773.862 -348.428)"/>
                <path id="패스_842851" d="M774.671 353.344h.009z" class="cls-1" transform="translate(-773.838 -348.13)"/>
                <path id="패스_842852" d="M774.572 353.315c.172 0 .153.014.12.035l.389-.063z" class="cls-1" transform="translate(-773.848 -348.136)"/>
                <path id="패스_842853" d="M774.349 351.97l-.121.052c-.209-.011-.139-.05-.307.008.428-.06.062.12.488.063l-.085.034c0-.007-.023 0-.02-.013-.2.074.314-.011.262.052a.235.235 0 0 1-.144.04l.111.028c-.007.013-.082.021-.075.008l.043.061h-.012c.07 0 .177 0 .223.01-.063.026-.046 0-.1.009l.107.023c-.107.03-.219.015-.208-.01-.421.091.116.012-.127.118l-.059-.025c-.24.056-.147.07-.293.129a1.6 1.6 0 0 1 .484-.1c-.032.013-.048.03.043.04-.151.022-.11.036-.1.062l-.2.026a1.829 1.829 0 0 0 .257.007c-.018.033-.173.06-.3.084-.025.055.242-.066.288-.014-.068.054.019.07.141.1-.063.039-.121.012-.177.031l.163.005a.261.261 0 0 1-.078.013c.068.011.2-.027.263 0 .224-.02-.316.11-.056.121a1.986 1.986 0 0 1-.2.024 1.751 1.751 0 0 0 .352.052l-.125.059a1.222 1.222 0 0 1 .482-.019c.067-.021.134-.039.162-.047l.114.041a.785.785 0 0 1-.183.015h.045a.906.906 0 0 1-.3.036c.038-.013.08-.024.125-.036a3.771 3.771 0 0 0-.38.023.162.162 0 0 1 .055.013c-.032 0-.061 0-.086.006s.026.006.078.008l-.222.04.089-.008-.133.086a2.564 2.564 0 0 1 .673.089c-.168 0-.269.032-.468.054.2-.045-.093-.05-.056-.095-.019.024-.112.03-.144.028l.193.051a.3.3 0 0 0-.182.057c.315-.054.216.028.317.046-.1.015-.212.02-.193-.019-.233.068.376.007.181.072-.005-.011.01-.017-.044-.013.1.009.03.068-.064.068v-.009c-.032.064.016.18.287.156l-.378.035h.91a6.473 6.473 0 0 1-.91.086c-.031.017-.065.04.017.06a2.206 2.206 0 0 1 .35-.052 2.82 2.82 0 0 0-.343.109 1.339 1.339 0 0 1 .4-.022c-.053 0-.355.044-.394.04l.361.014a1.962 1.962 0 0 0-.4.058c.067-.014 0 .047.039.06l.077-.034c-.045.07.506.008.494.072a2.153 2.153 0 0 0-.494.071 7.391 7.391 0 0 1 1.027 0l-.1.024.12.03c-.275 0-.857-.008-1.085-.022-.08.033-.123.022-.107.056a.181.181 0 0 1-.157-.012l-.056.089c.213-.029.221.036.4.014l-.227-.065c.212-.028.607-.017.576.047-.083.025-.379.032-.448.042.074 0 .146.039.094.05l-.115-.013c-.075.044.284.023.088.085-.012.017-.272.07-.142.058.241-.047.986-.136 1.171-.139a3.028 3.028 0 0 1-.342.124c-.185.045-.456.019-.615.056a.694.694 0 0 1 .153 0c-.047.019-.181.013-.149.041.213-.018-.013.066.183-.006.064.022-.042.039-.029.075a1.753 1.753 0 0 1 .542 0 1.012 1.012 0 0 0-.156.025c-.016.064-.109.108-.1.167a.754.754 0 0 1-.206.045c.039 0 .115 0 .12.022-.184.053-.03-.04-.251.011a.609.609 0 0 1 .255.046c.193-.029.033-.064-.052-.079a1.826 1.826 0 0 1 .679.034c.074.042-.167.04-.129.043-.038.1.471.028.289.125a3.883 3.883 0 0 1-.458.059c-.071-.034.1-.073.091-.1l-.079.044c-.052-.008-.1-.03-.052-.05-.15.042-.015.158-.146.243a.449.449 0 0 0 .184 0l-.028-.017c.135-.038.194.021.253-.014.1.021.255.039.184.089l-.194.026c.059-.005.113-.04.053-.045.086.009-.255.092 0 .084l.134-.043c.1.02.31.035.252.078.19-.036-.023-.006.2-.053-.272.051 0-.1-.286-.033.256-.052.1-.054.322-.113-.064 0-.12.023-.091-.01a.541.541 0 0 0-.059 0h-.007c-.009 0-.011 0 0 0a.418.418 0 0 1-.1.025c-.147 0-.149-.05-.225-.059.028-.023.073 0 .139-.019l-.112-.014c.139-.015.227-.074.315-.036v-.04c.076-.031.1-.071.04-.083.03-.021-.16-.03-.046-.025l-.092-.052h.033c.012-.064-.245-.1 0-.2-.039-.019-.084-.032-.049-.072l.121-.02c-.042-.023.118-.094-.012-.092.325-.066.057-.137.109-.189l-.16.015c.007-.033-.043-.059-.113-.093l-.141.017c-.119-.018.087-.1.07-.147.053-.006.042.011.011.025.31-.1-.248-.113-.023-.2-.053-.007-.038-.02 0-.033a.022.022 0 0 0 .012 0v-.006c.022-.009.05-.019.068-.029a.4.4 0 0 0-.068.025.1.1 0 0 0-.065-.038l.151-.025v-.006c.057-.022-.073 0-.184.019a.391.391 0 0 0-.1-.011c.245-.042-.086-.034.172-.085-.128 0-.107-.071-.372-.05.033 0 .049-.013.051 0 .029-.025.058-.045-.018-.052l.192-.032-.264-.011a.73.73 0 0 1 .332-.051c-.236-.031-.092-.038-.327-.061l.126-.011c-.007-.019-.174-.028-.073-.05.229-.07.006-.205.215-.336-.363.066.161-.066-.128-.036a.664.664 0 0 1 .213-.03c-.092-.044.128-.1-.115-.1.088-.017.128 0 .179-.017-.018 0-.08-.009-.025-.02a.264.264 0 0 1 .108 0c-.015-.056-.285-.024-.536 0 .114-.043.095-.054-.072-.052.081-.021.167-.046.2-.018.01-.02.106-.129-.092-.106.047-.013.011-.03-.013-.031.006-.045.027-.051 0-.089l-.032.017c-.244.014-.056-.03-.095-.059h.029c.161-.1-.092-.022.1-.126l-.151.025c-.325.035.182-.095.053-.121l-.083.03c-.117-.01.428-.129.464-.158a.129.129 0 0 1 .07 0c.183-.087-.2.02-.252-.019.107-.026.273-.028.289-.063.083-.028-.359-.044-.16-.116a.568.568 0 0 1-.23.029c-.032-.029.3-.136.034-.128a.334.334 0 0 1 .064-.015.638.638 0 0 0-.266-.063c.514-.1-.275-.123.2-.194l-.039-.072.052-.007c.024-.057-.094-.056-.214-.057a.348.348 0 0 1 .107-.017c.084-.088.063-.091-.184-.119l.153-.028c-.093 0 .228-.146.034-.191h.071c-.193-.051.405-.264-.166-.2l-.148-.031c-.033.078-.245.029-.334.072-.039-.022.158-.1.191-.068l-.024.01c.293-.036.091-.1.288-.134-.032-.132.115-.295.1-.424l-.226.052.006-.045c.053-.021.177-.047.17-.013.129-.042-.117-.034-.166-.025.081-.082.269-.026.274-.044l-.021-.023-.03.011c-.1-.006-.2.01-.191-.031.039-.032.135-.036.145-.046s.023-.008 0-.015v-.062l-.172.056c-.093-.01 0-.055-.2.008.309-.095.074-.229.166-.27-.137-.012-.142-.045-.135-.089-.035.018-.237.063-.22.021.422-.067.17-.1.464-.189-.194.064-.068-.095-.344 0 .028-.034.154-.032.248-.074-.177-.043.075-.181 0-.261a1.081 1.081 0 0 1-.216.039l.263-.1c-.03-.011-.319.049-.134-.022a.34.34 0 0 1-.136.027c.231-.234-.287-.309.174-.6-.1.047-.114.033-.121.014a1.327 1.327 0 0 1-.209.05l.19-.123c-.2.034-.03-.076-.226-.04l.038.015c-.235.023-.5.161-.8.224.268-.024-.371.178.018.15-.06.026-.1.011-.166.031.13-.011.159 0 .11.046h-.039c.053.084-.063.148-.129.267l.147-.04c-.014.027-.059.04-.1.061.225-.024 0-.065.252-.094-.294.092.023.153-.31.244.006.035.167-.046.172-.009l-.091.026.119-.015a.482.482 0 0 1-.2.075c.007-.007-.029-.01-.035-.014-.1.051.053.074.021.089l.049-.044c.1.074.008.208.209.258l.071-.019c.142.041-.065.067.009.127h-.019c.073 0 .112.015.108.036-.085 0-.151.066-.246.061.152.044.113.014.386.012l-.115.034c.107 0 .163-.013.2.02-.108-.013-.176.055-.314.045-.236.125.278.068-.084.174.327-.026.167-.1.235-.094.1-.038.245-.015.217.015 0 .022-.4.118-.382.174 0 0-.023 0-.021-.006-.076.039.117.024-.01.076.2-.019 0 .041.245 0l-.071-.047c.073.021.369 0 .241.078a.912.912 0 0 1-.158 0c-.072.027.051.02-.021.049-.245.041-.065-.06-.261-.06-.1.034.193.033-.079.063.344-.034-.031.068.236.063l-.146.028c.021 0 .095 0 .095.014l-.2.01c.169.008-.128.092-.034.107-.018-.066.174-.043.278-.093.213.053-.383.115-.3.2-.022-.011.083-.065.156-.056a.52.52 0 0 1-.158.081c.041.057.15-.035.247-.021-.18.049.078.017.139.035l-.151.024c-.085.089.318-.033.211.052l-.213.007.057.025-.173.022c.138.015.1.03.056.075.11-.025.28-.039.287-.008-.087.036-.146.009-.116.054-.094 0-.215.012-.083-.031-.051 0-.095.008-.141.01-.1.042-.013.063-.011.079a.045.045 0 0 1 .032-.022l.215.031a.318.318 0 0 1-.146.015c.02.013.089.012.1.028a1.03 1.03 0 0 1-.309.019l.147.041a1.286 1.286 0 0 1-.19.054c-.068.045.25.047.161.107a.144.144 0 0 1 .067.008c-.023.047-.167.108.008.134l-.214.062c.055.033.271-.082.365-.028.077.036-.184.045-.244.072.113.005.347.013.174.083-.035.008-.007-.013-.021-.022zm.168.48c-.032-.007-.133-.01-.045-.031.174-.019.093.007.045.031zm.466.705c-.049 0-.024-.015.03-.034.011.008.009.019-.031.035zm1.3 2.01h-.005c.056-.027.036-.017.008.001zm-.065.055a.445.445 0 0 0 .066-.006c-.04 0-.042-.01-.03-.023-.038.009-.066.018-.033.03zm-.713-4.872l-.038.017c-.043-.011 0-.013.041-.016z" class="cls-1" transform="translate(-773.917 -348.613)"/>
                <path id="패스_842854" d="M774.685 352.684c.029 0 .054-.01.085-.017a.238.238 0 0 0-.085.017z" class="cls-1" transform="translate(-773.837 -348.2)"/>
                <path id="패스_842855" d="M774.2 351.4h-.029z" class="cls-1" transform="translate(-773.891 -348.333)"/>
                <path id="패스_842856" d="M774.772 354.1a.23.23 0 0 1 .076-.025c-.04.002-.069.009-.076.025z" class="cls-1" transform="translate(-773.828 -348.054)"/>
                <path id="패스_842857" d="M776.271 354.8l-.042-.023c.007.014-.025.022-.046.032.032-.009.084-.019.088-.009z" class="cls-1" transform="translate(-773.681 -347.981)"/>
                <path id="패스_842858" d="M775.432 355.117c.019 0 0 .006.023.009l.072-.009c-.006-.017-.064-.023-.095 0z" class="cls-1" transform="translate(-773.759 -347.947)"/>
                <path id="패스_842859" d="M775.816 354.87c-.13.017-.083.029-.058.047v-.006c.179-.011.118-.026.058-.041z" class="cls-1" transform="translate(-773.728 -347.971)"/>
                <path id="패스_842860" d="M775.759 354.916c.008.006.014.012 0 .02.074-.007.021-.011 0-.02z" class="cls-1" transform="translate(-773.725 -347.966)"/>
                <path id="패스_842861" d="M776.089 354.65c-.033.013.164-.01.113 0 .167-.007-.202-.042-.113 0z" class="cls-1" transform="translate(-773.692 -347.996)"/>
                <path id="패스_842862" d="M775.427 354.926l.159-.024h-.129z" class="cls-1" transform="translate(-773.76 -347.968)"/>
                <path id="패스_842863" d="M775.521 354.768l-.041.036a.17.17 0 0 1 .053 0c.004-.014.034-.043-.012-.036z" class="cls-1" transform="translate(-773.754 -347.982)"/>
                <path id="패스_842864" d="M775.528 354.8c0 .011.007.02.034.024a.065.065 0 0 0-.034-.024z" class="cls-1" transform="translate(-773.749 -347.978)"/>
                <path id="패스_842865" d="M775.377 354.89l.034-.01.011-.025z" class="cls-1" transform="translate(-773.765 -347.973)"/>
                <path id="패스_842866" d="M775.524 354.45l-.05-.029c-.054.006-.088.017-.061.027a.2.2 0 0 0 .111.002z" class="cls-1" transform="translate(-773.762 -348.018)"/>
                <path id="패스_842867" d="M775.138 354.592a.688.688 0 0 1 .118-.029l-.2.02z" class="cls-1" transform="translate(-773.798 -348.003)"/>
                <path id="패스_842868" d="M775.094 354.5c-.056 0-.16-.035-.143.009.049-.001.098.028.143-.009z" class="cls-1" transform="translate(-773.809 -348.011)"/>
                <path id="패스_842869" d="M775.251 354v.009l.325-.036z" class="cls-1" transform="translate(-773.778 -348.065)"/>
                <path id="패스_842870" d="M774.51 353.651c-.075.052.194-.012.1.036.076 0 .074-.039.14-.039-.075-.014-.033-.032-.24.003z" class="cls-1" transform="translate(-773.856 -348.1)"/>
                <path id="패스_842871" d="M774.731 353.647a.277.277 0 0 1 .05.01.131.131 0 0 0-.05-.01z" class="cls-1" transform="translate(-773.832 -348.098)"/>
                <path id="패스_842872" d="M775.207 348.669l.066-.04-.1.04z" class="cls-1" transform="translate(-773.786 -348.62)"/>
                <path id="패스_842873" d="M774.986 348.674l.2-.053-.185.024c.008.006.03.015-.015.029z" class="cls-1" transform="translate(-773.805 -348.621)"/>
                <path id="패스_842874" d="M774.1 352.216h.053c.052-.012.052-.019.056-.031z" class="cls-1" transform="translate(-773.898 -348.251)"/>
                <path id="패스_842875" d="M774.191 351.875v.008l.181-.04z" class="cls-1" transform="translate(-773.888 -348.286)"/>
                <path id="패스_842876" d="M773.937 351.634c-.007.013.035.019.031.033-.038-.02.196-.067-.031-.033z" class="cls-1" transform="translate(-773.914 -348.309)"/>
            </g>
        </g>
        <g id="그룹_457011" transform="translate(189.317 232.573)">
            <path id="패스_842877" d="M884.97 535.648c-2.344-.522-17.165-7.316-17.165-7.316l-6.39 18.333s23.214 15.426 23.573 15.888c0 0 14.428-1.998-.018-26.905z" class="cls-2" transform="translate(-861.415 -528.332)"/>
            <path id="패스_842878" d="M891.4 534.716c1.372 2.448 3.94 16.184 4.563 19.13a89.792 89.792 0 0 1 2.247 16.592c.1 4.773-.523 11.43-6.185 7.027-3.744-2.916-6.513-6.757-9.205-10.613a33.207 33.207 0 0 0-4.355-5.378c-1.271-1.181-3.667-2.057-4.5-3.535-3.017-5.364 7.035-6.407 9.224-8.9 1.717-1.953-1.346-14.985-1.441-14.985 3.659-.001 8.306-1.739 9.652.662z" class="cls-3" transform="translate(-860.168 -527.8)"/>
        </g>
        <path id="패스_842881" fill="#2975bb" d="M888.821 537.976l-80.393-63.631c3.481 2.288 28.825-13.629 32.2-15.4 11.39-5.984 20.853-31.586 13.653-46.421-2.328-4.794-8.021-5.879-31.044 6.266-18.455 9.737-43.667 38.815-50.944 50.945-12.006 20.007.02 30.216 45.249 59.905l56.658 37.227z" transform="translate(-681.822 -308.156)"/>
        <path id="패스_842882" fill="#234577" d="M820.7 416.745l-21.969 18.161 8.9 47.715z" transform="translate(-678.618 -307.366)" style="mix-blend-mode:multiply;isolation:isolate" opacity="0.2"/>
        <path id="패스_842883" d="M837.989 423.023c1.021 6.793-2.427 4.744-6.524 8.385-2.366 2.1-1.528 5.054-3.464 7.12-1.7 1.813-5.545 1.439-7.043 3.5-1.136 1.567-.377 3.723-1.365 5.237-1.227 1.877-3.095 1.8-4.443 4.048-3.744 6.251-24.2 29.608-28.756 34.7 0 0-4.661 2.662 4 7.321s86.3 58.537 86.3 58.537" class="cls-6" transform="translate(-680.031 -306.713)"/>
        <path id="선_226" d="M15.093 0L0 28.86" class="cls-6" transform="translate(187.491 227.191)"/>
        <g id="그룹_457012" transform="translate(94.479 265.129)">
            <path id="패스_842884" d="M818.771 582.692c.847-2.252 3.663-15.964 3.663-15.964l-17.254-8.908s-12.545 20.814-13.048 21.106c0-.001-.053 14.566 26.639 3.766z" class="cls-2" transform="translate(-773.784 -557.82)"/>
            <path id="패스_842885" d="M819.814 589.246c-2.61 1.011-16.569 1.625-19.578 1.827a89.932 89.932 0 0 1-16.742-.1c-4.738-.578-11.247-2.13-6.088-7.113 3.411-3.3 7.6-5.5 11.8-7.623a33.362 33.362 0 0 0 5.933-3.557c1.348-1.092 2.554-3.342 4.131-3.956 5.736-2.237 5.354 7.864 7.519 10.383 1.692 1.971 15.025.768 15.04.676-.514 3.626.551 8.469-2.015 9.463z" class="cls-3" transform="translate(-775.512 -556.719)"/>
        </g>
        <path id="패스_842888" fill="#2586d2" d="M863.929 418.512c.743.723 6.686 8.347-7.91 51.237-11.5 33.781-33.22 120.335-33.22 120.335l-24.432.182s5.914-120.989 16.992-155.572c10.905-34.035 27.351-37.002 48.57-16.182z" transform="translate(-678.656 -308.546)"/>
        <path id="선_227" d="M25.049 0.936L0 0" class="cls-6" transform="translate(120.579 274.6)"/>
        <g id="그룹_457022" transform="translate(106.958 6.329)">
            <g id="그룹_457021" transform="translate(19.62)">
                <path id="패스_842889" d="M839.7 358.809l-15.1-27.849s-11.231 12.415-11.942 17l9.794 17.795s15.468 3.096 17.248-6.946z" class="cls-2" transform="translate(-803.747 -322.618)"/>
                <path id="패스_842890" fill="#eaa9a9" d="M814.772 349.234s3.4.983 5.751-2.764l-1.838 10.27z" transform="translate(-803.528 -321.005)" style="mix-blend-mode:multiply;isolation:isolate" opacity="0.4"/>
                <path id="패스_842891" d="M819.488 352.41s-3.606.824-5.782.065-7.148-.339-6.813-10.606c.249-7.635-.375-21.5 9.626-17.871 6.308 2.288 13.858 4.66 14.744 11.876a28.416 28.416 0 0 1-1.124 11.318" class="cls-2" transform="translate(-804.349 -323.404)"/>
                <path id="패스_842892" stroke="#000" stroke-miterlimit="10" d="M810.963 334.18c1.038-.3.694 1.5.322 1.922-.89 1.013-1.075-.926-.495-1.724z" transform="translate(-803.976 -322.286)"/>
                <g id="그룹_457014" transform="translate(0 9.901)">
                    <g id="그룹_457013">
                        <path id="패스_842893" d="M809.086 332.372c-1.231 1.185-2.961 3.647-4.5 4.6 1.853 1.877 2.195 2.835 5.2 3.018" class="cls-2" transform="translate(-804.587 -332.372)"/>
                    </g>
                </g>
                <path id="패스_842975" fill="none" stroke="#000" stroke-linecap="round" stroke-linejoin="round" d="M813.623 329.744a3.95 3.95 0 0 0-3.287 0" transform="translate(-803.989 -322.782)"/>
                <path id="패스_842997" fill="none" stroke="#000" stroke-linecap="round" d="M808.363 343.453a5.213 5.213 0 0 0 4.278-1.88" transform="translate(-802.826 -321.514)"/>
            </g>
            <path id="패스_842976" d="M820.919 361.968c9.509-4.731 18.5-8.285 28.045-1.816 16.9 11.443 19.888 66.727 16.717 66.524-5.165-.333-54.852-.566-54.852-.554.002-.013 7.171-46.684 10.09-64.154z" class="cls-12" transform="translate(-784.318 -319.948)"/>
            <path id="패스_842977" d="M810.054 390.722c.007 0 23.467-18.66 23.467-18.66s9.616-6.733 15.654 1.131S864.5 391.935 838.891 406c-25.3 13.9-38.031 20.109-38.474 20.247-10.84 3.384-16.472-11.839-12.132-19.493 3.893-6.868 15.515-11.986 21.769-16.032z" class="cls-12" transform="translate(-786.815 -318.622)"/>
            <path id="패스_842978" d="M842.453 357.786l-4.938-4.865-16.334 8.879s-1.036 7.039 6.228 5.419 15.044-9.433 15.044-9.433z" class="cls-12" transform="translate(-783.246 -320.334)"/>
            <path id="패스_842979" d="M819.779 359.743c-1.978 1.673-3.354 5.911-1.309 6.263 1.622.28 2.924-2.993 3.093-4.215a7.144 7.144 0 0 0-.01 1.675c.209 1.972 1.322 4.841 6.238 3.744 7.264-1.62 15.044-9.435 15.044-9.435l-3.451-4.744" class="cls-13" transform="translate(-783.628 -320.322)"/>
        </g>
        <path id="패스_842980" d="M835.757 420.75c.484-.479.574 1.486 0 1.617 1.054 2.019 1.223 1.574.806 4.016s-3.643 3.044-4 4.523c-1.414 5.795 2.99 8.311 2.265 13.982-4.645 0-4.565 3.791-3.111 7.4l-2.426 4.043-21.128 125.546" class="cls-6" transform="translate(-677.637 -306.957)"/>
        <g filter="url(#사각형_348187)" transform="matrix(1, 0, 0, 1, -12, 0)">
            <rect id="사각형_348187-2" width="70.645" height="56.241" class="cls-12" rx="4" transform="translate(12 39.86)"/>
        </g>
        <path id="패스_842983" d="M824.289 334.831c-3.237 1.2-8.344-7.546-11.376-10.079-2.5 2.557-2.2 6.2-5.495 7.871-8.66-15.56 17.684-19.8 20.274-8.8a4.552 4.552 0 0 1 4.736 3.556c.754 3.774-.826 13.419-.826 13.419" transform="translate(-677.895 -317.671)"/>
        <g id="그룹_457024" transform="translate(144.938 16.131)">
            <path id="패스_842984" d="M821.91 334.36s2.225-3.524 4.819-1.393 1.295 6.812-5.512 7.041" class="cls-2" transform="translate(-821.217 -332.282)"/>
            <path id="선_228" fill="none" stroke="#eaa9a9" stroke-linecap="round" stroke-linejoin="round" d="M1.738 0L0 1.361" transform="translate(2.004 2.802)"/>
        </g>
        <path id="선_229" d="M0 16.983L28.304 0" class="cls-13" transform="translate(133.051 88.724)"/>
        <path id="선_230" d="M13.748 0L0 9.704" class="cls-6" transform="translate(154.077 189.001)"/>
        <g id="그룹_457034" transform="translate(0 43.443)">
            <path id="사각형_348188" fill="#fff" d="M0 0H69.977V48.393H0z" opacity="0.6"/>
            <path id="사각형_348189" d="M0 0H20.649V20.648H0z" class="cls-16" transform="translate(6.716 4.636)"/>
            <path id="사각형_348190" d="M0 0H23.039V3.61H0z" class="cls-16" transform="translate(34.794 7.531)"/>
            <path id="사각형_348191" d="M0 0H28.801V3.608H0z" class="cls-16" transform="translate(34.794 13.304)"/>
            <path id="사각형_348192" d="M0 0H22.498V3.606H0z" class="cls-16" transform="translate(34.794 18.836)"/>
            <g id="그룹_457034-2" transform="translate(6.431 29.83)">
                <path id="사각형_348193" d="M0 0H29.935V1.061H0z" class="cls-17"/>
                <path id="사각형_348194" d="M0 0H29.935V1.061H0z" class="cls-17" transform="translate(0 3.18)"/>
                <path id="사각형_348195" d="M0 0H29.935V1.059H0z" class="cls-17" transform="translate(0 6.362)"/>
                <path id="사각형_348196" d="M0 0H29.935V1.059H0z" class="cls-17" transform="translate(0 9.542)"/>
            </g>
        </g>
        <g id="그룹_457026" transform="translate(32.933 53.495)">
            <g id="그룹_457025">
                <path id="패스_842985" d="M779.311 366.272a2.325 2.325 0 0 1 2.986 1.369l1.657 4.464a2.328 2.328 0 0 1-1.368 2.992l-14.92 5.541a2.323 2.323 0 0 1-2.986-1.371l-1.658-4.466a2.327 2.327 0 0 1 1.365-2.989z" class="cls-12" transform="translate(-715.28 -366.126)"/>
                <path id="패스_842986" fill="#2ab18f" d="M776.453 367.829l3.716 10.018-43.183 16.32-3.72-10.017z" transform="translate(-718.36 -365.949)"/>
                <path id="패스_842987" d="M778.971 374.032l.936 3.17-43.183 16.32-.937-3.169z" transform="translate(-718.098 -365.304)" style="mix-blend-mode:multiply;isolation:isolate" fill="#4087c1" opacity="0.2"/>
                <path id="패스_842988" fill="#fff" d="M776.4 367.669l.936 3.168-43.185 16.326-.938-3.172z" opacity="0.2" transform="translate(-718.366 -365.966)"/>
                <path id="패스_842989" fill="#ecb0b0" d="M738.48 392.284l-18.715 1.073 15.188-10.576z" transform="translate(-719.765 -364.394)"/>
                <path id="패스_842990" d="M727.269 392.259l-7.269.456 6.048-4.354z" transform="translate(-719.74 -363.813)"/>
            </g>
        </g>
        <g id="그룹_457032" transform="translate(58.658 56.057)">
            <path id="패스_842991" d="M804.13 402.392c-15.062-8.446-27.8-14.591-32.29-17.09-.058.115.057-.11 0 0-4.11-2.83-8.918-6.324-13.218-4.423-11.451 5.062-4.477 12.705 1.044 15.92.752.438 1.495.834 2.236 1.2a151.359 151.359 0 0 0 17.432 12.527c6.7 4.228 19.254 16.068 27.323 11.254 9.101-5.428 5.064-15.131-2.527-19.388z" class="cls-2" transform="translate(-742.089 -367.21)"/>
            <g id="그룹_457031">
                <g id="그룹_457030">
                    <g id="그룹_457029">
                        <g id="그룹_457028">
                            <g id="그룹_457027">
                                <path id="패스_842992" d="M762.435 368.634a3.061 3.061 0 0 0-.439-.117c-2.805-.508-3.3 1.858-1.249 3.584-.144-.12-6.014-5.034-8.107-2.823-2.12 2.236-1.2 2.742-1.2 2.742s-4.288 1.019-3.534 3.46c0 0-2.727 1.316-2.275 3.93-.514.99-4.1.93-1.808 5.226s13.621 9.835 13.621 9.835l11.08-8.6c-.872 2.782-2.155-5.973-2.185-6.786-.109-2.463-.639-9.302-3.904-10.451z" class="cls-2" transform="translate(-743.066 -368.447)"/>
                            </g>
                            <path id="패스_842993" d="M759.492 372.851c-.145.625-.614-.751-.491-1.19" class="cls-22" transform="translate(-741.41 -367.931)"/>
                            <path id="패스_842994" d="M750.321 371.433a8.4 8.4 0 0 0 1.742 1.711" class="cls-22" transform="translate(-742.311 -367.209)"/>
                            <path id="패스_842995" d="M747.5 374.907a8.42 8.42 0 0 0 1.742 1.712" class="cls-22" transform="translate(-742.604 -366.847)"/>
                            <path id="패스_842996" d="M745.175 378.486a8.35 8.35 0 0 0 1.741 1.711" class="cls-22" transform="translate(-742.846 -366.475)"/>
                        </g>
                    </g>
                </g>
            </g>
        </g>
    </g>
</svg>
