<svg xmlns="http://www.w3.org/2000/svg" id="그룹_457004" width="140.804" height="298.233" viewBox="0 0 140.804 298.233">
    <defs>
        <style>
            .cls-11,.cls-13,.cls-14,.cls-4,.cls-7{fill:none}.cls-11,.cls-13,.cls-14,.cls-7,.cls-9{stroke-linecap:round}.cls-11,.cls-7,.cls-9{stroke-linejoin:round}.cls-2{fill:#fff}.cls-3{fill:#2ab18f}.cls-4{stroke:#21836e}.cls-13,.cls-14,.cls-4,.cls-8{stroke-miterlimit:10}.cls-5{fill:#ffcbcb}.cls-7,.cls-8,.cls-9{stroke:#272525}.cls-7{stroke-width:.75px}.cls-8,.cls-9{fill:#272525;stroke-width:.25px}.cls-11,.cls-13{stroke:#eaa9a9}.cls-14{stroke:#e6e6e7}
        </style>
    </defs>
    <path id="패스_842629" d="M193.247 1144.09c25.5.144 15.125-25.247 11.239-38.843-2.612 10.747-11.371 24.226-9.914 35.532" transform="translate(-135.331 -1089.575)"/>
    <path id="패스_842628" d="M186.5 1102.683c4.985 12.969-26.913 18.526-32.4 26.646-3.812 5.641-4.637 11.582-.825 17.234 2.959 4.388 9.419 9.133 14.985 8.424 2.838-.362 4.662-2.629 7.26-3.515 4.249-1.449 8.181-.773 12.179-3.556 8.355-5.8 20.576-38.9 11.863-47.351" transform="translate(-139.747 -1090.062)"/>
    <path id="선_226" fill="none" stroke="#46130a" stroke-linecap="round" stroke-linejoin="round" stroke-width="1.5px" d="M0 0L1.612 1.496" transform="translate(49.498 8.719)"/>
    <path id="패스_842513" d="M189.089 1102.834a1.064 1.064 0 1 1-1.066-1.064 1.064 1.064 0 0 1 1.066 1.064z" class="cls-2" transform="translate(-135.985 -1089.937)"/>
    <g id="그룹_456988" transform="translate(26.696 104.998)">
        <path id="패스_842514" d="M167.487 1332.506l-2.518-144.957 34.467-1.388-8.17 146.307" class="cls-3" transform="translate(-164.969 -1186.157)"/>
        <path id="패스_842515" d="M171.91 1195.77c6.514 4.629 1.021 5.861.157 11.017-.6 3.555 5.383 4.99-.662 10.637-.623 1.776 0 2.6 1.125 3.589l2.237 109.914" class="cls-4" transform="translate(-164.325 -1185.157)"/>
        <path id="패스_842516" d="M220.788 1332.509l3.679-144.964-33.614-1.388 8.729 145.592" class="cls-3" transform="translate(-162.277 -1186.157)"/>
        <path id="선_227" d="M0 0L2.964 96.874" class="cls-4" transform="translate(39.285 48.891)"/>
        <path id="패스_842517" d="M198.76 1318.042l1.556 25.9c.4 6.745-.331 9.163 4.788 13.115 4.053 3.121 9.965 7.936 15.428 7.1 6.314-.965 2.505-2.682.994-6.1-.838-9.215-2.689-27.971-1.559-40.113" class="cls-5" transform="translate(-161.454 -1172.448)"/>
    </g>
    <path id="패스_842518" d="M218.9 1132.008s-11.31-4.241-20.387-3.573c-15.908 1.173-29.164 10.37-33.08 26.584-1.531 6.325.081 40.311-1.214 48.452l63.781-1.277s-1.272-54.855-9.1-70.186z" class="cls-2" transform="translate(-138.351 -1087.171)"/>
    <path id="패스_842519" d="M203.073 1119.759s-1.193 8.086-1.487 12.569c0 0-2.854 7.023-14.794-1.319 0 0 .637-5.919 1.569-13.492" class="cls-5" transform="translate(-136.003 -1088.299)"/>
    <path id="패스_842520" d="M202.137 1120.729a14.343 14.343 0 0 1-7.971-1.22l7.08 8.128z" transform="translate(-135.236 -1088.092)" style="isolation:isolate" fill="#eaa9a9" opacity="0.4"/>
    <path id="패스_842521" d="M196.18 1122.335c2.7.677 6.69 1.579 8.973.074 5.512-3.635 3.929-13.616 3.859-16.7-.059-2.5-.29-5.9-1.968-7.937-1.372-1.663-3.765-1.558-5.707-1.853a20.7 20.7 0 0 0-7.362-.209 18.056 18.056 0 0 0-7.356 3.656 96.62 96.62 0 0 1 1.707 20.876c0 .01 6.8 1.807 7.343 1.957.163.047.331.091.511.136z" class="cls-5" transform="translate(-136.021 -1090.591)"/>
    <path id="패스_842628-2" d="M206.427 1104.727a3.115 3.115 0 0 0-3.231.163" class="cls-7" transform="translate(-134.296 -1089.669)"/>
    <g id="그룹_457005" transform="translate(70.427 17.314)">
        <path id="패스_842629-2" d="M205.526 1107.489a.614.614 0 0 1-.288.678c-.2.066-.4-.13-.447-.436a.611.611 0 0 1 .288-.674c.203-.068.403.128.447.432z" class="cls-8" transform="translate(-204.558 -1106.702)"/>
        <path id="패스_842630" d="M204.592 1107.836a1.345 1.345 0 0 1 .081-.686.667.667 0 0 1 .38-.4c.318-.1.646.217.714.694a1.34 1.34 0 0 1-.083.69.651.651 0 0 1-.378.394.388.388 0 0 1-.126.021c-.28.004-.526-.289-.588-.713zm.554-.414a.163.163 0 0 0-.093.1.3.3 0 0 0-.022.168c.018.1.078.181.149.181l.031-.005a.169.169 0 0 0 .094-.1.337.337 0 0 0 .021-.173c-.015-.1-.072-.171-.171-.171z" class="cls-9" transform="translate(-204.579 -1106.735)"/>
    </g>
    <g id="그룹_457006" transform="translate(61.733 17.475)">
        <path id="패스_842631" d="M197.939 1107.691a.623.623 0 0 1-.374.723.5.5 0 0 1-.582-.468.619.619 0 0 1 .373-.722.505.505 0 0 1 .583.467z" class="cls-8" transform="translate(-196.676 -1106.846)"/>
        <path id="패스_842632" d="M196.722 1108.057a1.175 1.175 0 0 1 .107-.731.744.744 0 0 1 1.426.321 1 1 0 0 1-.6 1.158.567.567 0 0 1-.167.023.851.851 0 0 1-.766-.771zm.724-.441a.212.212 0 0 0-.123.1.287.287 0 0 0-.025.182.208.208 0 0 0 .189.193l.042-.007a.243.243 0 0 0 .15-.287.211.211 0 0 0-.22-.187z" class="cls-9" transform="translate(-196.704 -1106.881)"/>
    </g>
    <path id="패스_842633" d="M198.889 1105.256a3.783 3.783 0 0 0-3.505.047" class="cls-7" transform="translate(-135.109 -1089.617)"/>
    <path id="패스_842627" fill="none" stroke="#000" stroke-linecap="round" stroke-width="0.75px" d="M201.539 1106.288l1.93 3.908a1.682 1.682 0 0 1-1.568 2.061" transform="translate(-134.469 -1089.467)"/>
    <path id="패스_842609" d="M197.238 1112.939l6.673 1.308s-1.309 3.056-3.867 2.994-2.806-4.302-2.806-4.302z" class="cls-2" transform="translate(-134.916 -1088.775)"/>
    <path id="패스_842606" d="M239.1 1159.235c-.008-.007-18.179-23.056-18.179-23.056s-5.83-7.989-12.743-3.33-17.138 11.557-.559 29.74c16.377 17.967 29.273 27.446 29.587 27.677 7.708 5.643 16.28-5.016 14.887-12.314-1.249-6.552-9.106-13.787-12.993-18.717z" class="cls-2" transform="translate(-134.768 -1086.856)"/>
    <path id="패스_842607" d="M168.727 1318.771q.773 12.953 1.556 25.907c.4 6.743-.331 9.163 4.789 13.112 4.051 3.121 9.964 7.939 15.426 7.1 6.314-.967 2.505-2.684.994-6.094-.569-10.027-2.69-27.975-1.559-40.118" class="cls-5" transform="translate(-137.882 -1067.375)"/>
    <path id="패스_842608" d="M172.241 1169.374l22-18.548s7.6-5.149 3.539-11.759-10.085-16.379-27.515-1.578-26.683 26.589-26.683 26.589-6.232 9.771 3.743 16.381c-.005.006 1.225 7.229 24.916-11.085z" class="cls-2" transform="translate(-140.698 -1087.028)"/>
    <path id="패스_842611" d="M195.18 1197.967v31.272s4.585.539 5.932-4.852 1.078-26.417 1.078-26.417" class="cls-4" transform="translate(-135.13 -1079.931)"/>
    <path id="선_229" d="M0 0L23.453 0" class="cls-4" transform="translate(29.589 245.271)"/>
    <path id="선_230" d="M0 0L20.217 0" class="cls-4" transform="translate(64.633 245.271)"/>
    <path id="선_231" d="M0 5.256L7.281 0" class="cls-4" transform="translate(60.722 186.103)"/>
    <path id="선_232" d="M0 5.256L7.28 0" class="cls-4" transform="translate(28.376 187.72)"/>
    <g id="그룹_457008" transform="translate(46.751 0)">
        <g id="그룹_457007">
            <path id="선_235" d="M0 0L1.623 1.443" transform="translate(2.662 6.934)"/>
            <path id="패스_842630-2" d="M189.036 1101.1a1.048 1.048 0 1 1-1.07-1.027 1.048 1.048 0 0 1 1.07 1.027z" transform="translate(-182.738 -1090.113)"/>
            <g id="그룹_457005-2">
                <path id="패스_842634" d="M184.6 1109.612c-6.2-16.247 8.968-18.833 14.4-18.539 3.65.2 8.184 1.745 10.286 4.943 1.723 2.826 1.9 7.266.088 9.986-.97-3.95-2.646-11.9-8.2-8.188-3 2-3.49 4.575-5.341 7.079-1.706 2.3-3.2 3.559-6.007 3.964z" transform="translate(-183.134 -1091.052)"/>
            </g>
        </g>
    </g>
    <g id="그룹_456997" transform="translate(48.565 15.043)">
        <path id="패스_842610" d="M190.9 1107.005s-1.917-3.683-4.671-1.783-1.85 6.656 4.889 7.447" class="cls-5" transform="translate(-184.777 -1104.678)"/>
        <path id="선_228" d="M0 0L1.612 1.496" class="cls-11" transform="translate(3.039 2.792)"/>
    </g>
    <g id="그룹_456999" transform="translate(0 72.716)">
        <path id="패스_842612" d="M174.675 1200.707c-9.4-7.326-19.407-14.4-28.235-22-3.511-3.023-6.845-8.334-5.235-13.29 2.738-8.443 10.552-11.1 15.418-5.668 7.854 8.767 14.393 20.735 22.385 32.009z" class="cls-5" transform="translate(-140.788 -1156.916)"/>
    </g>
    <path id="패스_842613" d="M169.46 1179.974c-.862 1.39 1.224 11.2.442 12.123-3.214 3.823-8.978 7.447-11.013 12.166-1.325 3.068.233 10.833 5.417 13.469 3.085 1.57 2.62-4.822 3.005-6.55.632-2.825 1.025-3.24 3.333-4.92 1.684-1.229 3.312-2.491 4.98-3.748 4.237-3.188 5.59-8.324 2.721-12.895-.845-1.367-8.465-10.319-8.885-9.645z" class="cls-5" transform="translate(-138.951 -1081.806)"/>
    <path id="패스_842614" d="M164.651 1214.637s-.883-5.33.012-7.847a6.948 6.948 0 0 1 2.853-3.579" class="cls-11" transform="translate(-138.346 -1079.385)"/>
    <path id="패스_842615" d="M162.406 1213.816s-1.3-4.364-.527-6.728a14.3 14.3 0 0 1 3.037-4.637" class="cls-11" transform="translate(-138.619 -1079.464)"/>
    <path id="패스_842616" d="M161.012 1212.516s-1.3-4.363-.529-6.727a14.337 14.337 0 0 1 3.035-4.637" class="cls-11" transform="translate(-138.765 -1079.599)"/>
    <path id="패스_842617" d="M177.071 1197.654c-2.124 4.447-.782 10.764-4.4 9.995-2-.427-.442-4.248-1.239-6.323" class="cls-5" transform="translate(-137.601 -1079.963)"/>
    <g id="그룹_457001" transform="translate(58.63 276.024)">
        <path id="패스_842619" fill="#616161" d="M195.451 1361.307c2.8 1.083 20.645.313 23.877.531a96.73 96.73 0 0 0 17.97-.11c5.085-.62 12.068-2.282 6.532-7.632-3.664-3.542-8.162-5.905-12.666-8.184-4.434-2.246-8.045-6.3-12.935-4.306-3.422 1.394-4.1 6.28-7.445 7.959-1.662.839-15.613 1.82-16.781.15.551 3.892-1.303 10.523 1.448 11.592z" transform="translate(-193.894 -1341.069)"/>
    </g>
    <g id="그룹_457003" transform="translate(96.868 20.864)">
        <g id="그룹_457002" transform="translate(0 23.121)">
            <path id="패스_842621" d="M252.325 1132.77c-5.63 8.572-10.217 18.076-14.683 27.287-3.493 7.206-17.7 30.36-1.546 32.222 12.635 1.454 18.514-14.272 21.065-23.678 4-14.736 8.959-32.917 9.6-37.708" class="cls-5" transform="translate(-228.529 -1130.893)"/>
        </g>
        <path id="패스_842622" d="M260.94 1142.585a44.748 44.748 0 0 0 .385-6.149l3.864-4.762s1.263 2.429 2.749 1.365c0 0 .509 2.343 1.575 1.62s1.055-7.581-.34-9.487-2.471-4.613-5.216-5.977c0 0 8.462-8.454 5.116-9.2s-9.5 8.188-12.091 10.957c-2.216 2.37-4.4 9.053-7.367 14.828" class="cls-5" transform="translate(-226.336 -1109.95)"/>
        <path id="패스_842623" d="M260.222 1129.3s-.9-3.3-1.956-3.069 5.983-7.176 2.607-6.634-5.772 4.747-5.772 4.747" class="cls-13" transform="translate(-225.766 -1108.95)"/>
        <path id="패스_842624" d="M262.061 1121.386a36.517 36.517 0 0 0 .194 7.678" class="cls-13" transform="translate(-225.054 -1108.76)"/>
        <path id="패스_842625" d="M264.35 1122.722a36.456 36.456 0 0 0 .2 7.679" class="cls-13" transform="translate(-224.816 -1108.622)"/>
        <path id="패스_842626" d="M266.46 1124.762a36.53 36.53 0 0 0 .193 7.68" class="cls-13" transform="translate(-224.596 -1108.41)"/>
    </g>
    <path id="선_233" d="M11.323 0L0 10.243" class="cls-14" transform="translate(24.578 76.334)"/>
    <path id="선_234" d="M0 0L0 14.556" class="cls-14" transform="translate(88.195 78.209)"/>
    <g id="그룹_457000" transform="translate(30.325 277.099)">
        <path id="패스_842618" fill="#717171" d="M169.812 1362.284c2.805 1.085 20.645.312 23.877.528a96.562 96.562 0 0 0 17.971-.11c5.085-.617 12.07-2.283 6.534-7.63-3.664-3.546-8.162-5.908-12.667-8.19-4.435-2.24-8.046-6.293-12.937-4.306-3.422 1.4-4.095 6.282-7.443 7.961-1.656.84-15.614 1.82-16.781.148.549 3.899-1.308 10.531 1.446 11.599z" transform="translate(-168.255 -1342.044)"/>
    </g>
</svg>
