<svg xmlns="http://www.w3.org/2000/svg" width="180.758" height="192.791" viewBox="0 0 180.758 192.791">
    <defs>
        <style>
            .cls-1{fill:#ffcbcb}.cls-10,.cls-11,.cls-2,.cls-3,.cls-9{fill:none}.cls-2{stroke:#eaa9a9}.cls-10,.cls-11,.cls-2{stroke-linecap:round}.cls-10,.cls-11,.cls-2,.cls-3,.cls-9{stroke-miterlimit:10}.cls-3{stroke:#46130a}.cls-7{fill:#fff}.cls-8{fill:#f2e8e4}.cls-9{stroke:#656565}.cls-10{stroke:#e6e6e6}.cls-11{stroke:#3d3333}
        </style>
    </defs>
    <g id="그룹_457093" transform="translate(-516.332 -412.959)">
        <g id="그룹_457072">
            <g id="그룹_457071">
                <g id="그룹_457070">
                    <g id="그룹_457069">
                        <g id="그룹_457068">
                            <path id="패스_843099" d="M681.846 462.123a2.693 2.693 0 0 1 .433-.018c2.712.109 2.681 2.411.416 3.591.16-.084 6.636-3.435 8.125-.945 1.506 2.517.544 2.8.544 2.8s3.779 1.838 2.571 3.95c0 0 2.26 1.791 1.3 4.127.273 1.028 3.618 1.716.6 5.233s-14.7 6.322-14.7 6.322l-8.525-10.293c.235 2.767 3.244-5.109 3.443-5.857.606-2.271 2.52-8.516 5.793-8.91z" class="cls-1"/>
                        </g>
                        <path id="패스_843100" d="M682.1 466.62c0 .613.727-.569.7-1" class="cls-2"/>
                        <path id="패스_843101" d="M691.761 467.367a7.9 7.9 0 0 1-1.974 1.229" class="cls-2" transform="translate(-1 1)"/>
                        <path id="패스_843102" d="M693.861 471.578a8.093 8.093 0 0 1-1.976 1.23" class="cls-2" transform="translate(-1 1)"/>
                        <path id="패스_843103" d="M695.433 475.786a8.043 8.043 0 0 1-1.975 1.229" class="cls-2" transform="translate(-1 1)"/>
                    </g>
                </g>
            </g>
            <path id="패스_843104" d="M684.245 466.146s8.949-8.263 10.52-8.715 4.234 1.891-8.111 13.122" class="cls-1"/>
        </g>
        <g id="그룹_457077">
            <g id="그룹_457073">
                <path id="패스_843105" d="M577.78 593.394s2.278-4.8 2.76-4.914" class="cls-3"/>
                <path id="패스_843106" d="M581.1 595.36s2.279-4.8 2.763-4.913" class="cls-3"/>
            </g>
            <g id="그룹_457074">
                <path id="패스_843107" d="M559.409 582.281s-12.566-6.006-14.619-4.773-9.853 14.774-16.007 17.236-8.618 6.158 5.336 4.926 24.062-2 24.062-2z" class="cls-1"/>
                <path id="패스_843108" d="M654.931 584.843s-2.463 4.1 2.05 7.8 14.367 6.569 13.133 10.26h-39.4a17.281 17.281 0 0 1 .412-11.49c2.46-5.746 8.206-10.672 8.206-10.672z" class="cls-1"/>
                <path id="패스_843109" fill="#544747" d="M606.194 541.6l50.821 6.795-22.453 32.345 24.93 7.388 25.583-33.55s15.7-14.742.477-28.535-71.815-20.2-71.815-20.2z"/>
                <path id="패스_843110" d="M623.058 507.961l10.493-.315-8.684 34.693z" style="mix-blend-mode:multiply;isolation:isolate" fill="#e1a850" opacity="0.3"/>
                <path id="패스_843111" fill="#6d6161" d="M626.509 510.2l-2.309 71.978s3.284 18.057-12.722 18.057l-55.4.822 1.846-23.091s35.9.517 35.91.515c-.369.053-6.068-29.539-6.593-31.8C584 532.71 582 515.21 589.267 501.586c3.283-6.154 37.242-1.231 37.242-1.231z"/>
            </g>
            <path id="패스_843112" d="M633.027 453.852c-2.669-4-7.417-6.386-15.5-5.794-13.7 1.01-25.117 8.93-28.488 22.894-1.318 5.448-2.417 10.952-3.464 16.457-1.358 7.149-.66 11.078-1.774 18.088 0 0 46.44 2.415 46.447 2.413.993-9.3 3.693-21.255 4.228-24.892 1.413-9.584 3.351-21.976-1.449-29.166z" class="cls-7"/>
            <path id="패스_843113" d="M636.73 479.933c-.848-.617-1.649-1.2-2.378-1.76-7.161-5.441-14.536-10.734-21.46-16.468 0 0-7.786-6.444-13.516-.111S585.183 477.3 606.2 491.15c20.907 13.782 27.285 16.47 27.353 16.5 3.183 1.339 7.8 2.333 11.3.671 16.834-8.01-.244-22.682-8.123-28.388z" class="cls-7"/>
            <g id="그룹_457075">
                <path id="패스_843114" d="M673.678 472.625L643.217 487.4l1.051 20.649S678.7 491.1 682.2 488.82z" class="cls-7"/>
            </g>
            <g id="그룹_457076">
                <path id="패스_843115" d="M630.9 604.98c2.412.935 17.781.27 20.562.457a83.2 83.2 0 0 0 15.479-.1c4.379-.534 10.4-1.966 5.626-6.572-3.155-3.054-7.029-5.086-10.91-7.051-3.819-1.933-6.929-5.427-11.142-3.707-2.95 1.2-3.529 5.408-6.41 6.856-1.431.722-13.447 1.568-14.452.13.475 3.359-1.125 9.067 1.247 9.987z" class="cls-8"/>
                <path id="패스_843116" d="M653.351 593.448s2.33-4.9 2.821-5.016" class="cls-9"/>
                <path id="패스_843117" d="M656.745 595.454s2.327-4.9 2.818-5.015" class="cls-9"/>
            </g>
            <path id="선_251" d="M18.739 17.954L0 0" class="cls-10" transform="translate(623.964 467.249)"/>
            <path id="선_252" d="M26.672 21.458L0 0" class="cls-10" transform="translate(604.313 484.988)"/>
            <path id="선_253" d="M6.635 12.061L0 0" class="cls-10" transform="translate(670.663 476.547)"/>
            <path id="선_254" d="M0 6.055L9.472 0" class="cls-11" transform="translate(657.015 542.338)"/>
            <path id="선_255" d="M2.989 4.221L0 0" class="cls-11" transform="translate(593.832 578.831)"/>
            <path id="패스_843118" fill="none" stroke="#4c4040" stroke-miterlimit="10" d="M609.743 507.7c6.381 4.536 1 3.547.151 8.6-.583 3.483 5.277 4.889-.651 10.423-.613 1.74 0 2.543 1.1 3.515v52.476s.6 8.443-4.222 8.443h-47.736"/>
            <path id="패스_843119" fill="none" stroke="#3d3333" stroke-miterlimit="10" d="M643.927 583.117l20.75-31.731c7.442-8.683 7.636-13.311-11.762-17.188l-26.687-4.374"/>
        </g>
        <g id="그룹_457087">
            <path id="패스_843120" d="M608.263 453.26l13.674-25.224s10.173 11.246 10.815 15.4l-8.87 16.117s-14.011 2.803-15.619-6.293z" class="cls-1"/>
            <path id="패스_843121" d="M630.64 446.049s-3.078.889-5.209-2.505l1.664 9.3z" style="mix-blend-mode:multiply;isolation:isolate" fill="#eaa9a9" opacity="0.4"/>
            <path id="패스_843122" d="M627.11 446.753s3.264.746 5.239.059 6.472-.307 6.169-9.606c-.224-6.916.341-19.474-8.72-16.187-5.711 2.071-12.553 4.22-13.354 10.757a25.73 25.73 0 0 0 1.016 10.251" class="cls-1"/>
            <path id="패스_843123" fill="#421a14" d="M619.64 434.5s9.045-3.363 4.025-10.25l10.388-1.272c3.527-.084 6.1-2.066 5.39-5.9-.7-3.791-4.56-5.072-7.908-3.381-1.518.767-2.157 2.436-3.92 3.225-1.537.686-3.511.429-5.135.88-1.672.462-3.432.637-4.609 2.239-.036.047-1.864 2.985-.967 2.824-.026 0-3.6.653-3.484 4.122s3.2 9.556 3.2 9.556"/>
            <path id="패스_843124" fill="#46130a" stroke="#000" stroke-miterlimit="10" d="M634.5 431.254c-.942-.273-.631 1.356-.3 1.741.808.919.977-.84.453-1.563z"/>
            <g id="그룹_457079">
                <g id="그룹_457078">
                    <path id="패스_843125" d="M636.747 429.448c1.113 1.073 2.684 3.3 4.075 4.168-1.678 1.7-1.989 2.568-4.714 2.736" class="cls-1"/>
                </g>
            </g>
            <path id="패스_843207" fill="none" stroke="#000" stroke-linecap="round" stroke-linejoin="round" d="M632.1 426.787a3.566 3.566 0 0 1 2.973 0"/>
            <g id="그룹_457086">
                <path id="패스_843208" d="M623.565 431.972s-2.013-3.192-4.366-1.261-1.173 6.17 4.991 6.378" class="cls-1"/>
                <path id="선_256" fill="none" stroke="#eaa9a9" stroke-linecap="round" stroke-linejoin="round" d="M0 0L1.574 1.233" transform="translate(620.804 432.629)"/>
            </g>
            <path id="패스_843219" fill="none" stroke="#000" stroke-linecap="round" d="M631.707 437.581s1.375 1.813 3.125 1.25"/>
        </g>
        <g id="그룹_457088">
            <path id="패스_843209" d="M549.642 572.817c-2.5.688-11.977 11.616-14.324 13.121-4.3 2.755-11.131 4.55-14.833 8.068-3.2 3.036-7.177 7.772-.6 8.631 4.352.569 8.676-.109 12.962-.842 4.217-.722 8.8.231 11.156-3.66 1.653-2.724-.39-6.447 1.063-9.326.72-1.432 9.864-9.275 11.53-8.717-2.382-2.411-4.501-7.947-6.954-7.275z" class="cls-8"/>
            <path id="패스_843210" d="M538.483 595.456s1.051 5.323.724 5.71" class="cls-9"/>
            <path id="패스_843211" d="M534.562 595.872s1.052 5.32.728 5.706" class="cls-9"/>
        </g>
    </g>
</svg>
