<svg xmlns="http://www.w3.org/2000/svg" width="116.242" height="74.177" viewBox="0 0 116.242 74.177">
    <defs>
        <filter id="패스_843025" width="97.934" height="56.471" x="18.308" y="17.706" filterUnits="userSpaceOnUse">
            <feOffset dx="2" dy="3"/>
            <feGaussianBlur result="blur" stdDeviation="3"/>
            <feFlood flood-opacity=".122"/>
            <feComposite in2="blur" operator="in"/>
            <feComposite in="SourceGraphic"/>
        </filter>
        <style>
            .cls-1{fill:#fff}.cls-2{fill:#a99bff}.cls-3{fill:#e6e6e6;opacity:.5;mix-blend-mode:multiply;isolation:isolate}
        </style>
    </defs>
    <g id="그룹_457037" transform="translate(4.503 1.609)">
        <g id="그룹_457036" transform="translate(20.805 22.097)">
            <g filter="url(#패스_843025)" transform="matrix(1, 0, 0, 1, -25.31, -23.71)">
                <path id="패스_843025-2" d="M869.262 454.844a6.419 6.419 0 0 0 2.017-1.346c2.209-2.009 3.723-4.349 3.723-7.442v-19.9a9.242 9.242 0 0 0-9.242-9.242h-61.449a9.244 9.244 0 0 0-9.243 9.242v19.9a9.244 9.244 0 0 0 9.243 9.242l56.432.084c1.264-.113 7.193-.041 8.519-.538z" class="cls-1" transform="translate(-769.76 -393.2)"/>
            </g>
            <g id="그룹_457035" transform="translate(13.789 9.695)">
                <path id="패스_843026" d="M850.307 427.5a1.811 1.811 0 0 0 1.811 1.812h3.42a1.812 1.812 0 0 0 1.812-1.812 1.812 1.812 0 0 0-1.812-1.809h-3.42a1.811 1.811 0 0 0-1.811 1.809z" class="cls-2" transform="translate(-803.111 -425.693)"/>
                <path id="패스_843027" d="M817.11 427.5a1.811 1.811 0 0 0 1.811 1.812h3.42a1.811 1.811 0 0 0 1.811-1.812 1.811 1.811 0 0 0-1.811-1.809h-3.42a1.811 1.811 0 0 0-1.811 1.809z" class="cls-2" transform="translate(-806.564 -425.693)"/>
                <path id="패스_843028" d="M826.98 427.5a1.811 1.811 0 0 0 1.812 1.812h20.623a1.809 1.809 0 0 0 1.808-1.812 1.809 1.809 0 0 0-1.808-1.809h-20.623a1.812 1.812 0 0 0-1.812 1.809z" class="cls-2" transform="translate(-805.538 -425.693)"/>
                <path id="패스_843029" d="M824.064 434.976a1.81 1.81 0 0 0 1.813 1.81h32.391a1.811 1.811 0 0 0 1.812-1.81 1.811 1.811 0 0 0-1.812-1.811h-32.391a1.811 1.811 0 0 0-1.813 1.811z" class="cls-2" transform="translate(-805.841 -424.916)"/>
                <path id="패스_843030" d="M807.558 434.976a1.808 1.808 0 0 0 1.81 1.81h12.791a1.81 1.81 0 0 0 1.812-1.81 1.81 1.81 0 0 0-1.812-1.811h-12.792a1.809 1.809 0 0 0-1.81 1.811z" class="cls-2" transform="translate(-807.558 -424.916)"/>
                <path id="패스_843031" d="M817.775 442.445a1.811 1.811 0 0 0 1.814 1.811h39.333a1.81 1.81 0 0 0 1.812-1.811 1.812 1.812 0 0 0-1.812-1.809h-39.333a1.812 1.812 0 0 0-1.814 1.809z" class="cls-2" transform="translate(-806.495 -424.139)"/>
            </g>
        </g>
        <circle id="타원_67" cx="19.648" cy="19.648" r="19.648" class="cls-3" transform="translate(1.497 4.391)"/>
        <path id="패스_843032" fill="#ffc41e" d="M815.521 418.054a19.649 19.649 0 1 1-19.648-19.648 19.649 19.649 0 0 1 19.648 19.648z" transform="translate(-776.223 -396.739)"/>
        <path id="패스_843033" d="M793.559 430.022l-11.211-14.016 4.637-3.709 6.692 8.364 18.3-21.766 4.542 3.825z" class="cls-3" transform="translate(-775.586 -396.688)"/>
        <path id="패스_843034" d="M792.059 428.022l-11.211-14.016 4.637-3.709 6.692 8.364 18.3-21.766 4.542 3.825z" class="cls-1" transform="translate(-775.742 -396.896)"/>
    </g>
</svg>
