<svg xmlns="http://www.w3.org/2000/svg" width="54" height="54" viewBox="0 0 54 54">
    <defs>
        <filter id="패스_843220" width="54" height="54" x="0" y="0" filterUnits="userSpaceOnUse">
            <feOffset dx="3" dy="3"/>
            <feGaussianBlur result="blur" stdDeviation="3"/>
            <feFlood flood-opacity=".161"/>
            <feComposite in2="blur" operator="in"/>
            <feComposite in="SourceGraphic"/>
        </filter>
        <style>
            .cls-3{fill:none;stroke:#fff;stroke-linecap:round;stroke-linejoin:round}
        </style>
    </defs>
    <g id="그룹_457092" transform="translate(-1227 -574)">
        <g filter="url(#패스_843220)" transform="matrix(1, 0, 0, 1, 1227, 574)">
            <path id="패스_843220-2" fill="#7b68ee" d="M18 0A18 18 0 1 1 0 18 18 18 0 0 1 18 0z" transform="translate(6 6)"/>
        </g>
        <g id="그룹_457091" transform="translate(1569.068 258.847)">
            <rect id="사각형_348204" width="7.333" height="12.952" fill="#fff" rx="3.667" transform="translate(-321.735 329.654)"/>
            <path id="패스_843223" d="M-312.233 359.647a5.836 5.836 0 0 1-5.836 5.836 5.836 5.836 0 0 1-5.835-5.836" class="cls-3" transform="translate(0 -20.275)"/>
            <path id="선_257" d="M0 0L0 3.445" class="cls-3" transform="translate(-318.068 345.208)"/>
            <path id="선_258" d="M0 0L7.333 0" class="cls-3" transform="translate(-321.735 348.653)"/>
        </g>
    </g>
</svg>
