<svg xmlns="http://www.w3.org/2000/svg" width="86" height="20" viewBox="0 0 86 20">
    <g>
        <text fill="#656565" font-family="AppleSDGothicNeo-Regular, Apple SD Gothic Neo" font-size="16px" transform="translate(-999 -221) translate(1025 236)">
            <tspan x="0" y="0">전체</tspan><tspan y="0" font-family="Helvetica"> </tspan><tspan y="0">폴더</tspan>
        </text>
        <g>
            <path fill="none" d="M0 0H18V18H0z" transform="translate(-999 -221) translate(-429 145) translate(1428 76)"/>
            <g transform="translate(-999 -221) translate(-429 145) translate(-1096.378 -1000.637)">
                <path fill="#a2a2a2" d="M2541.433 1081.177h-9.159l-.611-1.247a.433.433 0 0 0-.409-.294h-4.819a.431.431 0 0 0-.409.294l-.633 1.291a.114.114 0 0 0-.01.019l-.005.011a.1.1 0 0 0 0 .017v11.152a.091.091 0 0 0 .091.091h15.964a.091.091 0 0 0 .091-.091v-11.152a.091.091 0 0 0-.091-.091z"/>
                <rect width="16.146" height="10.577" fill="#c5c5c5" rx=".525" transform="translate(2525.378 1081.935)"/>
            </g>
        </g>
    </g>
</svg>
