<svg xmlns="http://www.w3.org/2000/svg" width="50" height="50" viewBox="0 0 50 50">
    <defs>
        <clipPath id="clip-path">
            <circle id="타원_101" cx="25" cy="25" r="25" fill="#fff" stroke="#707070" transform="translate(1312 63)"/>
        </clipPath>
        <style>
            .cls-3{fill:#d0d1d3}.cls-4{fill:#ff6767}.cls-5{fill:#ffcbcb}.cls-6{fill:#eaa9a9}.cls-7{fill:#21122d}.cls-8{fill:#312e32}
        </style>
    </defs>
    <g id="마스크_그룹_2733" clip-path="url(#clip-path)" transform="translate(-1312 -63)">
        <g id="그룹_457299" transform="translate(1782.871 -182.113)">
            <g id="그룹_457244" transform="translate(-496.158 228.643)">
                <circle id="타원_102" cx="48.078" cy="48.078" r="48.078" class="cls-3" transform="translate(0 96.157) rotate(-90)"/>
            </g>
            <g id="그룹_457260" transform="translate(-466.099 250.194)">
                <g id="그룹_457259" transform="translate(0 0)">
                    <g id="그룹_457245" transform="translate(0 26.094)">
                        <path id="패스_843710" d="M-446.106 355.842c-.188-6.564 1.518-25.747 1.518-25.757-.134-4.674-.831-11.754 1.383-16.252 2.461-5 9.079-7.607 14.1-7.607 8.323 0 20.5.149 22.083 10.935.575 3.929 1.487 32.492 1.26 37.576z" class="cls-4" transform="translate(446.121 -306.225)"/>
                    </g>
                    <g id="그룹_457258" transform="translate(6.731)">
                        <g id="그룹_457248" transform="translate(0 13.302)">
                            <g id="그룹_457246">
                                <path id="패스_843711" d="M-431.617 287.648s-1.538-2.316-3.237-.854-.753 4.568 3.792 4.612" class="cls-5" transform="translate(435.642 -286.31)"/>
                            </g>
                            <g id="그룹_457247" transform="translate(1.684 1.548)">
                                <path id="패스_843712" d="M-431.519 290.243a.317.317 0 0 1-.191-.064l-1.181-.88a.322.322 0 0 1-.065-.45.32.32 0 0 1 .449-.066l1.181.88a.322.322 0 0 1 .065.45.319.319 0 0 1-.258.13z" class="cls-6" transform="translate(433.021 -288.721)"/>
                            </g>
                        </g>
                        <g id="그룹_457254" transform="translate(1.359)">
                            <g id="그룹_457253" transform="translate(13.397 0.526) rotate(2)">
                                <path id="패스_843717" d="M-412.513 269.047c3.91-9.43 11.791 3.328 15.753 4.849 2.429.933 4.527.02 5.048 2.94.3 1.655-4.091 7.352-4.85 5.413 1.152 2.943-1.9 4.544-4.463 4.7-4.839.3-7.214-3.053-8.031-7.184" class="cls-7" transform="translate(412.513 -265.603)"/>
                            </g>
                            <g id="그룹_457249" transform="translate(4.883 16.229)">
                                <path id="패스_843713" d="M-425.077 302.288c.506 4.693 7.711 4.377 9.933 1.884 2.187-2.452 1.6-5.25 1.275-8.229a5.689 5.689 0 0 0-6.264-5.043l-.714.077a5.688 5.688 0 0 0-5.046 6.265z" class="cls-5" transform="translate(425.926 -290.867)"/>
                            </g>
                            <g id="그룹_457250" transform="translate(4.863 23.014)">
                                <path id="패스_843714" d="M-425.956 301.43s5.394 2.469 7.457.838l-6.495 4.261z" class="cls-6" transform="translate(425.956 -301.43)"/>
                            </g>
                            <g id="그룹_457251" transform="translate(0.662 3.204)">
                                <path id="패스_843715" d="M-430.842 287.461c.069.141.143.279.222.41 2.079 3.487 7.518 5.82 10.976 3.332 5.308-3.817 4.418-9.027 4.2-14.612-.406-3.76-4.315-6.422-8.737-5.946l-1.012.109c-4.421.477-7.675 3.909-7.27 7.67.475 2.668.403 6.565 1.621 9.037z" class="cls-5" transform="translate(432.497 -270.591)"/>
                            </g>
                            <g id="그룹_457252" transform="translate(0 0.527)">
                                <path id="패스_843716" d="M-413.743 280.959c2.232-3.859.245-7.64-3.15-10.667a9.012 9.012 0 0 0-7.295-2.109c-4.505.782-8.192 2.186-9.069 7.34-.56 3.291-.532 5.7 2.9 5.294 2.546-.3 6.567-2.494 7.128-5.279.764 2 3.84 2.574 4.393.633.224 1.562 2.184 4.788 3.974 4.788z" class="cls-7" transform="translate(433.527 -268.067)"/>
                            </g>
                        </g>
                        <g id="그룹_457257" transform="translate(18.077 11.545)">
                            <g id="그룹_457255">
                                <path id="패스_843718" d="M-407.5 285.355s1.01-2.591 2.982-1.522 1.711 4.3-2.722 5.312" class="cls-5" transform="translate(407.5 -283.575)"/>
                            </g>
                            <g id="그룹_457256" transform="translate(0.802 1.549)">
                                <path id="패스_843719" d="M-405.93 287.74a.32.32 0 0 1-.211-.078.321.321 0 0 1-.031-.454l.967-1.111a.321.321 0 0 1 .453-.031.32.32 0 0 1 .031.453l-.966 1.111a.321.321 0 0 1-.243.11z" class="cls-6" transform="translate(406.251 -285.986)"/>
                            </g>
                        </g>
                    </g>
                </g>
            </g>
            <g id="그룹_457261" transform="translate(-478.201 278.84)">
                <path id="패스_843720" d="M-444.924 310.2c-7 3.316-17.922 16.787-19.894 21.737-1.069 2.682 4.182 3.62 5.127 6.525 1.757 5.405 8.544 5.094 13.159 5.536-1.123-3.352 1.845-9.1 2.354-12.573" class="cls-4" transform="translate(464.96 -310.199)"/>
            </g>
            <g id="그룹_457262" transform="translate(-434.585 282.945)">
                <path id="패스_843721" d="M-390.918 316.589a63.952 63.952 0 0 1 8.381 14.782c1.1 2.77 2.472 5.824 1.5 8.823-1.815 5.583-8.823 5.261-13.59 5.719 1.16-3.463-1.905-9.4-2.431-12.986" class="cls-4" transform="translate(397.06 -316.589)"/>
            </g>
            <g id="그룹_457270" transform="translate(-451.779 263.609)">
                <g id="그룹_457268" transform="translate(0 0)">
                    <g id="그룹_457267">
                        <g id="그룹_457266">
                            <g id="그룹_457263" transform="translate(0.25 0.441)">
                                <path id="패스_843722" d="M-423.355 289.9c.478-.39.642.743.53 1.071-.267.781-.733-.331-.584-.921z" class="cls-8" transform="translate(423.438 -289.819)"/>
                            </g>
                            <g id="그룹_457264">
                                <path id="패스_843723" d="M-423.633 291a1.959 1.959 0 0 1-.089-1.484l.116-.232.072-.044a.609.609 0 0 1 .4-.1.544.544 0 0 1 .414.3 1.952 1.952 0 0 1 .032 1.405c-.191.385-.418.441-.577.423a.51.51 0 0 1-.368-.268z" class="cls-8" transform="translate(423.827 -289.134)"/>
                            </g>
                            <g id="그룹_457265" transform="translate(5.944 0.106)">
                                <path id="패스_843724" d="M-414.574 290.315a1.77 1.77 0 0 1 .105-.633l.116-.233.073-.044a.607.607 0 0 1 .4-.1.542.542 0 0 1 .414.3 1.952 1.952 0 0 1 .032 1.4c-.192.385-.419.441-.577.424a.511.511 0 0 1-.371-.27 1.807 1.807 0 0 1-.193-.85" class="cls-8" transform="translate(414.574 -289.299)"/>
                            </g>
                        </g>
                    </g>
                </g>
                <g id="그룹_457269" transform="translate(2.507 2.248)">
                    <path id="패스_843725" d="M-418.845 293.487a.3.3 0 0 1-.059-.005 1.264 1.264 0 0 1-.861-.8 1.391 1.391 0 0 1-.026-1.231 11.056 11.056 0 0 1 .978-1.361.321.321 0 0 1 .453-.025.321.321 0 0 1 .025.454 10.454 10.454 0 0 0-.91 1.269.806.806 0 0 0 .065.633.7.7 0 0 0 .391.425.321.321 0 0 1 .258.374.32.32 0 0 1-.314.267z" class="cls-8" transform="translate(419.923 -289.987)"/>
                </g>
            </g>
            <g id="그룹_457271" transform="translate(-450.289 269.455)">
                <path id="패스_843726" d="M-419.561 296.931a2.267 2.267 0 0 1-1.88-.826.321.321 0 0 1 .06-.45.321.321 0 0 1 .45.06c.715.933 2.4.592 3.348-.014a.321.321 0 0 1 .444.1.322.322 0 0 1-.1.444 4.556 4.556 0 0 1-2.322.686z" class="cls-8" transform="translate(421.507 -295.588)"/>
            </g>
            <g id="그룹_457282" transform="translate(-462.577 301.035)">
                <path id="패스_843731" d="M-438.368 350.61c-1.513 1.769-3.28 4.512-1.565 6.167.652-.671 1.059-.736 1.078-1.85 1.768.174 3.106 1.816 4.786 2.336a11.426 11.426 0 0 0 5.936.039c2.393-.646 3.125.15 5.686.349 6.013.466 17.654 2.862 23.2.014 6.331-3.254 3.816-11.444-2.3-12.587-7.435-1.391-14.865 2.081-22.2 2.717a55.786 55.786 0 0 1-6.668.516c-3.229-.114-4.609-1.149-7 1.261-.272.278-.605.628-.953 1.038z" class="cls-5" transform="translate(440.637 -344.752)"/>
            </g>
            <g id="그룹_457283" transform="translate(-484.428 298.792)">
                <path id="패스_843732" fill="#7fd3cc" d="M-474.654 341.259c6.677 1.032 7.318.476 14.262 3.94 4.449-2.815 14.261-3.941 17.094-3.578 1.857 7.519 4.591 15.775 6.736 23.281-5.253 0-12.348-.162-18.459 2.089-3.457-2.251-7.246-4.412-13.631-4.421-2.405-8.456-6.002-21.311-6.002-21.311z" transform="translate(474.654 -341.259)"/>
            </g>
            <g id="그룹_457293" transform="translate(-486.63 304.004)">
                <g id="그룹_457284" transform="translate(0 0.099)">
                    <path id="패스_843733" d="M-477.3 350.713s2.813-1.74 4.507-1 2.1 2.4-2.819 3.67c-2.226.572-3.321-1.703-1.688-2.67z" class="cls-5" transform="translate(478.082 -349.528)"/>
                </g>
                <g id="그룹_457285" transform="translate(1.009 2.669)">
                    <path id="패스_843734" d="M-475.727 354.716s2.816-1.74 4.508-1.005 2.1 2.4-2.819 3.671c-2.231.574-3.323-1.704-1.689-2.666z" class="cls-5" transform="translate(476.511 -353.53)"/>
                </g>
                <g id="그룹_457286" transform="translate(2.021 5.237)">
                    <path id="패스_843735" d="M-474.155 358.716s2.819-1.743 4.507-1.008 2.1 2.406-2.816 3.668c-2.228.581-3.319-1.697-1.691-2.66z" class="cls-5" transform="translate(474.935 -357.527)"/>
                </g>
                <g id="그룹_457287" transform="translate(3.031 7.81)">
                    <path id="패스_843736" d="M-472.58 362.714s2.81-1.733 4.505-1 2.1 2.4-2.819 3.672c-2.226.57-3.321-1.705-1.686-2.672z" class="cls-5" transform="translate(473.364 -361.532)"/>
                </g>
                <g id="그룹_457288" transform="translate(1.068 2.299)">
                    <path id="패스_843737" d="M-476.1 355.07a.321.321 0 0 1-.319-.284.322.322 0 0 1 .282-.357c3.306-.388 4.252-1.364 4.261-1.374a.323.323 0 0 1 .452-.02.319.319 0 0 1 .026.449c-.042.048-1.066 1.161-4.665 1.583z" class="cls-6" transform="translate(476.42 -352.953)"/>
                </g>
                <g id="그룹_457289" transform="translate(2.03 4.887)">
                    <path id="패스_843738" d="M-474.6 359.1a.321.321 0 0 1-.319-.284.321.321 0 0 1 .281-.357c3.307-.387 4.251-1.36 4.26-1.37a.323.323 0 0 1 .452-.021.32.32 0 0 1 .026.45c-.042.047-1.064 1.158-4.664 1.579a.234.234 0 0 1-.036.003z" class="cls-6" transform="translate(474.922 -356.982)"/>
                </g>
                <g id="그룹_457290" transform="translate(3.06 7.343)">
                    <path id="패스_843739" d="M-473 362.92a.321.321 0 0 1-.319-.284.321.321 0 0 1 .282-.357c3.3-.385 4.247-1.361 4.256-1.371a.322.322 0 0 1 .452-.02.319.319 0 0 1 .026.449c-.042.047-1.064 1.16-4.66 1.58a.255.255 0 0 1-.037.003z" class="cls-6" transform="translate(473.319 -360.806)"/>
                </g>
                <g id="그룹_457291" transform="translate(5.022 9.844)">
                    <path id="패스_843740" d="M-469.944 366.672a.321.321 0 0 1-.319-.285.321.321 0 0 1 .282-.356c3.054-.351 3.374-1.068 3.377-1.075a.3.3 0 0 1 .36-.254.336.336 0 0 1 .267.382c-.04.27-.44 1.183-3.931 1.585z" class="cls-6" transform="translate(470.264 -364.699)"/>
                </g>
                <g id="그룹_457292" transform="translate(1.044 0)">
                    <path id="패스_843741" d="M-476.137 350.79a.313.313 0 0 1-.169-.049.321.321 0 0 1-.1-.442 2.3 2.3 0 0 1 1.6-.924.323.323 0 0 1 .351.286.321.321 0 0 1-.285.353 1.667 1.667 0 0 0-1.118.624.32.32 0 0 1-.279.152z" class="cls-6" transform="translate(476.458 -349.374)"/>
                </g>
            </g>
            <g id="그룹_457294" transform="translate(-471.38 304.676)">
                <path id="패스_843742" fill="#2b2626" d="M-449.6 367.273a.321.321 0 0 1-.31-.237l-4.421-16.21a.322.322 0 0 1 .225-.394.321.321 0 0 1 .394.225l4.421 16.21a.321.321 0 0 1-.225.394.319.319 0 0 1-.084.012z" transform="translate(454.341 -350.42)"/>
            </g>
            <g id="그룹_457295" transform="translate(-431.959 292.61)">
                <path id="패스_843743" d="M-391.915 340.391a.321.321 0 0 1-.319-.292l-.737-8.112a.321.321 0 0 1 .291-.349.318.318 0 0 1 .349.291l.737 8.112a.322.322 0 0 1-.291.35z" class="cls-3" transform="translate(392.972 -331.636)"/>
            </g>
            <g id="그룹_457296" transform="translate(-464.143 293.582)">
                <path id="패스_843744" d="M-441.517 339.728a.322.322 0 0 1-.314-.256l-1.237-5.936a.32.32 0 0 1 .249-.38.319.319 0 0 1 .38.249l1.236 5.936a.321.321 0 0 1-.249.38.331.331 0 0 1-.065.007z" class="cls-3" transform="translate(443.075 -333.149)"/>
            </g>
        </g>
    </g>
</svg>
