<svg xmlns="http://www.w3.org/2000/svg" width="101" height="19" viewBox="0 0 101 19">
    <defs>
        <style>
            .cls-1,.cls-4{fill:none}.cls-4{stroke:#000;stroke-linecap:round;stroke-linejoin:round}
        </style>
    </defs>
    <g id="그룹_457494" transform="translate(-1336 -222)">
        <g id="그룹_457302" transform="translate(-3 144)">
            <path id="사각형_348274" d="M0 0H12V12H0z" class="cls-1" transform="translate(1428 81)"/>
            <path id="패스_843747" fill="none" stroke="#656565" d="M-10922-21300l4.874 4.666 4.876-4.666" transform="translate(12350.5 21384.5)"/>
        </g>
        <text id="녹음하기" font-family="AppleSDGothicNeo-Regular, Apple SD Gothic Neo" font-size="16px" transform="translate(1362 236)">
            <tspan x="0" y="0">녹음하기</tspan>
        </text>
        <g id="그룹_457493" transform="translate(-92 146)">
            <path id="사각형_348274-2" d="M0 0H18V18H0z" class="cls-1" transform="translate(1428 76)"/>
            <g id="그룹_457453" transform="translate(1432.154 77.112)">
                <rect id="사각형_348204" width="6.09" height="10.755" class="cls-4" rx="3.045" transform="translate(1.801 0)"/>
                <path id="패스_843223" d="M-314.212 359.647a4.846 4.846 0 0 1-4.846 4.846 4.846 4.846 0 0 1-4.846-4.846" class="cls-4" transform="translate(323.904 -351.577)"/>
                <path id="선_257" d="M0 0L0 2.861" class="cls-4" transform="translate(4.846 12.917)"/>
                <path id="선_258" d="M0 0L6.09 0" class="cls-4" transform="translate(1.801 15.777)"/>
            </g>
        </g>
    </g>
</svg>
