<svg xmlns="http://www.w3.org/2000/svg" width="18" height="18" viewBox="0 0 18 18">
    <defs>
        <style>
            .cls-1{fill:none}
        </style>
    </defs>
    <g id="그룹_457497" transform="translate(-1428 -76)">
        <path id="사각형_348274" d="M0 0H18V18H0z" class="cls-1" transform="translate(1428 76)"/>
        <g id="그룹_457499" transform="translate(1428 76)">
            <path id="패스_843950" d="M0 0h18v18H0z" class="cls-1"/>
            <path id="패스_843951" fill="#a2a2a2" d="M4.683 2h9.555a.683.683 0 0 1 .683.683v13.065a.341.341 0 0 1-.523.289L9.46 12.94l-4.937 3.1A.341.341 0 0 1 4 15.748V2.683A.683.683 0 0 1 4.683 2zm8.873 1.365H5.365V13.9l4.1-2.567 4.1 2.567z" transform="translate(-0.46 0.197)"/>
        </g>
    </g>
</svg>
