<svg width="24" height="24" viewBox="0 0 24 24" fill="none" xmlns="http://www.w3.org/2000/svg">
<path d="M8.48682 2.40601H15.5118V5.20701H8.48682V2.40601Z" stroke="#A2A2A2" stroke-width="1.5" stroke-linecap="round" stroke-linejoin="round"/>
<path d="M6.11377 8.01898H17.8868V19.596C17.8868 20.1264 17.6761 20.6351 17.301 21.0102C16.9259 21.3853 16.4172 21.596 15.8868 21.596H8.11377C7.58334 21.596 7.07463 21.3853 6.69956 21.0102C6.32448 20.6351 6.11377 20.1264 6.11377 19.596V8.01898Z" stroke="#A2A2A2" stroke-width="1.5" stroke-linecap="round" stroke-linejoin="round"/>
<path d="M4.52686 5.20697H19.4729Z" fill="white"/>
<path d="M4.52686 5.20697H19.4729" stroke="#A2A2A2" stroke-width="1.5" stroke-linecap="round" stroke-linejoin="round"/>
<path d="M14.854 11.889V17.724Z" fill="white"/>
<path d="M14.854 11.889V17.724" stroke="#A2A2A2" stroke-width="1.5" stroke-linecap="round" stroke-linejoin="round"/>
<path d="M12 11.889V17.724Z" fill="white"/>
<path d="M12 11.889V17.724" stroke="#A2A2A2" stroke-width="1.5" stroke-linecap="round" stroke-linejoin="round"/>
<path d="M9.14697 11.889V17.724Z" fill="white"/>
<path d="M9.14697 11.889V17.724" stroke="#A2A2A2" stroke-width="1.5" stroke-linecap="round" stroke-linejoin="round"/>
</svg>
