<svg width="24" height="24" viewBox="0 0 24 24" fill="none" xmlns="http://www.w3.org/2000/svg">
<path d="M11.5819 18.027L7.50082 20.312C7.35818 20.3916 7.1961 20.4287 7.03304 20.419C6.86999 20.4093 6.71306 20.3531 6.58089 20.2571C6.44873 20.1611 6.34663 20.0293 6.28695 19.8773C6.22727 19.7252 6.21239 19.5593 6.24398 19.399L7.15511 14.811C7.18425 14.6667 7.17588 14.5174 7.1307 14.3773C7.08552 14.2372 7.00476 14.1111 6.89681 14.011L3.46175 10.836C3.34185 10.7249 3.25638 10.5819 3.21517 10.4238C3.17397 10.2656 3.17885 10.099 3.22933 9.94353C3.27981 9.7881 3.37407 9.65036 3.50033 9.5466C3.62659 9.44284 3.77995 9.3774 3.94222 9.35799L8.58675 8.80699C8.73202 8.78981 8.87074 8.73565 8.9891 8.64969C9.10745 8.56372 9.20176 8.44883 9.26302 8.31599L11.222 4.06799C11.2906 3.91965 11.4002 3.79403 11.5379 3.70599C11.6756 3.61795 11.8354 3.57117 11.9989 3.57117C12.1623 3.57117 12.3226 3.61795 12.4603 3.70599C12.598 3.79403 12.7076 3.91965 12.7762 4.06799L14.7352 8.31599C14.7965 8.44883 14.8908 8.56372 15.0091 8.64969C15.1275 8.73565 15.2657 8.78981 15.411 8.80699L20.056 9.35799C20.2183 9.3774 20.3716 9.44284 20.4979 9.5466C20.6241 9.65036 20.7179 9.7881 20.7684 9.94353C20.8189 10.099 20.8238 10.2656 20.7826 10.4238C20.7414 10.5819 20.6559 10.7249 20.536 10.836L17.1009 14.011C16.9928 14.1109 16.9122 14.2371 16.867 14.3772C16.8218 14.5173 16.8138 14.6667 16.8431 14.811L17.7537 19.399C17.7853 19.5593 17.7705 19.7252 17.7108 19.8773C17.6511 20.0293 17.5495 20.1611 17.4173 20.2571C17.2852 20.3531 17.1282 20.4093 16.9652 20.419C16.8021 20.4287 16.6395 20.3916 16.4969 20.312L12.4159 18.027C12.2884 17.9558 12.1449 17.9184 11.9989 17.9184C11.8529 17.9184 11.7093 17.9558 11.5819 18.027V18.027Z" stroke="#A2A2A2" stroke-width="1.5" stroke-linejoin="round"/>
</svg>
