<svg width="24" height="24" viewBox="0 0 24 24" fill="none" xmlns="http://www.w3.org/2000/svg">
<path d="M10.8858 13.083C10.1409 11.5695 9.87645 9.86441 10.1277 8.19635C10.379 6.52829 11.1341 4.97691 12.2918 3.75C10.9648 3.88589 9.69046 4.34079 8.57738 5.07587C7.46431 5.81094 6.54564 6.80434 5.89965 7.97137C5.25366 9.13841 4.89955 10.4444 4.86761 11.778C4.83566 13.1115 5.12681 14.4329 5.71618 15.6295C6.30554 16.8261 7.17565 17.8624 8.25225 18.65C9.32885 19.4375 10.58 19.9529 11.8989 20.1522C13.2178 20.3514 14.5654 20.2287 15.8266 19.7944C17.0878 19.3601 18.2253 18.6271 19.1418 17.658C17.4634 17.8279 15.7731 17.4807 14.2975 16.663C12.822 15.8453 11.6315 14.5962 10.8858 13.083Z" stroke="#A2A2A2" stroke-width="1.5" stroke-linejoin="round"/>
</svg>
