<svg width="24" height="24" viewBox="0 0 24 24" fill="none" xmlns="http://www.w3.org/2000/svg">
<path d="M11.5819 18.0271L7.50082 20.3121C7.35818 20.3917 7.1961 20.4288 7.03304 20.4191C6.86999 20.4094 6.71306 20.3532 6.58089 20.2572C6.44873 20.1612 6.34663 20.0294 6.28695 19.8774C6.22727 19.7253 6.21239 19.5594 6.24398 19.3991L7.15511 14.8111C7.18425 14.6668 7.17588 14.5175 7.1307 14.3774C7.08552 14.2373 7.00476 14.1112 6.89681 14.0111L3.46175 10.8361C3.34185 10.7251 3.25638 10.582 3.21517 10.4239C3.17397 10.2657 3.17885 10.0991 3.22933 9.94366C3.27981 9.78822 3.37407 9.65048 3.50033 9.54672C3.62659 9.44296 3.77995 9.37752 3.94222 9.35812L8.58675 8.80711C8.73202 8.78994 8.87074 8.73578 8.9891 8.64981C9.10745 8.56385 9.20176 8.44895 9.26302 8.31612L11.222 4.06812C11.2906 3.91977 11.4002 3.79416 11.5379 3.70612C11.6756 3.61808 11.8354 3.57129 11.9989 3.57129C12.1623 3.57129 12.3226 3.61808 12.4603 3.70612C12.598 3.79416 12.7076 3.91977 12.7762 4.06812L14.7352 8.31612C14.7965 8.44895 14.8908 8.56385 15.0091 8.64981C15.1275 8.73578 15.2657 8.78994 15.411 8.80711L20.056 9.35812C20.2183 9.37752 20.3716 9.44296 20.4979 9.54672C20.6241 9.65048 20.7179 9.78822 20.7684 9.94366C20.8189 10.0991 20.8238 10.2657 20.7826 10.4239C20.7414 10.582 20.6559 10.7251 20.536 10.8361L17.1009 14.0111C16.9928 14.1111 16.9122 14.2372 16.867 14.3773C16.8218 14.5174 16.8138 14.6668 16.8431 14.8111L17.7537 19.3991C17.7853 19.5594 17.7705 19.7253 17.7108 19.8774C17.6511 20.0294 17.5495 20.1612 17.4173 20.2572C17.2852 20.3532 17.1282 20.4094 16.9652 20.4191C16.8021 20.4288 16.6395 20.3917 16.4969 20.3121L12.4159 18.0271C12.2884 17.9559 12.1449 17.9185 11.9989 17.9185C11.8529 17.9185 11.7093 17.9559 11.5819 18.0271V18.0271Z" fill="#A2A2A2" stroke="#A2A2A2" stroke-width="1.5" stroke-linejoin="round"/>
</svg>
