<svg width="47" height="59" viewBox="0 0 47 59" fill="none" xmlns="http://www.w3.org/2000/svg">
<path d="M46.52 58.64H9.134C2.707 58.181 0.366 53.719 0.0139999 51.424L0 51.224V7.32397H2.6V51.104C2.732 51.726 3.778 55.646 9.228 56.041H43.92V12.41H46.52V58.64Z" fill="black"/>
<path d="M45.2197 13.709H7.23466C6.30557 13.7566 5.3765 13.6148 4.50396 13.2921C3.63142 12.9693 2.83365 12.4725 2.15919 11.8317C1.48472 11.1909 0.947653 10.4196 0.580658 9.56477C0.213663 8.7099 0.0244141 7.78932 0.0244141 6.85901C0.0244141 5.92869 0.213663 5.00809 0.580658 4.15323C0.947653 3.29836 1.48472 2.52709 2.15919 1.88632C2.83365 1.24555 3.63142 0.748697 4.50396 0.425962C5.3765 0.103227 6.30557 -0.0386423 7.23466 0.00900005H45.2197C45.4846 0.00972341 45.743 0.0913742 45.9602 0.243009C46.1774 0.394643 46.3432 0.609021 46.4352 0.85745C46.5272 1.10588 46.5411 1.37649 46.4751 1.63305C46.409 1.88961 46.2662 2.11987 46.0657 2.293C45.3667 2.79641 44.7873 3.44779 44.3689 4.20071C43.9504 4.95364 43.7031 5.78958 43.6447 6.649C43.6447 9.269 46.0447 11.397 46.0657 11.418C46.2673 11.5909 46.4112 11.8214 46.4779 12.0785C46.5446 12.3356 46.531 12.6069 46.4389 12.856C46.3467 13.1051 46.1804 13.32 45.9625 13.4718C45.7445 13.6236 45.4853 13.705 45.2197 13.705V13.709ZM7.23466 2.60901C6.64653 2.55955 6.05454 2.6327 5.49613 2.82383C4.93773 3.01496 4.42507 3.3199 3.99059 3.71937C3.55612 4.11885 3.20928 4.60415 2.97203 5.14457C2.73478 5.685 2.61228 6.2688 2.61228 6.85901C2.61228 7.44922 2.73478 8.033 2.97203 8.57342C3.20928 9.11385 3.55612 9.59915 3.99059 9.99862C4.42507 10.3981 4.93773 10.703 5.49613 10.8942C6.05454 11.0853 6.64653 11.1585 7.23466 11.109H42.4517C41.5689 9.7871 41.0809 8.24114 41.0447 6.65201C41.0535 5.20894 41.4941 3.80155 42.3097 2.61101L7.23466 2.60901Z" fill="black"/>
<path d="M38.7514 13.8181H30.4404V29.2621L34.5954 25.9691L38.7514 29.2621V13.8181Z" fill="#7B68EE"/>
<path d="M10.0781 4.10791H42.3501V5.84091H10.0781V4.10791Z" fill="black"/>
<path d="M10.0781 7.46509H42.3501V9.19809H10.0781V7.46509Z" fill="black"/>
<path d="M9.21191 21.3621H10.9449V57.3401H9.21191V21.3621Z" fill="black"/>
</svg>
