<svg width="76" height="76" viewBox="0 0 76 76" fill="none" xmlns="http://www.w3.org/2000/svg">
<path d="M61.5669 67.314H24.1809C17.7539 66.855 15.4129 62.393 15.0609 60.098L15.0469 59.898V15.998H17.6469V59.778C17.7789 60.4 18.8249 64.32 24.2749 64.715H58.9669V21.084H61.5669V67.314Z" fill="white"/>
<path d="M60.2665 22.383H22.2815C21.3524 22.4307 20.4234 22.2888 19.5508 21.9661C18.6783 21.6433 17.8805 21.1465 17.2061 20.5057C16.5316 19.8649 15.9945 19.0936 15.6275 18.2388C15.2605 17.3839 15.0713 16.4633 15.0713 15.533C15.0713 14.6027 15.2605 13.6821 15.6275 12.8272C15.9945 11.9724 16.5316 11.2011 17.2061 10.5603C17.8805 9.91956 18.6783 9.42271 19.5508 9.09997C20.4234 8.77724 21.3524 8.63537 22.2815 8.68301H60.2665C60.5315 8.68373 60.7898 8.76539 61.0071 8.91702C61.2243 9.06865 61.39 9.28303 61.4821 9.53146C61.5741 9.77989 61.588 10.0505 61.522 10.3071C61.4559 10.5636 61.3131 10.7939 61.1125 10.967C60.4136 11.4704 59.8342 12.1218 59.4157 12.8747C58.9973 13.6276 58.75 14.4636 58.6915 15.323C58.6915 17.943 61.0915 20.071 61.1125 20.092C61.3142 20.2649 61.4581 20.4954 61.5248 20.7525C61.5915 21.0096 61.5779 21.2809 61.4857 21.53C61.3936 21.7792 61.2273 21.9941 61.0094 22.1458C60.7914 22.2976 60.5322 22.379 60.2665 22.379V22.383ZM22.2815 11.283C21.6934 11.2336 21.1014 11.3067 20.543 11.4978C19.9846 11.689 19.4719 11.9939 19.0375 12.3934C18.603 12.7929 18.2562 13.2782 18.0189 13.8186C17.7817 14.359 17.6592 14.9428 17.6592 15.533C17.6592 16.1232 17.7817 16.707 18.0189 17.2474C18.2562 17.7879 18.603 18.2732 19.0375 18.6726C19.4719 19.0721 19.9846 19.3771 20.543 19.5682C21.1014 19.7593 21.6934 19.8325 22.2815 19.783H57.4986C56.6158 18.4611 56.1278 16.9152 56.0915 15.326C56.1004 13.8829 56.541 12.4756 57.3565 11.285L22.2815 11.283Z" fill="white"/>
<path d="M53.7983 22.492H45.4873V37.936L49.6423 34.643L53.7983 37.936V22.492Z" fill="#7B68EE"/>
<path d="M25.125 12.782H57.397V14.515H25.125V12.782Z" fill="white"/>
<path d="M25.125 16.139H57.397V17.872H25.125V16.139Z" fill="white"/>
<path d="M24.2588 30.036H25.9918V66.014H24.2588V30.036Z" fill="white"/>
</svg>
