<svg width="47" height="60" viewBox="0 0 47 60" fill="none" xmlns="http://www.w3.org/2000/svg">
<g opacity="0.7">
<path opacity="0.7" d="M46.5669 59.314H9.18087C2.75387 58.855 0.412875 54.393 0.0608749 52.098L0.046875 51.898V7.99805H2.64687V51.778C2.77887 52.4 3.82487 56.32 9.27487 56.715H43.9669V13.084H46.5669V59.314Z" fill="#A2A2A2"/>
<path opacity="0.7" d="M45.2665 14.3831H7.28154C6.35245 14.4307 5.42338 14.2889 4.55083 13.9661C3.67829 13.6434 2.88053 13.1465 2.20606 12.5058C1.5316 11.865 0.994528 11.0937 0.627533 10.2388C0.260538 9.38397 0.0712891 8.46339 0.0712891 7.53308C0.0712891 6.60276 0.260538 5.68217 0.627533 4.8273C0.994528 3.97243 1.5316 3.20116 2.20606 2.56039C2.88053 1.91963 3.67829 1.42277 4.55083 1.10003C5.42338 0.777299 6.35245 0.63543 7.28154 0.683072H45.2665C45.5315 0.683796 45.7898 0.765446 46.0071 0.917081C46.2243 1.06872 46.39 1.28309 46.4821 1.53152C46.5741 1.77995 46.588 2.05057 46.522 2.30713C46.4559 2.56369 46.3131 2.79394 46.1125 2.96707C45.4136 3.47048 44.8342 4.12186 44.4157 4.87478C43.9973 5.62771 43.75 6.46366 43.6915 7.32307C43.6915 9.94307 46.0915 12.0711 46.1125 12.0921C46.3142 12.2649 46.4581 12.4954 46.5248 12.7525C46.5915 13.0096 46.5779 13.281 46.4857 13.5301C46.3936 13.7792 46.2273 13.9941 46.0094 14.1459C45.7914 14.2977 45.5322 14.3791 45.2665 14.3791V14.3831ZM7.28154 3.28308C6.69341 3.23362 6.10141 3.30678 5.54301 3.49791C4.9846 3.68904 4.47194 3.99397 4.03747 4.39345C3.60299 4.79292 3.25616 5.27822 3.01891 5.81865C2.78166 6.35907 2.65916 6.94287 2.65916 7.53308C2.65916 8.12329 2.78166 8.70707 3.01891 9.24749C3.25616 9.78792 3.60299 10.2732 4.03747 10.6727C4.47194 11.0722 4.9846 11.3771 5.54301 11.5682C6.10141 11.7594 6.69341 11.8325 7.28154 11.7831H42.4986C41.6158 10.4612 41.1278 8.91522 41.0915 7.32608C41.1004 5.88301 41.541 4.47562 42.3565 3.28508L7.28154 3.28308Z" fill="#A2A2A2"/>
<path opacity="0.7" d="M38.7983 14.4922H30.4873V29.9362L34.6423 26.6432L38.7983 29.9362V14.4922Z" fill="#C5C5C5"/>
<path opacity="0.7" d="M10.125 4.78198H42.397V6.51498H10.125V4.78198Z" fill="#A2A2A2"/>
<path opacity="0.7" d="M10.125 8.13916H42.397V9.87216H10.125V8.13916Z" fill="#A2A2A2"/>
<path opacity="0.7" d="M9.25879 22.0361H10.9918V58.0141H9.25879V22.0361Z" fill="#A2A2A2"/>
</g>
</svg>
