<svg xmlns="http://www.w3.org/2000/svg" width="30" height="30" viewBox="0 0 30 30">
    <g>
        <path fill="#fff" d="M0 0H30V30H0z" transform="translate(-1240 -743) translate(1240 743)"/>
        <g fill-rule="evenodd">
            <path fill="#d7282a" d="M20.064 8.274a13 13 0 0 1 2.49-3.583A14.489 14.489 0 0 1 30.915.222 14.484 14.484 0 0 1 43.2 3.637c.225.194.28.307.036.546-1.256 1.23-2.493 2.481-3.737 3.724-.128.128-.214.283-.44.075a8.615 8.615 0 0 0-11.58.258 9.565 9.565 0 0 0-2.488 3.8c-.078-.051-.159-.1-.233-.153q-2.35-1.806-4.694-3.613z" transform="translate(-1240 -743) translate(1240 743) translate(-18.447 0)"/>
            <path fill="#45ac43" d="M24.81 222.194a10.047 10.047 0 0 0 1.837 3.136 8.828 8.828 0 0 0 7.858 3.01 9.509 9.509 0 0 0 4.021-1.4c.119.106.232.22.357.318q2.176 1.7 4.355 3.393a12.467 12.467 0 0 1-5.617 3.07 15.106 15.106 0 0 1-13.738-2.772A13.927 13.927 0 0 1 19.912 226z" transform="translate(-1240 -743) translate(1240 743) translate(-18.307 -204.291)"/>
            <path fill="#5d7fbe" d="M195.676 165.181q-2.178-1.7-4.355-3.393c-.125-.1-.238-.212-.357-.318a7.619 7.619 0 0 0 2.342-2.765 9.612 9.612 0 0 0 .509-1.4c.1-.328.068-.455-.338-.452-2.416.021-4.833.01-7.249.01-.512 0-.512 0-.512-.53 0-1.638.008-3.276-.007-4.913 0-.316.053-.437.408-.436q6.685.019 13.371 0c.241 0 .392.018.434.31a16.447 16.447 0 0 1-1.93 11.063 11.043 11.043 0 0 1-2.316 2.824z" transform="translate(-1240 -743) translate(1240 743) translate(-170.744 -138.823)"/>
            <path fill="#f4c300" d="M6.5 112.322l-4.9 3.8a13.566 13.566 0 0 1-1.472-4.734 14.823 14.823 0 0 1 1.256-8.276c.067-.145.152-.281.228-.422l4.69 3.612c.073.056.155.1.233.153a9.475 9.475 0 0 0-.035 5.867z" transform="translate(-1240 -743) translate(1240 743) translate(0 -94.418)"/>
        </g>
    </g>
</svg>
