<svg width="18" height="18" viewBox="0 0 18 18" fill="none" xmlns="http://www.w3.org/2000/svg">
<path d="M6.66797 2.63H11.332V4.489H6.66797V2.63Z" stroke="#656565" stroke-linecap="round" stroke-linejoin="round"/>
<path d="M5.09192 6.35596H12.9079V13.369C12.9079 13.8994 12.6972 14.4081 12.3221 14.7832C11.9471 15.1582 11.4384 15.369 10.9079 15.369H7.09192C6.56149 15.369 6.05278 15.1582 5.67771 14.7832C5.30263 14.4081 5.09192 13.8994 5.09192 13.369V6.35596Z" stroke="#656565" stroke-linecap="round" stroke-linejoin="round"/>
<path d="M4.03894 4.48999H13.9609Z" fill="white"/>
<path d="M4.03894 4.48999H13.9609" stroke="#656565" stroke-linecap="round" stroke-linejoin="round"/>
<path d="M10.895 8.92603V12.8Z" fill="white"/>
<path d="M10.895 8.92603V12.8" stroke="#656565" stroke-linecap="round" stroke-linejoin="round"/>
<path d="M9.00092 8.92603V12.8Z" fill="white"/>
<path d="M9.00092 8.92603V12.8" stroke="#656565" stroke-linecap="round" stroke-linejoin="round"/>
<path d="M7.10596 8.92603V12.8Z" fill="white"/>
<path d="M7.10596 8.92603V12.8" stroke="#656565" stroke-linecap="round" stroke-linejoin="round"/>
</svg>
