<svg width="18" height="18" viewBox="0 0 18 18" fill="none" xmlns="http://www.w3.org/2000/svg">
<path d="M8.67175 13.738L5.46471 15.538C5.35261 15.601 5.22491 15.6305 5.09655 15.623C4.96819 15.6155 4.84461 15.5713 4.74059 15.4957C4.63658 15.4201 4.5564 15.3163 4.50964 15.1965C4.46287 15.0767 4.45164 14.9461 4.47692 14.82L5.19274 11.215C5.21532 11.1024 5.2087 10.9859 5.1737 10.8766C5.1387 10.7672 5.07629 10.6686 4.99255 10.59L2.29284 8.09C2.19815 8.00284 2.13013 7.89032 2.09753 7.76582C2.06492 7.64132 2.06894 7.51007 2.10876 7.38768C2.14857 7.26529 2.22252 7.15691 2.32214 7.07542C2.42175 6.99394 2.54292 6.94277 2.67077 6.928L6.32067 6.495C6.4348 6.48144 6.54362 6.43883 6.63659 6.37125C6.72956 6.30367 6.80381 6.21338 6.85192 6.109L8.39196 2.771C8.44585 2.65431 8.53173 2.55548 8.64001 2.48622C8.74828 2.41696 8.87427 2.38015 9.0028 2.38015C9.13134 2.38015 9.25732 2.41696 9.36559 2.48622C9.47387 2.55548 9.55975 2.65431 9.61364 2.771L11.1537 6.109C11.2017 6.21344 11.276 6.30379 11.369 6.37138C11.462 6.43897 11.5708 6.48154 11.6849 6.495L15.3348 6.928C15.4624 6.94332 15.5828 6.99482 15.682 7.07642C15.7812 7.15803 15.8548 7.26631 15.8944 7.3885C15.934 7.51069 15.938 7.64168 15.9056 7.76598C15.8732 7.89029 15.806 8.00272 15.7118 8.09L13.0116 10.59C12.9278 10.6686 12.8654 10.7672 12.8304 10.8766C12.7954 10.9859 12.7893 11.1024 12.8119 11.215L13.5277 14.82C13.553 14.9461 13.5418 15.0767 13.495 15.1965C13.4482 15.3163 13.368 15.4201 13.264 15.4957C13.16 15.5713 13.0364 15.6155 12.9081 15.623C12.7797 15.6305 12.652 15.601 12.5399 15.538L9.33288 13.738C9.23201 13.6811 9.11811 13.6513 9.00231 13.6513C8.88652 13.6513 8.77262 13.6811 8.67175 13.738V13.738Z" stroke="#E6E6E6" stroke-linejoin="round"/>
</svg>
