<svg width="18" height="18" viewBox="0 0 18 18" fill="none" xmlns="http://www.w3.org/2000/svg">
<path d="M8.67187 13.738L5.46484 15.538C5.35273 15.601 5.22503 15.6304 5.09667 15.6229C4.96831 15.6155 4.84473 15.5713 4.74072 15.4957C4.6367 15.4201 4.55652 15.3163 4.50976 15.1965C4.46299 15.0767 4.45177 14.946 4.47704 14.82L5.19286 11.215C5.21544 11.1024 5.20882 10.9859 5.17382 10.8765C5.13882 10.7672 5.07641 10.6685 4.99267 10.59L2.29296 8.08998C2.19827 8.00282 2.13026 7.8903 2.09765 7.7658C2.06504 7.6413 2.06907 7.51005 2.10888 7.38766C2.14869 7.26527 2.22264 7.15689 2.32226 7.0754C2.42187 6.99391 2.54304 6.94274 2.67089 6.92798L6.32079 6.49498C6.43492 6.48142 6.54375 6.43881 6.63671 6.37123C6.72968 6.30365 6.80393 6.21336 6.85204 6.10898L8.39208 2.77098C8.44597 2.65429 8.53185 2.55546 8.64013 2.4862C8.74841 2.41693 8.87439 2.38013 9.00292 2.38013C9.13146 2.38013 9.25744 2.41693 9.36572 2.4862C9.47399 2.55546 9.55988 2.65429 9.61376 2.77098L11.1538 6.10898C11.2018 6.21341 11.2762 6.30376 11.3691 6.37135C11.4621 6.43894 11.5709 6.48151 11.6851 6.49498L15.335 6.92798C15.4625 6.9433 15.5829 6.9948 15.6821 7.0764C15.7813 7.158 15.8549 7.26629 15.8945 7.38848C15.9342 7.51067 15.9382 7.64166 15.9058 7.76596C15.8733 7.89027 15.8062 8.0027 15.7119 8.08998L13.0117 10.59C12.928 10.6685 12.8656 10.7672 12.8306 10.8765C12.7956 10.9859 12.7894 11.1024 12.812 11.215L13.5278 14.82C13.5531 14.946 13.5419 15.0767 13.4951 15.1965C13.4483 15.3163 13.3682 15.4201 13.2642 15.4957C13.1601 15.5713 13.0366 15.6155 12.9082 15.6229C12.7798 15.6304 12.6521 15.601 12.54 15.538L9.333 13.738C9.23213 13.6811 9.11823 13.6512 9.00243 13.6512C8.88664 13.6512 8.77274 13.6811 8.67187 13.738V13.738Z" stroke="#656565" stroke-linejoin="round"/>
</svg>
