<svg width="147" height="68" viewBox="0 0 147 68" fill="none" xmlns="http://www.w3.org/2000/svg">
<g filter="url(#filter0_d_440:11)">
<path d="M124 17H23C20.2386 17 18 19.2386 18 22V44C18 46.7614 20.2386 49 23 49H124C126.761 49 129 46.7614 129 44V22C129 19.2386 126.761 17 124 17Z" fill="#A2A2A2"/>
</g>
<path d="M69.5782 36.4259V35.5299H66.5542V32.9259H65.4902V35.5299H62.5922V32.9259H61.5282V35.5299H58.5322V36.4259H69.5782ZM68.4442 32.2959V31.3999H66.5402L66.9602 28.5019L65.9102 28.3339L65.5462 31.3999H62.5362L62.3122 28.3199L61.2062 28.4319L61.5282 31.3999H59.6102V32.2959H68.4442ZM68.4582 27.7179V26.8219H59.5962V27.7179H68.4582ZM80.7255 37.9799V25.7439H79.6475V37.9799H80.7255ZM78.0935 34.2279C76.3995 33.2199 74.9155 31.2179 74.9155 28.9779V26.8079H73.8375V29.0199C73.8375 31.1899 72.3675 33.4159 70.5755 34.5359L71.2755 35.3339C72.6895 34.3259 73.9495 32.8279 74.3975 31.3019C74.8735 32.7719 76.3155 34.2839 77.4215 35.0399L78.0935 34.2279ZM100.432 37.9799V25.7439H99.3822V30.7419H97.9122V26.0379H96.8762V37.3639H97.9122V31.6379H99.3822V37.9799H100.432ZM95.9522 32.7579C95.9522 31.2879 94.8602 30.3079 93.2782 30.3079C91.7102 30.3079 90.6042 31.2739 90.6042 32.7579C90.6042 34.1579 91.7102 35.1939 93.2782 35.1939C94.8602 35.1939 95.9522 34.2279 95.9522 32.7579ZM94.9302 32.7579C94.9302 33.6819 94.2442 34.3119 93.2782 34.3119C92.3122 34.3119 91.6402 33.7099 91.6402 32.7579C91.6402 31.8199 92.3122 31.2039 93.2782 31.2039C94.2442 31.2039 94.9302 31.8199 94.9302 32.7579ZM96.1762 29.6079V28.7259H90.0862V29.6079H96.1762ZM94.8602 27.6059V26.6819H91.5142V27.6059H94.8602ZM108.471 34.3119C106.959 33.3319 105.811 31.8199 105.811 29.4119V28.0679H108.163V27.1859H102.325V28.0679H104.761V29.4399C104.761 31.8199 103.473 33.7519 102.031 34.6759L102.745 35.4179C103.935 34.5779 105.041 33.1219 105.293 31.7639C105.643 33.0519 106.931 34.4799 107.799 35.0959L108.471 34.3119ZM110.123 37.3639V26.0379H109.073V30.2379H107.113V31.1199H109.073V37.3639H110.123ZM112.545 37.9799V25.7439H111.495V37.9799H112.545Z" fill="black"/>
<path d="M42.9543 27.1169L37.3773 32.6989L36.7914 34.4559L35.9293 35.3179L38.2723 37.6619L39.1343 36.7999L40.8873 36.2169L46.4683 30.6349L42.9543 27.1169ZM48.2262 30.0449C48.3031 30.1218 48.3642 30.2131 48.4058 30.3136C48.4475 30.414 48.4688 30.5217 48.4688 30.6304C48.4688 30.7392 48.4475 30.8469 48.4058 30.9473C48.3642 31.0478 48.3031 31.1391 48.2262 31.2159L41.7774 37.6619L40.0212 38.2479L38.8533 39.4169C38.7764 39.4938 38.6851 39.5548 38.5846 39.5964C38.4842 39.6381 38.3765 39.6595 38.2678 39.6595C38.159 39.6595 38.0514 39.6381 37.951 39.5964C37.8505 39.5548 37.7592 39.4938 37.6824 39.4169L34.1674 35.9039C34.0905 35.8271 34.0295 35.7358 33.9879 35.6353C33.9462 35.5349 33.9248 35.4272 33.9248 35.3184C33.9248 35.2097 33.9462 35.102 33.9879 35.0016C34.0295 34.9011 34.0905 34.8098 34.1674 34.7329L35.3383 33.5619L35.9244 31.8049L42.3682 25.3609C42.4451 25.284 42.5365 25.2231 42.637 25.1814C42.7374 25.1398 42.845 25.1184 42.9538 25.1184C43.0625 25.1184 43.1702 25.1398 43.2706 25.1814C43.3711 25.2231 43.4624 25.284 43.5392 25.3609L48.2253 30.0469L48.2262 30.0449ZM42.9543 29.4589L44.1252 30.6299L40.0252 34.7299L38.8533 33.5609L42.9534 29.4609L42.9543 29.4589ZM33.8773 37.3689L36.2173 39.7169L35.0462 40.8839L31.5312 39.7169L33.8773 37.3689Z" fill="#656565"/>
<defs>
<filter id="filter0_d_440:11" x="6" y="6" width="135" height="56" filterUnits="userSpaceOnUse" color-interpolation-filters="sRGB">
<feFlood flood-opacity="0" result="BackgroundImageFix"/>
<feColorMatrix in="SourceAlpha" type="matrix" values="0 0 0 0 0 0 0 0 0 0 0 0 0 0 0 0 0 0 127 0" result="hardAlpha"/>
<feOffset dy="1"/>
<feGaussianBlur stdDeviation="6"/>
<feColorMatrix type="matrix" values="0 0 0 0 0 0 0 0 0 0 0 0 0 0 0 0 0 0 0.161 0"/>
<feBlend mode="normal" in2="BackgroundImageFix" result="effect1_dropShadow_440:11"/>
<feBlend mode="normal" in="SourceGraphic" in2="effect1_dropShadow_440:11" result="shape"/>
</filter>
</defs>
</svg>
