<svg xmlns="http://www.w3.org/2000/svg" width="30" height="30" viewBox="0 0 30 30">
    <defs>
        <clipPath id="clip-path">
            <path id="패스_843697" d="M66.909 99.731h1.1s.007 3.033 0 3.74c0 .516 1.149.523 1.147.007l.005-3.708h1.1a.541.541 0 0 0 0-1.08c-.773 0-3.359-.021-3.359-.021a.532.532 0 0 0 0 1.059" class="cls-1" transform="translate(-66.422 -98.672)"/>
        </clipPath>
        <clipPath id="clip-path-2">
            <path id="패스_843699" d="M85.85 100.013l.614 1.925h-1.281zm-.689-.9c-.272.6-1.253 3.425-1.579 4.174-.236.542.78.984 1.016.442l.221-.773h2.021s-.07.032.2.74c.217.573 1.267.176 1.049-.4-.31-.819-1.383-3.768-1.579-4.186a.834.834 0 0 0-.727-.331.64.64 0 0 0-.62.331" class="cls-1" transform="translate(-83.547 -98.78)"/>
        </clipPath>
        <clipPath id="clip-path-3">
            <path id="패스_843701" d="M107.869 99.292c0 .961.005 4.056.005 4.056s-.089.615.439.615 1.7-.006 2.217-.006.516-1.1 0-1.1-1.466-.005-1.466-.005v-3.559a.606.606 0 0 0-1.2 0" class="cls-1" transform="translate(-107.868 -98.785)"/>
        </clipPath>
        <clipPath id="clip-path-4">
            <path id="패스_843703" d="M124.2 99.148c.011.421-.014 4.23-.013 4.512 0 .446 1.134.444 1.134 0v-1.5l.333-.267 1.456 1.986c.294.388 1.22-.313.926-.7l-1.546-2.036s1.049-1.135 1.463-1.546c.241-.24-.506-.993-.747-.752l-1.878 1.877s.015-1.033 0-1.6c-.006-.217-.272-.322-.544-.322-.291 0-.589.12-.583.352" class="cls-1" transform="translate(-124.185 -98.796)"/>
        </clipPath>
        <style>
            .cls-1{fill:#ffd900}
        </style>
    </defs>
    <g id="그룹_457235" transform="translate(-1020 -662)">
        <path id="사각형_348264" fill="#fff" d="M0 0H30V30H0z" transform="translate(1020 662)"/>
        <g id="그룹_457222" transform="translate(987.387 620.135)">
            <path id="패스_843694" d="M62.443 65.191a6.656 6.656 0 0 1-6.637 6.675H39.25a6.656 6.656 0 0 1-6.637-6.675V48.54a6.656 6.656 0 0 1 6.637-6.675h16.556a6.656 6.656 0 0 1 6.637 6.675z" class="cls-1" transform="translate(0 0)"/>
            <path id="패스_843695" fill="#2a1617" d="M63.541 69.741c-5.926 0-10.729 3.8-10.729 8.482 0 3.049 2.035 5.721 5.09 7.216-.224.838-.813 3.035-.93 3.5-.146.583.213.576.449.42.185-.123 2.94-2 4.129-2.806a13.561 13.561 0 0 0 1.992.146c5.925 0 10.729-3.8 10.729-8.482s-4.8-8.482-10.729-8.482" transform="translate(-16.107 -22.228)"/>
            <g id="그룹_457234" transform="translate(39.463 53.374)">
                <g id="그룹_457224" transform="translate(0 0)">
                    <g id="그룹_457223">
                        <path id="패스_843696" d="M66.909 99.731h1.1s.007 3.033 0 3.74c0 .516 1.149.523 1.147.007l.005-3.708h1.1a.541.541 0 0 0 0-1.08c-.773 0-3.359-.021-3.359-.021a.532.532 0 0 0 0 1.059" class="cls-1" transform="translate(-66.422 -98.672)"/>
                        <g id="그룹_457222-2" clip-path="url(#clip-path)">
                            <path id="사각형_348266" d="M0 0H4.693V5.322H0z" class="cls-1" transform="translate(-0.163 0)"/>
                        </g>
                    </g>
                </g>
                <g id="그룹_457227" transform="translate(3.469 0.022)">
                    <g id="그룹_457226">
                        <path id="패스_843698" d="M85.85 100.013l.614 1.925h-1.281zm-.689-.9c-.272.6-1.253 3.425-1.579 4.174-.236.542.78.984 1.016.442l.221-.773h2.021s-.07.032.2.74c.217.573 1.267.176 1.049-.4-.31-.819-1.383-3.768-1.579-4.186a.834.834 0 0 0-.727-.331.64.64 0 0 0-.62.331" class="cls-1" transform="translate(-83.547 -98.78)"/>
                        <g id="그룹_457225" clip-path="url(#clip-path-2)">
                            <path id="사각형_348267" d="M0 0H4.959V5.489H0z" class="cls-1" transform="translate(-0.201 0)"/>
                        </g>
                    </g>
                </g>
                <g id="그룹_457230" transform="translate(8.397 0.023)">
                    <g id="그룹_457229">
                        <path id="패스_843700" d="M107.869 99.292c0 .961.005 4.056.005 4.056s-.089.615.439.615 1.7-.006 2.217-.006.516-1.1 0-1.1-1.466-.005-1.466-.005v-3.559a.606.606 0 0 0-1.2 0" class="cls-1" transform="translate(-107.868 -98.785)"/>
                        <g id="그룹_457228" clip-path="url(#clip-path-3)">
                            <path id="사각형_348268" d="M0 0H3.264V5.179H0z" class="cls-1" transform="translate(-0.083)"/>
                        </g>
                    </g>
                </g>
                <g id="그룹_457233" transform="translate(11.702 0.025)">
                    <g id="그룹_457232">
                        <path id="패스_843702" d="M124.2 99.148c.011.421-.014 4.23-.013 4.512 0 .446 1.134.444 1.134 0v-1.5l.333-.267 1.456 1.986c.294.388 1.22-.313.926-.7l-1.546-2.036s1.049-1.135 1.463-1.546c.241-.24-.506-.993-.747-.752l-1.878 1.877s.015-1.033 0-1.6c-.006-.217-.272-.322-.544-.322-.291 0-.589.12-.583.352" class="cls-1" transform="translate(-124.185 -98.796)"/>
                        <g id="그룹_457231" clip-path="url(#clip-path-4)">
                            <path id="사각형_348269" d="M0 0H4.143V5.664H0z" class="cls-1" transform="translate(0 -0.192)"/>
                        </g>
                    </g>
                </g>
            </g>
        </g>
    </g>
</svg>
