<svg xmlns="http://www.w3.org/2000/svg" width="76" height="76">
    <defs>
        <style>
            .cls-2{fill:#2f3437}.cls-3{fill:#363c3e}
        </style>
    </defs>
    <g id="그룹_12068" data-name="그룹 12068" transform="translate(-1302 -577)">
        <g id="그룹_457466" data-name="그룹 457466" transform="translate(868.433 277.81)">
            <path id="패스_843934" data-name="패스 843934" class="cls-2" d="M501.685 357.2h-64.04a1.291 1.291 0 0 1-1.291-1.291v-43.48a1.291 1.291 0 0 1 1.291-1.291h64.04a1.291 1.291 0 0 1 1.291 1.291v43.48a1.291 1.291 0 0 1-1.291 1.291zm-62.749-2.582h61.458v-40.9h-61.458z" transform="translate(2.01)"/>
            <path id="패스_843935" data-name="패스 843935" class="cls-2" d="M508.277 345.017h-73.419a1.291 1.291 0 0 1-1.291-1.291v-6.031a1.291 1.291 0 0 1 1.291-1.291h73.419a1.291 1.291 0 0 1 1.291 1.291v6.031a1.291 1.291 0 0 1-1.291 1.291zm-72.128-2.582h70.837v-3.449h-70.837z" transform="translate(0 18.219)"/>
            <path id="사각형_348379" data-name="사각형 348379" class="cls-2" transform="translate(445.656 319.167)" d="M0 0h52.511v31.224H0z"/>
            <path id="패스_843938" data-name="패스 843938" class="cls-3" d="M10.613-8.535H1.977V-6.7h6.336v5.49h2.3zm12.913 5.22h-6.418v-5.22h-2.335v7.058h8.754zm12.647-5.266h-8.528v7.361h8.636v-1.8h-6.29v-3.717h6.182z" transform="translate(452.783 339.675)"/>
            <g id="그룹_457465" data-name="그룹 457465" transform="translate(484.532 346.767)">
                <path id="사각형_348382" data-name="사각형 348382" class="cls-3" transform="translate(1.291 1.291)" d="M0 0h13.676v7.857H0z"/>
                <path id="패스_843936" data-name="패스 843936" class="cls-2" d="M478.143 342.277h-13.675a1.291 1.291 0 0 1-1.291-1.291v-7.856a1.291 1.291 0 0 1 1.291-1.291h13.675a1.291 1.291 0 0 1 1.291 1.291v7.856a1.291 1.291 0 0 1-1.291 1.291zm-12.384-2.577h11.093v-5.274h-11.093z" transform="translate(-463.177 -331.84)"/>
            </g>
            <path id="패스_843937" data-name="패스 843937" class="cls-2" d="M468.44 342.277a1.291 1.291 0 0 1-1.291-1.291v-7.856a1.291 1.291 0 1 1 2.582 0v7.856a1.291 1.291 0 0 1-1.291 1.291z" transform="translate(24.22 14.927)"/>
        </g>
    </g>
</svg>
