<svg width="76" height="54" viewBox="0 0 76 54" fill="none" xmlns="http://www.w3.org/2000/svg">
<g opacity="0.7">
<g opacity="0.7">
<path opacity="0.7" d="M70.1279 47.01H6.08786C5.74547 47.01 5.4171 46.874 5.17499 46.6319C4.93288 46.3898 4.79688 46.0614 4.79688 45.719V2.23898C4.79688 1.89659 4.93288 1.56822 5.17499 1.32611C5.4171 1.084 5.74547 0.947998 6.08786 0.947998H70.1279C70.4703 0.947998 70.7986 1.084 71.0407 1.32611C71.2829 1.56822 71.4189 1.89659 71.4189 2.23898V45.719C71.4189 46.0614 71.2829 46.3898 71.0407 46.6319C70.7986 46.874 70.4703 47.01 70.1279 47.01ZM7.37888 44.428H68.8369V3.52798H7.37888V44.428Z" fill="#A2A2A2"/>
<path opacity="0.7" d="M74.71 53.0461H1.29102C0.948621 53.0461 0.620253 52.9101 0.378143 52.668C0.136034 52.4259 0 52.0975 0 51.7551V45.7241C0 45.3817 0.136034 45.0534 0.378143 44.8112C0.620253 44.5691 0.948621 44.4331 1.29102 44.4331H74.71C75.0524 44.4331 75.3808 44.5691 75.6229 44.8112C75.865 45.0534 76.001 45.3817 76.001 45.7241V51.7551C76.001 52.0975 75.865 52.4259 75.6229 52.668C75.3808 52.9101 75.0524 53.0461 74.71 53.0461V53.0461ZM2.582 50.4641H73.419V47.0151H2.582V50.4641Z" fill="#A2A2A2"/>
<path opacity="0.7" d="M12.0889 8.97705H64.5999V40.2011H12.0889V8.97705Z" fill="#C5C5C5"/>
<path opacity="0.7" d="M29.8294 20.9501H21.1934V22.7851H27.5294V28.2751H29.8294V20.9501ZM42.7424 26.1701H36.3244V20.9501H33.9894V28.0081H42.7434L42.7424 26.1701ZM55.3894 20.9041H46.8614V28.2651H55.4974V26.4651H49.2074V22.7481H55.3894V20.9041Z" fill="white"/>
<g opacity="0.7">
<path opacity="0.7" d="M52.2559 37.8679H65.9319V45.7249H52.2559V37.8679Z" fill="white"/>
<path opacity="0.7" d="M65.9308 47.0139H52.2558C51.9134 47.0139 51.5851 46.8779 51.343 46.6358C51.1008 46.3937 50.9648 46.0653 50.9648 45.7229V37.8669C50.9648 37.5245 51.1008 37.1962 51.343 36.9541C51.5851 36.712 51.9134 36.5759 52.2558 36.5759H65.9308C66.2732 36.5759 66.6016 36.712 66.8437 36.9541C67.0858 37.1962 67.2218 37.5245 67.2218 37.8669V45.7229C67.2218 46.0653 67.0858 46.3937 66.8437 46.6358C66.6016 46.8779 66.2732 47.0139 65.9308 47.0139ZM53.5468 44.437H64.6398V39.1629H53.5468V44.437Z" fill="#A2A2A2"/>
</g>
<path opacity="0.7" d="M59.0928 47.0139C58.7504 47.0139 58.422 46.8779 58.1799 46.6358C57.9378 46.3937 57.8018 46.0653 57.8018 45.7229V37.8669C57.8018 37.5245 57.9378 37.1962 58.1799 36.9541C58.422 36.712 58.7504 36.5759 59.0928 36.5759C59.4352 36.5759 59.7635 36.712 60.0056 36.9541C60.2478 37.1962 60.3838 37.5245 60.3838 37.8669V45.7229C60.3838 46.0653 60.2478 46.3937 60.0056 46.6358C59.7635 46.8779 59.4352 47.0139 59.0928 47.0139Z" fill="#A2A2A2"/>
</g>
</g>
</svg>
