<svg width="76" height="53" viewBox="0 0 76 53" fill="none" xmlns="http://www.w3.org/2000/svg">
<path d="M70.1279 46.062H6.08786C5.74547 46.062 5.4171 45.926 5.17499 45.6839C4.93288 45.4418 4.79688 45.1134 4.79688 44.771V1.29099C4.79688 0.948591 4.93288 0.620222 5.17499 0.378113C5.4171 0.136003 5.74547 0 6.08786 0H70.1279C70.4703 0 70.7986 0.136003 71.0407 0.378113C71.2829 0.620222 71.4189 0.948591 71.4189 1.29099V44.771C71.4189 45.1134 71.2829 45.4418 71.0407 45.6839C70.7986 45.926 70.4703 46.062 70.1279 46.062ZM7.37888 43.48H68.8369V2.57999H7.37888V43.48Z" fill="black"/>
<path d="M74.71 52.0979H1.29102C0.948621 52.0979 0.620253 51.9619 0.378143 51.7198C0.136034 51.4776 0 51.1493 0 50.8069V44.7759C0 44.4335 0.136034 44.1051 0.378143 43.863C0.620253 43.6209 0.948621 43.4849 1.29102 43.4849H74.71C75.0524 43.4849 75.3808 43.6209 75.6229 43.863C75.865 44.1051 76.001 44.4335 76.001 44.7759V50.8069C76.001 51.1493 75.865 51.4776 75.6229 51.7198C75.3808 51.9619 75.0524 52.0979 74.71 52.0979V52.0979ZM2.582 49.5159H73.419V46.0669H2.582V49.5159Z" fill="black"/>
<path d="M12.0889 8.02905H64.5999V39.2531H12.0889V8.02905Z" fill="#7B68EE"/>
<path d="M29.8294 20.0021H21.1934V21.8371H27.5294V27.3271H29.8294V20.0021ZM42.7424 25.2221H36.3244V20.0021H33.9894V27.0601H42.7434L42.7424 25.2221ZM55.3894 19.9561H46.8614V27.3171H55.4974V25.5171H49.2074V21.8001H55.3894V19.9561Z" fill="white"/>
<path d="M52.2559 36.9199H65.9319V44.7769H52.2559V36.9199Z" fill="white"/>
<path d="M65.9308 46.0659H52.2558C51.9134 46.0659 51.5851 45.9299 51.343 45.6878C51.1008 45.4457 50.9648 45.1173 50.9648 44.7749V36.9189C50.9648 36.5766 51.1008 36.2482 51.343 36.0061C51.5851 35.764 51.9134 35.6279 52.2558 35.6279H65.9308C66.2732 35.6279 66.6016 35.764 66.8437 36.0061C67.0858 36.2482 67.2218 36.5766 67.2218 36.9189V44.7749C67.2218 45.1173 67.0858 45.4457 66.8437 45.6878C66.6016 45.9299 66.2732 46.0659 65.9308 46.0659ZM53.5468 43.489H64.6398V38.2149H53.5468V43.489Z" fill="black"/>
<path d="M59.0928 46.0659C58.7504 46.0659 58.422 45.9299 58.1799 45.6878C57.9378 45.4457 57.8018 45.1173 57.8018 44.7749V36.9189C57.8018 36.5766 57.9378 36.2482 58.1799 36.0061C58.422 35.764 58.7504 35.6279 59.0928 35.6279C59.4352 35.6279 59.7635 35.764 60.0056 36.0061C60.2478 36.2482 60.3838 36.5766 60.3838 36.9189V44.7749C60.3838 45.1173 60.2478 45.4457 60.0056 45.6878C59.7635 45.9299 59.4352 46.0659 59.0928 46.0659Z" fill="black"/>
</svg>
