<svg width="76" height="76" viewBox="0 0 76 76" fill="none" xmlns="http://www.w3.org/2000/svg">
<g clip-path="url(#clip0_435:130)">
<path d="M70.1279 58.01H6.08786C5.74547 58.01 5.4171 57.874 5.17499 57.6319C4.93288 57.3898 4.79688 57.0614 4.79688 56.719V13.239C4.79688 12.8966 4.93288 12.5682 5.17499 12.3261C5.4171 12.084 5.74547 11.948 6.08786 11.948H70.1279C70.4703 11.948 70.7986 12.084 71.0407 12.3261C71.2829 12.5682 71.4189 12.8966 71.4189 13.239V56.719C71.4189 57.0614 71.2829 57.3898 71.0407 57.6319C70.7986 57.874 70.4703 58.01 70.1279 58.01ZM7.37888 55.428H68.8369V14.528H7.37888V55.428Z" fill="white"/>
<path d="M74.71 64.046H1.29102C0.948621 64.046 0.620253 63.91 0.378143 63.6679C0.136034 63.4258 0 63.0974 0 62.755V56.724C0 56.3816 0.136034 56.0532 0.378143 55.8111C0.620253 55.569 0.948621 55.433 1.29102 55.433H74.71C75.0524 55.433 75.3808 55.569 75.6229 55.8111C75.865 56.0532 76.001 56.3816 76.001 56.724V62.755C76.001 63.0974 75.865 63.4258 75.6229 63.6679C75.3808 63.91 75.0524 64.046 74.71 64.046V64.046ZM2.582 61.464H73.419V58.015H2.582V61.464Z" fill="white"/>
<path d="M12.0889 19.977H64.5999V51.201H12.0889V19.977Z" fill="#7B68EE"/>
<path d="M29.8294 31.95H21.1934V33.785H27.5294V39.275H29.8294V31.95ZM42.7424 37.17H36.3244V31.95H33.9894V39.008H42.7434L42.7424 37.17ZM55.3894 31.904H46.8614V39.265H55.4974V37.465H49.2074V33.748H55.3894V31.904Z" fill="white"/>
<path d="M52.2559 48.868H65.9319V56.725H52.2559V48.868Z" fill="#3F4549"/>
<path d="M65.9308 58.014H52.2558C51.9134 58.014 51.5851 57.878 51.343 57.6359C51.1008 57.3938 50.9648 57.0654 50.9648 56.723V48.867C50.9648 48.5246 51.1008 48.1962 51.343 47.9541C51.5851 47.712 51.9134 47.576 52.2558 47.576H65.9308C66.2732 47.576 66.6016 47.712 66.8437 47.9541C67.0858 48.1962 67.2218 48.5246 67.2218 48.867V56.723C67.2218 57.0654 67.0858 57.3938 66.8437 57.6359C66.6016 57.878 66.2732 58.014 65.9308 58.014ZM53.5468 55.437H64.6398V50.163H53.5468V55.437Z" fill="white"/>
<path d="M59.0928 58.014C58.7504 58.014 58.422 57.878 58.1799 57.6359C57.9378 57.3938 57.8018 57.0654 57.8018 56.723V48.867C57.8018 48.5246 57.9378 48.1962 58.1799 47.9541C58.422 47.712 58.7504 47.576 59.0928 47.576C59.4352 47.576 59.7635 47.712 60.0056 47.9541C60.2478 48.1962 60.3838 48.5246 60.3838 48.867V56.723C60.3838 57.0654 60.2478 57.3938 60.0056 57.6359C59.7635 57.878 59.4352 58.014 59.0928 58.014Z" fill="white"/>
</g>
<defs>
<clipPath id="clip0_435:130">
<rect width="76" height="76" fill="white"/>
</clipPath>
</defs>
</svg>
