<svg xmlns="http://www.w3.org/2000/svg" width="24" height="24" viewBox="0 0 24 24">
    <g>
        <path fill="none" d="M0 0h24v24H0z" transform="translate(-490 -345) translate(490 345)"/>
        <path d="M23.827 22.157l-4-3.987a9.314 9.314 0 0 0 1.987-5.762 9.408 9.408 0 1 0-9.408 9.408 9.314 9.314 0 0 0 5.762-1.987l3.987 4a1.181 1.181 0 1 0 1.67-1.67zM5.352 12.408a7.056 7.056 0 1 1 7.056 7.056 7.056 7.056 0 0 1-7.056-7.056z" transform="translate(-490 -345) translate(488.413 343.411)"/>
    </g>
</svg>
