<svg width="60" height="60" viewBox="0 0 60 60" fill="none" xmlns="http://www.w3.org/2000/svg">
<g opacity="0.7">
<g opacity="0.7">
<path opacity="0.7" d="M55.0865 1.57397H35.6225C33.8872 1.57397 32.4805 2.9807 32.4805 4.71597V24.18C32.4805 25.9153 33.8872 27.322 35.6225 27.322H55.0865C56.8217 27.322 58.2285 25.9153 58.2285 24.18V4.71597C58.2285 2.9807 56.8217 1.57397 55.0865 1.57397Z" fill="#C5C5C5"/>
<path opacity="0.7" d="M24.3794 32.6799H4.91544C3.18016 32.6799 1.77344 34.0867 1.77344 35.8219V55.2859C1.77344 57.0212 3.18016 58.4279 4.91544 58.4279H24.3794C26.1147 58.4279 27.5214 57.0212 27.5214 55.2859V35.8219C27.5214 34.0867 26.1147 32.6799 24.3794 32.6799Z" fill="#C5C5C5"/>
<path opacity="0.7" d="M24.3794 1.57397H4.91544C3.18016 1.57397 1.77344 2.9807 1.77344 4.71597V24.18C1.77344 25.9153 3.18016 27.322 4.91544 27.322H24.3794C26.1147 27.322 27.5214 25.9153 27.5214 24.18V4.71597C27.5214 2.9807 26.1147 1.57397 24.3794 1.57397Z" fill="white" stroke="#A2A2A2" stroke-width="2.5" stroke-linecap="round" stroke-linejoin="round"/>
<path opacity="0.7" d="M55.0865 32.6799H35.6225C33.8872 32.6799 32.4805 34.0867 32.4805 35.8219V55.2859C32.4805 57.0212 33.8872 58.4279 35.6225 58.4279H55.0865C56.8217 58.4279 58.2285 57.0212 58.2285 55.2859V35.8219C58.2285 34.0867 56.8217 32.6799 55.0865 32.6799Z" fill="white" stroke="#A2A2A2" stroke-width="2.5" stroke-linecap="round" stroke-linejoin="round"/>
<g opacity="0.7">
<path d="M20.0583 9.03711L9.23633 19.8591Z" fill="white"/>
<path d="M20.0583 9.03711L9.23633 19.8591" stroke="#A2A2A2" stroke-width="2.5" stroke-linecap="round" stroke-linejoin="round"/>
</g>
<g opacity="0.7">
<path d="M9.23633 9.03711L20.0583 19.8591Z" fill="white"/>
<path d="M9.23633 9.03711L20.0583 19.8591" stroke="#A2A2A2" stroke-width="2.5" stroke-linecap="round" stroke-linejoin="round"/>
</g>
<g opacity="0.7">
<path d="M20.0583 40.1431L9.23633 50.9651Z" fill="white"/>
<path d="M20.0583 40.1431L9.23633 50.9651" stroke="white" stroke-width="2.5" stroke-linecap="round" stroke-linejoin="round"/>
</g>
<g opacity="0.7">
<path d="M9.23633 40.1431L9.82333 40.7301Z" fill="white"/>
<path d="M9.23633 40.1431L9.82333 40.7301" stroke="white" stroke-width="2.5" stroke-linecap="round" stroke-linejoin="round"/>
</g>
<g opacity="0.7">
<path d="M20.0587 50.964L19.4717 50.377Z" fill="white"/>
<path d="M20.0587 50.964L19.4717 50.377" stroke="white" stroke-width="2.5" stroke-linecap="round" stroke-linejoin="round"/>
</g>
<g opacity="0.7">
<path d="M45.3545 6.7959V22.0999Z" fill="white"/>
<path d="M45.3545 6.7959V22.0999" stroke="white" stroke-width="2.5" stroke-linecap="round" stroke-linejoin="round"/>
</g>
<g opacity="0.7">
<path d="M37.7012 14.448H53.0052Z" fill="white"/>
<path d="M37.7012 14.448H53.0052" stroke="white" stroke-width="2.5" stroke-linecap="round" stroke-linejoin="round"/>
</g>
<g opacity="0.7">
<path d="M39.7471 42.665H50.9591Z" fill="white"/>
<path d="M39.7471 42.665H50.9591" stroke="#A2A2A2" stroke-width="2.5" stroke-linecap="round" stroke-linejoin="round"/>
</g>
<g opacity="0.7">
<path d="M50.9591 48.4419H39.7471Z" fill="white"/>
<path d="M50.9591 48.4419H39.7471" stroke="#A2A2A2" stroke-width="2.5" stroke-linecap="round" stroke-linejoin="round"/>
</g>
</g>
</g>
</svg>
