<svg width="76" height="76" viewBox="0 0 76 76" fill="none" xmlns="http://www.w3.org/2000/svg">
<path d="M63.0865 9.57397H43.6225C41.8872 9.57397 40.4805 10.9807 40.4805 12.716V32.18C40.4805 33.9153 41.8872 35.322 43.6225 35.322H63.0865C64.8217 35.322 66.2285 33.9153 66.2285 32.18V12.716C66.2285 10.9807 64.8217 9.57397 63.0865 9.57397Z" fill="white"/>
<path d="M32.3794 40.68H12.9154C11.1802 40.68 9.77344 42.0867 9.77344 43.822V63.286C9.77344 65.0213 11.1802 66.428 12.9154 66.428H32.3794C34.1147 66.428 35.5214 65.0213 35.5214 63.286V43.822C35.5214 42.0867 34.1147 40.68 32.3794 40.68Z" fill="white"/>
<path d="M32.3794 9.57397H12.9154C11.1802 9.57397 9.77344 10.9807 9.77344 12.716V32.18C9.77344 33.9153 11.1802 35.322 12.9154 35.322H32.3794C34.1147 35.322 35.5214 33.9153 35.5214 32.18V12.716C35.5214 10.9807 34.1147 9.57397 32.3794 9.57397Z" fill="#7B68EE" stroke="white" stroke-width="2.5" stroke-linecap="round" stroke-linejoin="round"/>
<path d="M63.0865 40.68H43.6225C41.8872 40.68 40.4805 42.0867 40.4805 43.822V63.286C40.4805 65.0213 41.8872 66.428 43.6225 66.428H63.0865C64.8217 66.428 66.2285 65.0213 66.2285 63.286V43.822C66.2285 42.0867 64.8217 40.68 63.0865 40.68Z" fill="#7B68EE" stroke="white" stroke-width="2.5" stroke-linecap="round" stroke-linejoin="round"/>
<path d="M28.0583 17.037L17.2363 27.859Z" fill="white"/>
<path d="M28.0583 17.037L17.2363 27.859" stroke="white" stroke-width="2.5" stroke-linecap="round" stroke-linejoin="round"/>
<path d="M17.2363 17.037L28.0583 27.859Z" fill="white"/>
<path d="M17.2363 17.037L28.0583 27.859" stroke="white" stroke-width="2.5" stroke-linecap="round" stroke-linejoin="round"/>
<path d="M28.0583 48.143L17.2363 58.965Z" fill="white"/>
<path d="M28.0583 48.143L17.2363 58.965" stroke="#7B68EE" stroke-width="2.5" stroke-linecap="round" stroke-linejoin="round"/>
<path d="M17.2363 48.143L17.8233 48.73Z" fill="white"/>
<path d="M17.2363 48.143L17.8233 48.73" stroke="#7B68EE" stroke-width="2.5" stroke-linecap="round" stroke-linejoin="round"/>
<path d="M28.0587 58.964L27.4717 58.377Z" fill="white"/>
<path d="M28.0587 58.964L27.4717 58.377" stroke="#7B68EE" stroke-width="2.5" stroke-linecap="round" stroke-linejoin="round"/>
<path d="M53.3545 14.796V30.1Z" fill="white"/>
<path d="M53.3545 14.796V30.1" stroke="#7B68EE" stroke-width="2.5" stroke-linecap="round" stroke-linejoin="round"/>
<path d="M45.7012 22.448H61.0052Z" fill="white"/>
<path d="M45.7012 22.448H61.0052" stroke="#7B68EE" stroke-width="2.5" stroke-linecap="round" stroke-linejoin="round"/>
<path d="M47.7471 50.665H58.9591Z" fill="white"/>
<path d="M47.7471 50.665H58.9591" stroke="white" stroke-width="2.5" stroke-linecap="round" stroke-linejoin="round"/>
<path d="M58.9591 56.442H47.7471Z" fill="white"/>
<path d="M58.9591 56.442H47.7471" stroke="white" stroke-width="2.5" stroke-linecap="round" stroke-linejoin="round"/>
</svg>
