<svg width="18" height="18" viewBox="0 0 18 18" fill="none" xmlns="http://www.w3.org/2000/svg">
<path d="M12.0451 4.15706C12.0451 2.47535 10.6818 1.11206 9.00008 1.11206C7.31837 1.11206 5.95508 2.47535 5.95508 4.15706V8.82206C5.95508 10.5038 7.31837 11.8671 9.00008 11.8671C10.6818 11.8671 12.0451 10.5038 12.0451 8.82206V4.15706Z" stroke="black" stroke-linecap="round" stroke-linejoin="round"/>
<path d="M13.8463 9.18213C13.8463 10.4674 13.3357 11.7 12.4269 12.6088C11.5181 13.5176 10.2855 14.0281 9.00027 14.0281C7.71504 14.0281 6.48244 13.5176 5.57364 12.6088C4.66484 11.7 4.1543 10.4674 4.1543 9.18213" stroke="black" stroke-linecap="round" stroke-linejoin="round"/>
<path d="M9 14.0291V16.8901" stroke="black" stroke-linecap="round" stroke-linejoin="round"/>
<path d="M5.95508 16.8892H12.0451" stroke="black" stroke-linecap="round" stroke-linejoin="round"/>
</svg>
