<svg width="18" height="18" viewBox="0 0 18 18" fill="none" xmlns="http://www.w3.org/2000/svg">
<path d="M12.0451 4.157C12.0451 2.47529 10.6818 1.112 9.00008 1.112C7.31837 1.112 5.95508 2.47529 5.95508 4.157V8.822C5.95508 10.5037 7.31837 11.867 9.00008 11.867C10.6818 11.867 12.0451 10.5037 12.0451 8.822V4.157Z" stroke="white" stroke-linecap="round" stroke-linejoin="round"/>
<path d="M13.8463 9.18201C13.8463 10.4672 13.3357 11.6998 12.4269 12.6086C11.5181 13.5174 10.2855 14.028 9.00027 14.028V14.028C7.71504 14.028 6.48244 13.5174 5.57364 12.6086C4.66484 11.6998 4.1543 10.4672 4.1543 9.18201" stroke="white" stroke-linecap="round" stroke-linejoin="round"/>
<path d="M9.00049 14.029V16.89" stroke="white" stroke-linecap="round" stroke-linejoin="round"/>
<path d="M5.95508 16.889H12.0451" stroke="white" stroke-linecap="round" stroke-linejoin="round"/>
</svg>
