<svg width="40" height="40" viewBox="0 0 40 40" fill="none" xmlns="http://www.w3.org/2000/svg">
<path d="M25.0717 11.9343C25.0717 9.13365 22.8013 6.86328 20.0007 6.86328C17.2001 6.86328 14.9297 9.13365 14.9297 11.9343V19.7043C14.9297 22.5049 17.2001 24.7753 20.0007 24.7753C22.8013 24.7753 25.0717 22.5049 25.0717 19.7043V11.9343Z" stroke="#1F2041" stroke-opacity="0.5" stroke-width="2" stroke-linecap="round" stroke-linejoin="round"/>
<path d="M28.0707 20.3037C28.0708 21.3636 27.8622 22.4131 27.4567 23.3923C27.0512 24.3715 26.4568 25.2612 25.7074 26.0107C24.958 26.7602 24.0683 27.3547 23.0892 27.7603C22.11 28.1659 21.0605 28.3747 20.0007 28.3747V28.3747C18.9408 28.3747 17.8914 28.1659 16.9122 27.7603C15.933 27.3547 15.0434 26.7602 14.294 26.0107C13.5446 25.2612 12.9502 24.3715 12.5447 23.3923C12.1392 22.4131 11.9305 21.3636 11.9307 20.3037" stroke="#1F2041" stroke-opacity="0.5" stroke-width="2" stroke-linecap="round" stroke-linejoin="round"/>
<path d="M20 28.374V33.138" stroke="#1F2041" stroke-opacity="0.5" stroke-width="2" stroke-linecap="round" stroke-linejoin="round"/>
<path d="M14.9297 33.1387H25.0717" stroke="#1F2041" stroke-opacity="0.5" stroke-width="2" stroke-linecap="round" stroke-linejoin="round"/>
</svg>
