<svg width="134" height="128" viewBox="0 0 134 128" fill="none" xmlns="http://www.w3.org/2000/svg">
<path d="M71.3622 126.919C104.162 126.919 130.762 100.519 130.762 67.9194C130.762 35.3194 104.162 8.91943 71.3622 8.91943C38.5622 8.91943 11.9622 35.3194 11.9622 67.9194C11.9622 100.519 38.5622 126.919 71.3622 126.919Z" fill="#F1F3F9" stroke="#D6DCE8" stroke-width="2" stroke-miterlimit="10"/>
<path d="M116.862 60.2194V96.3194C116.862 103.819 110.762 109.919 103.162 109.919H39.7621C32.2621 109.919 26.1621 103.919 26.0621 96.4194C26.0621 96.3194 26.0621 96.3194 26.0621 96.2194V60.2194C26.0621 60.1194 26.0621 60.1194 26.0621 60.0194C26.0621 59.8194 26.0621 59.6194 26.1621 59.4194C26.2621 59.1194 26.3621 58.9194 26.4621 58.6194L43.4621 26.1194C44.0621 24.8194 45.3621 24.1194 46.7621 24.1194H96.0621C97.4621 24.1194 98.6621 24.8194 99.3621 26.1194L116.362 58.6194C116.462 58.8194 116.562 59.1194 116.662 59.4194C116.862 59.6194 116.862 59.9194 116.862 60.2194Z" fill="#F1F3F9" stroke="#D6DCE8" stroke-width="2" stroke-miterlimit="10"/>
<path d="M96.1785 10.9863C97.4835 25.2335 98.1361 28.4962 95.1813 41.399C94.2204 44.2675 93.2595 47.4092 91.2004 49.5948C88.3176 53.0097 83.1012 54.5123 78.8457 53.4195C74.453 52.3267 70.8839 48.502 70.0602 43.8577C69.3739 40.9892 70.3348 37.5742 72.8057 35.7985C75.4139 34.1593 79.1203 34.5691 81.3167 36.618C83.7876 38.667 84.7485 41.8087 84.6112 44.8139C84.4739 47.819 83.3758 50.8242 81.8658 53.4195C78.4523 59.8011 77.047 59.7777 70.0603 70.2587" stroke="#B3BCCE" stroke-width="2" stroke-miterlimit="10" stroke-dasharray="4 4"/>
<path d="M103.832 5.68011C103.31 7.58391 101.223 8.2762 99.136 7.06469C96.875 6.02626 95.3096 5.1609 95.6575 3.43017C96.1792 1.69944 98.2664 1.52637 100.701 1.3533C103.658 1.00715 104.18 3.77631 103.832 5.68011Z" fill="#DAE2EB"/>
<path d="M86.9609 7.4107C87.8305 8.96835 90.2655 10.0068 92.0048 8.44913C93.9181 6.71841 95.4834 5.5069 94.6138 3.77617C93.7441 2.21852 92.3528 2.73774 89.396 3.08388C86.961 3.6031 85.9173 5.67997 86.9609 7.4107Z" fill="#DAE2EB"/>
<path d="M94.6138 1.00722C95.8313 0.834143 97.0488 1.52644 97.3966 2.56487C97.5706 2.91102 97.7445 3.43023 97.7445 3.77638C98.0923 6.1994 97.2227 8.27627 95.8313 8.44934C94.2659 8.79549 92.7005 7.06476 92.5266 4.81482C92.5266 4.12252 92.5266 3.77638 92.5266 3.25716C92.7005 2.04565 93.3963 1.18029 94.6138 1.00722C94.6138 1.00722 94.7877 1.00722 94.6138 1.00722Z" fill="#989FB0"/>
<path d="M116.862 60.2194V100.019C116.862 105.519 112.462 109.919 106.862 109.919H36.0621C30.5621 109.919 26.0621 105.519 26.0621 100.019V60.0194C26.0621 59.8194 26.0621 59.6194 26.1621 59.4194H48.9621C52.3621 59.4194 55.1621 62.1194 55.1621 65.6194C55.1621 67.3194 55.8621 68.9194 56.9621 70.0194C58.1621 71.2194 59.5621 71.8194 61.3621 71.8194H81.6621C85.0621 71.8194 87.8621 69.1194 87.8621 65.6194C87.8621 63.9194 88.5621 62.3194 89.6621 61.2194C90.8621 60.0194 92.2621 59.4194 93.9621 59.4194H116.662C116.862 59.6194 116.862 59.9194 116.862 60.2194Z" fill="white" stroke="#D6DCE8" stroke-width="2" stroke-miterlimit="10"/>
<path d="M60.0527 85.1792C61.3198 85.1792 62.347 84.152 62.347 82.8849C62.347 81.6178 61.3198 80.5906 60.0527 80.5906C58.7856 80.5906 57.7584 81.6178 57.7584 82.8849C57.7584 84.152 58.7856 85.1792 60.0527 85.1792Z" fill="#989FB0"/>
<path d="M82.8716 85.1792C84.1387 85.1792 85.1659 84.152 85.1659 82.8849C85.1659 81.6178 84.1387 80.5906 82.8716 80.5906C81.6045 80.5906 80.5773 81.6178 80.5773 82.8849C80.5773 84.152 81.6045 85.1792 82.8716 85.1792Z" fill="#989FB0"/>
<path d="M75.1826 100.247H67.9897C66.8735 100.247 65.9434 99.3169 65.9434 98.2008C65.9434 97.0846 66.8735 96.1545 67.9897 96.1545H75.1206C76.2367 96.1545 77.1669 97.0846 77.1669 98.2008C77.2289 99.3169 76.2988 100.247 75.1826 100.247Z" fill="#989FB0"/>
<path d="M129.244 39.7193C131.509 39.7193 133.344 37.8837 133.344 35.6193C133.344 33.3549 131.509 31.5193 129.244 31.5193C126.98 31.5193 125.144 33.3549 125.144 35.6193C125.144 37.8837 126.98 39.7193 129.244 39.7193Z" fill="#F1F3F9"/>
<path d="M125.144 26.4196C126.691 26.4196 127.944 25.166 127.944 23.6196C127.944 22.0732 126.691 20.8196 125.144 20.8196C123.598 20.8196 122.344 22.0732 122.344 23.6196C122.344 25.166 123.598 26.4196 125.144 26.4196Z" fill="#F1F3F9"/>
<path d="M11.7446 35.6193C13.291 35.6193 14.5446 34.3657 14.5446 32.8193C14.5446 31.2729 13.291 30.0193 11.7446 30.0193C10.1982 30.0193 8.94458 31.2729 8.94458 32.8193C8.94458 34.3657 10.1982 35.6193 11.7446 35.6193Z" fill="#F1F3F9"/>
<path d="M5.44451 97.2196C8.31639 97.2196 10.6445 94.8915 10.6445 92.0196C10.6445 89.1477 8.31639 86.8196 5.44451 86.8196C2.57263 86.8196 0.244507 89.1477 0.244507 92.0196C0.244507 94.8915 2.57263 97.2196 5.44451 97.2196Z" fill="#F1F3F9"/>
</svg>
