<svg width="134" height="128" viewBox="0 0 134 128" fill="none" xmlns="http://www.w3.org/2000/svg">
<path d="M71.6437 126.919C104.444 126.919 131.044 100.519 131.044 67.9194C131.044 35.3194 104.444 8.91943 71.6437 8.91943C38.8437 8.91943 12.2437 35.3194 12.2437 67.9194C12.2437 100.519 38.8437 126.919 71.6437 126.919Z" fill="#1F2229" stroke="#2E333D" stroke-width="2" stroke-miterlimit="10"/>
<path d="M117.144 60.2196V96.3196C117.144 103.819 111.044 109.919 103.444 109.919H40.0437C32.5437 109.919 26.4438 103.919 26.3438 96.4196C26.3438 96.3196 26.3438 96.3196 26.3438 96.2196V60.2196C26.3438 60.1196 26.3438 60.1196 26.3438 60.0196C26.3438 59.8196 26.3437 59.6196 26.4437 59.4196C26.5437 59.1196 26.6437 58.9196 26.7437 58.6196L43.7437 26.1196C44.3437 24.8196 45.6437 24.1196 47.0437 24.1196H96.3438C97.7437 24.1196 98.9438 24.8196 99.6438 26.1196L116.644 58.6196C116.744 58.8196 116.844 59.1196 116.944 59.4196C117.144 59.6196 117.144 59.9196 117.144 60.2196Z" fill="#1F2229" stroke="#3E4450" stroke-width="2" stroke-miterlimit="10"/>
<path d="M96.46 10.9863C97.765 25.2335 98.4176 28.4962 95.4628 41.399C94.5019 44.2675 93.541 47.4092 91.4818 49.5948C88.5991 53.0097 83.3827 54.5123 79.1272 53.4195C74.7345 52.3267 71.1654 48.502 70.3417 43.8577C69.6554 40.9892 70.6163 37.5742 73.0872 35.7985C75.6954 34.1593 79.4018 34.5691 81.5981 36.618C84.0691 38.667 85.03 41.8087 84.8927 44.8139C84.7554 47.819 83.6573 50.8242 82.1472 53.4195C78.7338 59.8011 77.3285 59.7777 70.3417 70.2587" stroke="#3E4450" stroke-width="2" stroke-miterlimit="10" stroke-dasharray="4 4"/>
<path d="M104.114 5.68011C103.592 7.58391 101.505 8.2762 99.4176 7.06469C97.1565 6.02626 95.5912 5.1609 95.939 3.43017C96.4608 1.69944 98.5479 1.52637 100.983 1.3533C103.94 1.00715 104.462 3.77631 104.114 5.68011Z" fill="#949BAB"/>
<path d="M87.2428 7.41094C88.1124 8.96859 90.5474 10.007 92.2867 8.44937C94.2 6.71865 95.7653 5.50714 94.8957 3.77641C94.026 2.21876 92.6346 2.73798 89.6778 3.08412C87.2428 3.60334 86.1992 5.68021 87.2428 7.41094Z" fill="#949BAB"/>
<path d="M94.8952 1.00746C96.1128 0.834388 97.3303 1.52668 97.6781 2.56511C97.8521 2.91126 98.026 3.43047 98.026 3.77662C98.3738 6.19964 97.5042 8.27651 96.1128 8.44958C94.5474 8.79573 92.982 7.065 92.8081 4.81506C92.8081 4.12276 92.8081 3.77662 92.8081 3.2574C92.982 2.04589 93.6777 1.18053 94.8952 1.00746C94.8952 1.00746 95.0692 1.00746 94.8952 1.00746Z" fill="#3B414E"/>
<path d="M117.144 60.2194V100.019C117.144 105.519 112.744 109.919 107.144 109.919H36.3438C30.8438 109.919 26.3438 105.519 26.3438 100.019V60.0194C26.3438 59.8194 26.3437 59.6194 26.4437 59.4194H49.2437C52.6437 59.4194 55.4438 62.1194 55.4438 65.6194C55.4438 67.3194 56.1437 68.9194 57.2437 70.0194C58.4437 71.2194 59.8438 71.8194 61.6438 71.8194H81.9437C85.3437 71.8194 88.1438 69.1194 88.1438 65.6194C88.1438 63.9194 88.8437 62.3194 89.9437 61.2194C91.1437 60.0194 92.5438 59.4194 94.2438 59.4194H116.944C117.144 59.6194 117.144 59.9194 117.144 60.2194Z" fill="#2E333D" stroke="#3E4450" stroke-width="2" stroke-miterlimit="10"/>
<path d="M60.3338 85.1794C61.601 85.1794 62.6281 84.1522 62.6281 82.8851C62.6281 81.618 61.601 80.5908 60.3338 80.5908C59.0667 80.5908 58.0396 81.618 58.0396 82.8851C58.0396 84.1522 59.0667 85.1794 60.3338 85.1794Z" fill="#989FB0"/>
<path d="M83.1527 85.1794C84.4198 85.1794 85.447 84.1522 85.447 82.8851C85.447 81.618 84.4198 80.5908 83.1527 80.5908C81.8856 80.5908 80.8584 81.618 80.8584 82.8851C80.8584 84.1522 81.8856 85.1794 83.1527 85.1794Z" fill="#989FB0"/>
<path d="M75.4638 100.247H68.2709C67.1547 100.247 66.2246 99.3172 66.2246 98.201C66.2246 97.0849 67.1547 96.1548 68.2709 96.1548H75.4018C76.5179 96.1548 77.4481 97.0849 77.4481 98.201C77.5101 99.3172 76.5799 100.247 75.4638 100.247Z" fill="#989FB0"/>
<path d="M129.526 39.7195C131.79 39.7195 133.626 37.8839 133.626 35.6195C133.626 33.3552 131.79 31.5195 129.526 31.5195C127.261 31.5195 125.426 33.3552 125.426 35.6195C125.426 37.8839 127.261 39.7195 129.526 39.7195Z" fill="#3B414E"/>
<path d="M125.426 26.4198C126.972 26.4198 128.226 25.1662 128.226 23.6198C128.226 22.0734 126.972 20.8198 125.426 20.8198C123.88 20.8198 122.626 22.0734 122.626 23.6198C122.626 25.1662 123.88 26.4198 125.426 26.4198Z" fill="#3B414E"/>
<path d="M12.0261 35.6195C13.5725 35.6195 14.8261 34.3659 14.8261 32.8195C14.8261 31.2731 13.5725 30.0195 12.0261 30.0195C10.4797 30.0195 9.22607 31.2731 9.22607 32.8195C9.22607 34.3659 10.4797 35.6195 12.0261 35.6195Z" fill="#3B414E"/>
<path d="M5.72588 97.2198C8.59776 97.2198 10.9259 94.8917 10.9259 92.0198C10.9259 89.1479 8.59776 86.8198 5.72588 86.8198C2.854 86.8198 0.525879 89.1479 0.525879 92.0198C0.525879 94.8917 2.854 97.2198 5.72588 97.2198Z" fill="#3B414E"/>
</svg>
