<svg width="128" height="136" viewBox="0 0 128 136" fill="none" xmlns="http://www.w3.org/2000/svg">
<path d="M70.3001 110.058C98.3001 110.058 121 87.3581 121 59.2581C121 31.1581 98.2001 8.45813 70.3001 8.45813C42.3001 8.45813 19.6001 31.1581 19.6001 59.2581C19.6001 87.3581 42.3001 110.058 70.3001 110.058Z" fill="#2A2E37"/>
<path d="M117.7 25.9582C119.964 25.9582 121.8 24.1225 121.8 21.8582C121.8 19.5938 119.964 17.7582 117.7 17.7582C115.436 17.7582 113.6 19.5938 113.6 21.8582C113.6 24.1225 115.436 25.9582 117.7 25.9582Z" fill="#2A2E37"/>
<path d="M123.7 9.95815C125.246 9.95815 126.5 8.70455 126.5 7.15815C126.5 5.61176 125.246 4.35815 123.7 4.35815C122.154 4.35815 120.9 5.61176 120.9 7.15815C120.9 8.70455 122.154 9.95815 123.7 9.95815Z" fill="#2A2E37"/>
<path d="M22.3 25.8582C23.8464 25.8582 25.1 24.6046 25.1 23.0582C25.1 21.5118 23.8464 20.2582 22.3 20.2582C20.7536 20.2582 19.5 21.5118 19.5 23.0582C19.5 24.6046 20.7536 25.8582 22.3 25.8582Z" fill="#2A2E37"/>
<path d="M5.2 79.8581C8.07188 79.8581 10.4 77.53 10.4 74.6581C10.4 71.7863 8.07188 69.4581 5.2 69.4581C2.32812 69.4581 0 71.7863 0 74.6581C0 77.53 2.32812 79.8581 5.2 79.8581Z" fill="#2A2E37"/>
<g filter="url(#filter0_d_1:2060)">
<path d="M104.8 33.8581L105.6 98.2581C105.6 100.458 103.8 102.158 101.6 102.158H38.7998C36.5998 102.158 34.7998 100.358 34.7998 98.2581V15.4581C34.7998 13.2581 36.5998 11.5581 38.7998 11.5581H84.2998L104.8 33.8581Z" fill="url(#paint0_linear_1:2060)"/>
</g>
<path d="M65.4002 89.2581H63.1002C62.6002 89.2581 62.2002 88.7581 62.2002 88.1581C62.2002 87.5581 62.6002 87.0581 63.1002 87.0581H65.4002C65.9002 87.0581 66.3002 87.5581 66.3002 88.1581C66.3002 88.8581 65.9002 89.2581 65.4002 89.2581Z" fill="#CED7E2"/>
<path d="M58.4001 89.2581H45.0001C44.5001 89.2581 44.1001 88.7581 44.1001 88.1581C44.1001 87.5581 44.5001 87.0581 45.0001 87.0581H58.4001C58.9001 87.0581 59.3001 87.5581 59.3001 88.1581C59.3001 88.8581 58.9001 89.2581 58.4001 89.2581Z" fill="#A9AFC4"/>
<path d="M75.5001 25.0581H45.4001C44.7001 25.0581 44.1001 24.4581 44.1001 23.7581C44.1001 23.0581 44.7001 22.4581 45.4001 22.4581H75.5001C76.2001 22.4581 76.8001 23.0581 76.8001 23.7581C76.8001 24.4581 76.2001 25.0581 75.5001 25.0581Z" fill="#A9AFC4"/>
<path d="M57.0001 32.2582H45.4001C44.7001 32.2582 44.1001 31.6582 44.1001 30.9582C44.1001 30.2582 44.7001 29.6582 45.4001 29.6582H56.9001C57.6001 29.6582 58.2001 30.2582 58.2001 30.9582C58.2001 31.6582 57.6001 32.2582 57.0001 32.2582Z" fill="#A9AFC4"/>
<path d="M84.2998 11.5581V29.3581C84.2998 31.8581 86.4998 33.8581 88.9998 33.8581H104.8" fill="#3A4050"/>
<g filter="url(#filter1_i_1:2060)">
<path d="M109.6 103.658C108.6 103.658 107.6 103.258 106.8 102.358L90.1 85.6581L89.5 86.0581C84.1 90.0581 77.8 92.1581 71.4 92.1581C63.7 92.1581 56 89.0581 50.3 83.6581C44.3 77.9581 41 70.2581 41 61.8581C41 45.1581 54.6 31.5581 71.3 31.5581C82.7 31.5581 92.7 37.5581 98.1 47.7581C103.4 57.8581 102.7 69.6581 96.2 79.1581L95.8 79.7581L112.6 96.5581C114.3 98.2581 113.9 99.9581 113.6 100.858C112.8 102.458 111.2 103.658 109.6 103.658ZM71.3 39.8581C59.1 39.8581 49.3 49.7581 49.3 61.8581C49.3 75.6581 60.6 83.9581 71.6 83.9581C78.3 83.9581 84.4 80.9581 88.7 75.5581C94 68.9581 94.9 60.0581 91.2 52.3581C87.4 44.6581 79.8 39.8581 71.3 39.8581Z" fill="url(#paint1_linear_1:2060)"/>
</g>
<path d="M61.7999 65.4582C63.0999 65.4582 64.1999 64.3582 64.1999 63.0582C64.1999 61.7582 63.0999 60.6582 61.7999 60.6582C60.4999 60.6582 59.3999 61.7582 59.3999 63.0582C59.3999 64.3582 60.4999 65.4582 61.7999 65.4582Z" fill="#A9AFC4"/>
<path d="M80.1998 65.4582C81.4998 65.4582 82.5998 64.3582 82.5998 63.0582C82.5998 61.7582 81.4998 60.6582 80.1998 60.6582C78.8998 60.6582 77.7998 61.7582 77.7998 63.0582C77.7998 64.4582 78.8998 65.4582 80.1998 65.4582Z" fill="#A9AFC4"/>
<path d="M61.7062 55.118L56.4268 57.9685L57.1394 59.2884L62.4188 56.4378L61.7062 55.118Z" fill="#989FB0"/>
<path d="M79.8736 55.08L79.1611 56.4L84.4411 59.25L85.1537 57.93L79.8736 55.08Z" fill="#989FB0"/>
<path d="M71.0002 71.0582C72.5466 71.0582 73.8002 70.118 73.8002 68.9582C73.8002 67.7984 72.5466 66.8582 71.0002 66.8582C69.4538 66.8582 68.2002 67.7984 68.2002 68.9582C68.2002 70.118 69.4538 71.0582 71.0002 71.0582Z" fill="#A9AFC4"/>
<defs>
<filter id="filter0_d_1:2060" x="12.7998" y="0.558105" width="114.8" height="134.6" filterUnits="userSpaceOnUse" color-interpolation-filters="sRGB">
<feFlood flood-opacity="0" result="BackgroundImageFix"/>
<feColorMatrix in="SourceAlpha" type="matrix" values="0 0 0 0 0 0 0 0 0 0 0 0 0 0 0 0 0 0 127 0" result="hardAlpha"/>
<feOffset dy="11"/>
<feGaussianBlur stdDeviation="11"/>
<feColorMatrix type="matrix" values="0 0 0 0 0 0 0 0 0 0 0 0 0 0 0 0 0 0 0.27 0"/>
<feBlend mode="normal" in2="BackgroundImageFix" result="effect1_dropShadow_1:2060"/>
<feBlend mode="normal" in="SourceGraphic" in2="effect1_dropShadow_1:2060" result="shape"/>
</filter>
<filter id="filter1_i_1:2060" x="41" y="31.5581" width="72.8679" height="76.0999" filterUnits="userSpaceOnUse" color-interpolation-filters="sRGB">
<feFlood flood-opacity="0" result="BackgroundImageFix"/>
<feBlend mode="normal" in="SourceGraphic" in2="BackgroundImageFix" result="shape"/>
<feColorMatrix in="SourceAlpha" type="matrix" values="0 0 0 0 0 0 0 0 0 0 0 0 0 0 0 0 0 0 127 0" result="hardAlpha"/>
<feOffset dy="4"/>
<feGaussianBlur stdDeviation="2"/>
<feComposite in2="hardAlpha" operator="arithmetic" k2="-1" k3="1"/>
<feColorMatrix type="matrix" values="0 0 0 0 0 0 0 0 0 0 0 0 0 0 0 0 0 0 0.25 0"/>
<feBlend mode="normal" in2="shape" result="effect1_innerShadow_1:2060"/>
</filter>
<linearGradient id="paint0_linear_1:2060" x1="70.1767" y1="9.46245" x2="70.1767" y2="103.135" gradientUnits="userSpaceOnUse">
<stop stop-color="#5C6479"/>
<stop offset="0.9964" stop-color="#5C6479"/>
</linearGradient>
<linearGradient id="paint1_linear_1:2060" x1="57.7148" y1="50.4844" x2="88.5724" y2="103.282" gradientUnits="userSpaceOnUse">
<stop stop-color="#E3EAF7"/>
<stop offset="1" stop-color="#ADB6C8"/>
</linearGradient>
</defs>
</svg>
