<svg width="129" height="136" viewBox="0 0 129 136" fill="none" xmlns="http://www.w3.org/2000/svg">
<path d="M71.2004 110.397C99.2004 110.397 121.9 87.6969 121.9 59.5969C121.9 31.4969 99.1004 8.79688 71.2004 8.79688C43.2004 8.79688 20.5004 31.4969 20.5004 59.5969C20.5004 87.6969 43.2004 110.397 71.2004 110.397Z" fill="#EAEEF9"/>
<path d="M118.6 26.2967C120.865 26.2967 122.7 24.461 122.7 22.1967C122.7 19.9323 120.865 18.0967 118.6 18.0967C116.336 18.0967 114.5 19.9323 114.5 22.1967C114.5 24.461 116.336 26.2967 118.6 26.2967Z" fill="#EAEEF9"/>
<path d="M124.6 10.2968C126.147 10.2968 127.4 9.04317 127.4 7.49678C127.4 5.95038 126.147 4.69678 124.6 4.69678C123.054 4.69678 121.8 5.95038 121.8 7.49678C121.8 9.04317 123.054 10.2968 124.6 10.2968Z" fill="#EAEEF9"/>
<path d="M23.2004 26.1967C24.7468 26.1967 26.0004 24.9431 26.0004 23.3967C26.0004 21.8503 24.7468 20.5967 23.2004 20.5967C21.654 20.5967 20.4004 21.8503 20.4004 23.3967C20.4004 24.9431 21.654 26.1967 23.2004 26.1967Z" fill="#EAEEF9"/>
<path d="M6.10039 80.1969C8.97227 80.1969 11.3004 77.8688 11.3004 74.9969C11.3004 72.125 8.97227 69.7969 6.10039 69.7969C3.22851 69.7969 0.900391 72.125 0.900391 74.9969C0.900391 77.8688 3.22851 80.1969 6.10039 80.1969Z" fill="#EAEEF9"/>
<g filter="url(#filter0_d_1:352)">
<path d="M105.7 34.1967L106.5 98.5967C106.5 100.797 104.7 102.497 102.5 102.497H39.7004C37.5004 102.497 35.7004 100.697 35.7004 98.5967V15.7967C35.7004 13.5967 37.5004 11.8967 39.7004 11.8967H85.2004L105.7 34.1967Z" fill="url(#paint0_linear_1:352)"/>
</g>
<path d="M66.3003 89.5967H64.0003C63.5003 89.5967 63.1003 89.0967 63.1003 88.4967C63.1003 87.8967 63.5003 87.3967 64.0003 87.3967H66.3003C66.8003 87.3967 67.2003 87.8967 67.2003 88.4967C67.2003 89.1967 66.8003 89.5967 66.3003 89.5967Z" fill="#CED7E2"/>
<path d="M59.3004 89.5967H45.9004C45.4004 89.5967 45.0004 89.0967 45.0004 88.4967C45.0004 87.8967 45.4004 87.3967 45.9004 87.3967H59.3004C59.8004 87.3967 60.2004 87.8967 60.2004 88.4967C60.2004 89.1967 59.8004 89.5967 59.3004 89.5967Z" fill="#D5DDEA"/>
<path d="M76.4004 25.3969H46.3004C45.6004 25.3969 45.0004 24.7969 45.0004 24.0969C45.0004 23.3969 45.6004 22.7969 46.3004 22.7969H76.4004C77.1004 22.7969 77.7004 23.3969 77.7004 24.0969C77.7004 24.7969 77.1004 25.3969 76.4004 25.3969Z" fill="#D5DDEA"/>
<path d="M57.9004 32.5968H46.3004C45.6004 32.5968 45.0004 31.9968 45.0004 31.2968C45.0004 30.5968 45.6004 29.9968 46.3004 29.9968H57.8004C58.5004 29.9968 59.1004 30.5968 59.1004 31.2968C59.1004 31.9968 58.5004 32.5968 57.9004 32.5968Z" fill="#D5DDEA"/>
<path d="M85.2004 11.8967V29.6967C85.2004 32.1967 87.4004 34.1967 89.9004 34.1967H105.7" fill="#D5DDEA"/>
<path d="M110.5 103.997C109.5 103.997 108.5 103.597 107.7 102.697L91.0004 85.9967L90.4004 86.3967C85.0004 90.3967 78.7004 92.4967 72.3004 92.4967C64.6004 92.4967 56.9004 89.3967 51.2004 83.9967C45.2004 78.2967 41.9004 70.5967 41.9004 62.1967C41.9004 45.4967 55.5004 31.8967 72.2004 31.8967C83.6004 31.8967 93.6004 37.8967 99.0004 48.0967C104.3 58.1967 103.6 69.9967 97.1004 79.4967L96.7004 80.0967L113.5 96.8967C115.2 98.5967 114.8 100.297 114.5 101.197C113.7 102.797 112.1 103.997 110.5 103.997ZM72.2004 40.1967C60.0004 40.1967 50.2004 50.0967 50.2004 62.1967C50.2004 75.9967 61.5004 84.2967 72.5004 84.2967C79.2004 84.2967 85.3004 81.2967 89.6004 75.8967C94.9004 69.2967 95.8004 60.3967 92.1004 52.6967C88.3004 44.9967 80.7004 40.1967 72.2004 40.1967Z" fill="#989FB0"/>
<path d="M62.7004 65.7968C64.0004 65.7968 65.1004 64.6968 65.1004 63.3968C65.1004 62.0968 64.0004 60.9968 62.7004 60.9968C61.4004 60.9968 60.3004 62.0968 60.3004 63.3968C60.3004 64.6968 61.4004 65.7968 62.7004 65.7968Z" fill="#989FB0"/>
<path d="M81.1004 65.7968C82.4004 65.7968 83.5004 64.6968 83.5004 63.3968C83.5004 62.0968 82.4004 60.9968 81.1004 60.9968C79.8004 60.9968 78.7004 62.0968 78.7004 63.3968C78.7004 64.7968 79.8004 65.7968 81.1004 65.7968Z" fill="#989FB0"/>
<path d="M62.6066 55.4566L57.3271 58.3071L58.0398 59.627L63.3192 56.7764L62.6066 55.4566Z" fill="#989FB0"/>
<path d="M80.774 55.4188L80.0615 56.7388L85.3415 59.5888L86.054 58.2688L80.774 55.4188Z" fill="#989FB0"/>
<path d="M71.9003 71.3968C73.4467 71.3968 74.7003 70.4566 74.7003 69.2968C74.7003 68.137 73.4467 67.1968 71.9003 67.1968C70.3539 67.1968 69.1003 68.137 69.1003 69.2968C69.1003 70.4566 70.3539 71.3968 71.9003 71.3968Z" fill="#989FB0"/>
<defs>
<filter id="filter0_d_1:352" x="13.7004" y="0.896698" width="114.8" height="134.6" filterUnits="userSpaceOnUse" color-interpolation-filters="sRGB">
<feFlood flood-opacity="0" result="BackgroundImageFix"/>
<feColorMatrix in="SourceAlpha" type="matrix" values="0 0 0 0 0 0 0 0 0 0 0 0 0 0 0 0 0 0 127 0" result="hardAlpha"/>
<feOffset dy="11"/>
<feGaussianBlur stdDeviation="11"/>
<feColorMatrix type="matrix" values="0 0 0 0 0.397708 0 0 0 0 0.47749 0 0 0 0 0.575 0 0 0 0.27 0"/>
<feBlend mode="normal" in2="BackgroundImageFix" result="effect1_dropShadow_1:352"/>
<feBlend mode="normal" in="SourceGraphic" in2="effect1_dropShadow_1:352" result="shape"/>
</filter>
<linearGradient id="paint0_linear_1:352" x1="71.0774" y1="9.80106" x2="71.0774" y2="103.473" gradientUnits="userSpaceOnUse">
<stop stop-color="#FDFEFF"/>
<stop offset="0.9964" stop-color="#ECF0F5"/>
</linearGradient>
</defs>
</svg>
