<svg width="149" height="136" viewBox="0 0 149 136" fill="none" xmlns="http://www.w3.org/2000/svg">
<path d="M71.6833 105.835C99.6833 105.835 122.383 83.1349 122.383 55.0349C122.383 26.9349 99.5833 4.23486 71.6833 4.23486C43.6833 4.23486 20.9833 26.9349 20.9833 55.0349C20.9833 83.1349 43.6833 105.835 71.6833 105.835Z" fill="#EAEEF9"/>
<path d="M119.083 21.7347C121.348 21.7347 123.183 19.899 123.183 17.6347C123.183 15.3703 121.348 13.5347 119.083 13.5347C116.819 13.5347 114.983 15.3703 114.983 17.6347C114.983 19.899 116.819 21.7347 119.083 21.7347Z" fill="#E7EBF6"/>
<path d="M125.083 5.73477C126.63 5.73477 127.883 4.48116 127.883 2.93477C127.883 1.38837 126.63 0.134766 125.083 0.134766C123.537 0.134766 122.283 1.38837 122.283 2.93477C122.283 4.48116 123.537 5.73477 125.083 5.73477Z" fill="#E7EBF6"/>
<path d="M23.6833 21.6347C25.2297 21.6347 26.4833 20.3811 26.4833 18.8347C26.4833 17.2883 25.2297 16.0347 23.6833 16.0347C22.1369 16.0347 20.8833 17.2883 20.8833 18.8347C20.8833 20.3811 22.1369 21.6347 23.6833 21.6347Z" fill="#E7EBF6"/>
<path d="M6.5833 75.6349C9.45518 75.6349 11.7833 73.3067 11.7833 70.4349C11.7833 67.563 9.45518 65.2349 6.5833 65.2349C3.71142 65.2349 1.3833 67.563 1.3833 70.4349C1.3833 73.3067 3.71142 75.6349 6.5833 75.6349Z" fill="#E7EBF6"/>
<g filter="url(#filter0_d_1:269)">
<path d="M86.3833 28.0347L101.683 83.0347C102.183 84.9347 101.083 86.8347 99.1833 87.3347L45.2833 101.635C43.3833 102.135 41.4833 101.035 40.9833 99.1347L22.1833 28.1347C21.6833 26.2347 22.7833 24.3347 24.6833 23.8347L63.6833 13.5347L86.3833 28.0347Z" fill="url(#paint0_linear_1:269)"/>
</g>
<path d="M85.5833 62.8346L56.4833 70.5346L53.2833 71.3346L43.5833 73.9346C43.1833 74.0346 42.8833 74.5346 43.0833 75.0346C43.1833 75.5346 43.6833 75.8346 44.0833 75.7346L53.7833 73.1346L56.9833 72.3346L86.0833 64.6346C86.4833 64.5346 86.7833 64.0346 86.5833 63.5346C86.4833 63.0346 85.9833 62.7346 85.5833 62.8346Z" fill="#D5DDEA"/>
<path d="M83.6832 56.0346L72.8832 58.8346L69.1832 59.8346L41.8832 67.1346C41.4832 67.2346 41.1832 67.7346 41.3832 68.2346C41.4832 68.7346 41.9832 69.0346 42.3832 68.9346L69.7832 61.6346L73.4832 60.6346L84.2832 57.8346C84.6832 57.7346 84.9832 57.2346 84.7832 56.7346C84.5832 56.3346 84.0832 55.9346 83.6832 56.0346Z" fill="#D5DDEA"/>
<path d="M82.0833 49.1346L79.2833 49.8346L76.4833 50.5346L39.9833 60.2346C39.5833 60.3346 39.2833 60.8346 39.4833 61.3346C39.5833 61.8346 40.0833 62.1346 40.4833 62.0346L76.9833 52.3346L80.0833 51.5346L82.5833 50.8346C82.9833 50.7346 83.2833 50.2346 83.0833 49.7346C82.9833 49.3346 82.5833 49.0346 82.0833 49.1346Z" fill="#D5DDEA"/>
<path d="M65.1833 84.5347L63.1833 85.0347C62.7833 85.1347 62.2833 84.8347 62.1833 84.3347C62.0833 83.8347 62.2833 83.3347 62.6833 83.2347L64.6833 82.7347C65.0833 82.6347 65.5833 82.9347 65.6833 83.4347C65.7833 84.0347 65.5833 84.4347 65.1833 84.5347Z" fill="#CED7E2"/>
<path d="M59.0833 86.1346L47.5833 89.1346C47.1833 89.2346 46.6833 88.9346 46.5833 88.4346C46.4833 87.9346 46.6833 87.4346 47.0833 87.3346L58.5833 84.3346C58.9833 84.2346 59.4833 84.5346 59.5833 85.0346C59.7833 85.5346 59.5833 86.0346 59.0833 86.1346Z" fill="#D5DDEA"/>
<path d="M80.6834 42.2348L71.5834 44.6348L69.3834 45.2348L38.2834 53.4348C37.8834 53.5348 37.5834 54.0348 37.7834 54.5348C37.8834 55.0348 38.3834 55.3348 38.7834 55.2348L69.7834 47.1348L71.9834 46.5348L80.9834 44.1348C81.4834 44.0348 81.6834 43.5348 81.5834 42.9348C81.5834 42.5348 81.0834 42.1348 80.6834 42.2348Z" fill="#D5DDEA"/>
<path d="M59.1833 27.1346L33.3833 33.9346C32.7833 34.1346 32.1833 33.7346 31.9833 33.1346C31.7833 32.5346 32.1833 31.9346 32.7833 31.7346L58.5833 24.9346C59.1833 24.7346 59.7833 25.1346 59.9833 25.7346C60.1833 26.3346 59.7833 26.9346 59.1833 27.1346Z" fill="#D5DDEA"/>
<path d="M44.9834 37.5347L35.0834 40.1347C34.4834 40.3347 33.8834 39.9347 33.6834 39.3347C33.4834 38.7347 33.8834 38.1347 34.4834 37.9347L44.2834 35.3347C44.8834 35.1347 45.4834 35.5347 45.6834 36.1347C45.8834 36.7347 45.4834 37.3347 44.9834 37.5347Z" fill="#D5DDEA"/>
<path d="M63.6833 13.5347L67.6834 28.7347C68.2834 30.8347 70.5834 32.1347 72.6834 31.5347L86.3834 28.0347" fill="#D5DDEA"/>
<g filter="url(#filter1_d_1:269)">
<path d="M126.783 43.5348L117.583 99.9348C117.283 101.835 115.383 103.135 113.483 102.735L58.6833 93.1348C56.7833 92.8348 55.4833 90.9348 55.7833 89.0348L68.4833 16.7348C68.7833 14.8348 70.6833 13.5348 72.5833 13.9348L112.383 20.9348L126.783 43.5348Z" fill="url(#paint1_linear_1:269)"/>
</g>
<path d="M111.483 74.8348L81.8833 69.6348L78.6833 69.0348L68.7833 67.3348C68.3833 67.2348 67.8833 67.6348 67.8833 68.1348C67.7833 68.6348 68.0833 69.1348 68.4833 69.2348L78.3833 70.9348L81.5833 71.5348L111.183 76.7348C111.583 76.8348 112.083 76.4348 112.083 75.9348C112.183 75.4348 111.983 74.9348 111.483 74.8348Z" fill="#CED7E2"/>
<path d="M112.683 67.9349L101.683 66.0349L97.9832 65.3349L70.0832 60.4349C69.6832 60.3349 69.1832 60.7349 69.1832 61.2349C69.0832 61.7349 69.3832 62.2349 69.7832 62.3349L97.6832 67.2349L101.383 67.9349L112.383 69.8349C112.783 69.9349 113.283 69.5349 113.283 69.0349C113.383 68.5349 113.083 68.0349 112.683 67.9349Z" fill="#CED7E2"/>
<path d="M114.083 60.9349L111.183 60.4349L108.283 59.9349L71.0832 53.4349C70.6832 53.3349 70.1832 53.7349 70.1832 54.2349C70.0832 54.7349 70.3832 55.2349 70.7832 55.3349L107.983 61.8349L111.183 62.4349L113.683 62.8349C114.083 62.9349 114.583 62.5349 114.583 62.0349C114.783 61.5349 114.583 61.0349 114.083 60.9349Z" fill="#D5DDEA"/>
<path d="M83.8833 86.0348L81.8833 85.7348C81.4833 85.6348 81.1833 85.1348 81.2833 84.6348C81.3833 84.1348 81.7833 83.7348 82.1833 83.8348L84.1833 84.1348C84.5833 84.2348 84.8833 84.7348 84.7833 85.2348C84.6833 85.8348 84.2833 86.0348 83.8833 86.0348Z" fill="#CED7E2"/>
<path d="M77.7833 84.9347L66.0832 82.9347C65.6832 82.8347 65.3832 82.3347 65.4832 81.8347C65.5832 81.3347 65.9833 80.9347 66.3833 81.0347L78.0832 83.0347C78.4832 83.1347 78.7833 83.6347 78.6833 84.1347C78.5833 84.7347 78.1833 85.0347 77.7833 84.9347Z" fill="#E3EAF2"/>
<path d="M115.683 54.1347L106.383 52.5347L104.083 52.1347L72.3833 46.5347C71.9833 46.4347 71.4832 46.8347 71.4832 47.3347C71.3832 47.8347 71.6832 48.3347 72.0832 48.4347L103.783 54.0347L106.083 54.4347L115.283 56.0347C115.783 56.1347 116.183 55.7347 116.283 55.2347C116.383 54.7347 116.083 54.2347 115.683 54.1347Z" fill="#D5DDEA"/>
<path d="M102.583 31.4347L76.2832 26.8347C75.6832 26.7347 75.2832 26.1347 75.3832 25.5347C75.4832 24.9347 76.0832 24.5347 76.6832 24.6347L102.983 29.2347C103.583 29.3347 103.983 29.9347 103.883 30.5347C103.783 31.0347 103.183 31.5347 102.583 31.4347Z" fill="#D5DDEA"/>
<path d="M85.2833 34.8349L75.1833 33.0349C74.5833 32.9349 74.1833 32.3349 74.2833 31.7349C74.3833 31.1349 74.9833 30.7349 75.5833 30.8349L85.5833 32.6349C86.1833 32.7349 86.5833 33.3349 86.4833 33.9349C86.3833 34.5349 85.7833 34.9349 85.2833 34.8349Z" fill="#D5DDEA"/>
<path d="M112.283 20.9348L109.583 36.4348C109.183 38.6348 110.783 40.7348 112.983 41.1348L126.783 43.5348" fill="#D5DDEA"/>
<path d="M89.0833 94.6347C101.399 94.6347 111.383 84.6506 111.383 72.3347C111.383 60.0187 101.399 50.0347 89.0833 50.0347C76.7674 50.0347 66.7833 60.0187 66.7833 72.3347C66.7833 84.6506 76.7674 94.6347 89.0833 94.6347Z" fill="white"/>
<path d="M86.9833 75.9348C86.8833 75.5348 86.8833 75.1348 86.8833 74.6348C86.8833 72.9348 87.5833 71.4348 89.3833 70.1348L90.8833 69.0348C91.7833 68.3348 92.1833 67.5348 92.1833 66.5348C92.1833 65.1348 91.1833 63.7348 89.0833 63.7348C86.8833 63.7348 85.8833 65.5348 85.8833 67.2348C85.8833 67.6348 85.8833 67.9348 85.9833 68.2348L81.9833 68.1348C81.8833 67.7348 81.7833 67.2348 81.7833 66.7348C81.7833 63.3348 84.2833 60.1348 88.9833 60.1348C93.7833 60.1348 96.3833 63.2348 96.3833 66.3348C96.3833 68.8348 95.0833 70.5348 93.2833 71.8348L91.9833 72.7348C90.8833 73.5348 90.2833 74.5348 90.2833 75.7348V75.9348H86.9833ZM88.6833 77.9348C90.0833 77.9348 91.1833 79.0348 91.1833 80.4348C91.1833 81.8348 90.0833 82.9348 88.6833 82.9348C87.2833 82.9348 86.1833 81.8348 86.1833 80.4348C86.2833 79.1348 87.2833 77.9348 88.6833 77.9348Z" fill="#989FB0"/>
<path d="M122.463 106.958C121.597 106.958 120.732 106.612 120.039 105.833L105.584 91.3778L105.064 91.724C100.39 95.1863 94.937 97.0041 89.3972 97.0041C82.7322 97.0041 76.0671 94.3208 71.1332 89.6466C65.9397 84.7127 63.0833 78.0477 63.0833 70.7767C63.0833 56.3213 74.8553 44.5493 89.3106 44.5493C99.1784 44.5493 107.834 49.7429 112.508 58.5719C117.096 67.3143 116.49 77.5283 110.864 85.7514L110.518 86.2708L125.06 100.813C126.531 102.284 126.185 103.756 125.925 104.535C125.233 105.92 123.848 106.958 122.463 106.958ZM89.3106 51.7337C78.7504 51.7337 70.2677 60.3031 70.2677 70.7767C70.2677 82.7218 80.0488 89.9062 89.5703 89.9062C95.3698 89.9062 100.65 87.3095 104.372 82.6353C108.96 76.9224 109.739 69.2186 106.536 62.5536C103.247 55.8885 96.6682 51.7337 89.3106 51.7337Z" fill="#989FB0"/>
<defs>
<filter id="filter0_d_1:269" x="0.0628662" y="2.5347" width="123.741" height="132.221" filterUnits="userSpaceOnUse" color-interpolation-filters="sRGB">
<feFlood flood-opacity="0" result="BackgroundImageFix"/>
<feColorMatrix in="SourceAlpha" type="matrix" values="0 0 0 0 0 0 0 0 0 0 0 0 0 0 0 0 0 0 127 0" result="hardAlpha"/>
<feOffset dy="11"/>
<feGaussianBlur stdDeviation="11"/>
<feColorMatrix type="matrix" values="0 0 0 0 0.397708 0 0 0 0 0.47749 0 0 0 0 0.575 0 0 0 0.27 0"/>
<feBlend mode="normal" in2="BackgroundImageFix" result="effect1_dropShadow_1:269"/>
<feBlend mode="normal" in="SourceGraphic" in2="effect1_dropShadow_1:269" result="shape"/>
</filter>
<filter id="filter1_d_1:269" x="33.7402" y="2.86231" width="115.043" height="132.945" filterUnits="userSpaceOnUse" color-interpolation-filters="sRGB">
<feFlood flood-opacity="0" result="BackgroundImageFix"/>
<feColorMatrix in="SourceAlpha" type="matrix" values="0 0 0 0 0 0 0 0 0 0 0 0 0 0 0 0 0 0 127 0" result="hardAlpha"/>
<feOffset dy="11"/>
<feGaussianBlur stdDeviation="11"/>
<feColorMatrix type="matrix" values="0 0 0 0 0.397708 0 0 0 0 0.47749 0 0 0 0 0.575 0 0 0 0.27 0"/>
<feBlend mode="normal" in2="BackgroundImageFix" result="effect1_dropShadow_1:269"/>
<feBlend mode="normal" in="SourceGraphic" in2="effect1_dropShadow_1:269" result="shape"/>
</filter>
<linearGradient id="paint0_linear_1:269" x1="61.9073" y1="11.494" x2="61.9073" y2="102.706" gradientUnits="userSpaceOnUse">
<stop stop-color="#FDFEFF"/>
<stop offset="0.9964" stop-color="#ECF0F5"/>
</linearGradient>
<linearGradient id="paint1_linear_1:269" x1="91.2386" y1="11.8049" x2="91.2386" y2="103.766" gradientUnits="userSpaceOnUse">
<stop stop-color="#FDFEFF"/>
<stop offset="0.9964" stop-color="#ECF0F5"/>
</linearGradient>
</defs>
</svg>
