<svg width="150" height="137" viewBox="0 0 150 137" fill="none" xmlns="http://www.w3.org/2000/svg">
<path d="M72.3001 106.496C100.3 106.496 123 83.7961 123 55.6961C123 27.5961 100.2 4.89612 72.3001 4.89612C44.3001 4.89612 21.6001 27.5961 21.6001 55.6961C21.6001 83.7961 44.3001 106.496 72.3001 106.496Z" fill="#2A2E37"/>
<path d="M119.7 22.3962C121.964 22.3962 123.8 20.5605 123.8 18.2962C123.8 16.0318 121.964 14.1962 119.7 14.1962C117.436 14.1962 115.6 16.0318 115.6 18.2962C115.6 20.5605 117.436 22.3962 119.7 22.3962Z" fill="#2A2E37"/>
<path d="M125.7 6.39614C127.246 6.39614 128.5 5.14254 128.5 3.59614C128.5 2.04975 127.246 0.796143 125.7 0.796143C124.154 0.796143 122.9 2.04975 122.9 3.59614C122.9 5.14254 124.154 6.39614 125.7 6.39614Z" fill="#2A2E37"/>
<path d="M24.3 22.2962C25.8464 22.2962 27.1 21.0426 27.1 19.4962C27.1 17.9498 25.8464 16.6962 24.3 16.6962C22.7536 16.6962 21.5 17.9498 21.5 19.4962C21.5 21.0426 22.7536 22.2962 24.3 22.2962Z" fill="#2A2E37"/>
<path d="M7.2 76.2961C10.0719 76.2961 12.4 73.968 12.4 71.0961C12.4 68.2242 10.0719 65.8961 7.2 65.8961C4.32812 65.8961 2 68.2242 2 71.0961C2 73.968 4.32812 76.2961 7.2 76.2961Z" fill="#2A2E37"/>
<g filter="url(#filter0_d_1:1976)">
<path d="M87.0001 28.6962L102.3 83.6962C102.8 85.5962 101.7 87.4962 99.8001 87.9962L45.9001 102.296C44.0001 102.796 42.1001 101.696 41.6001 99.7962L22.8001 28.7962C22.3001 26.8962 23.4001 24.9962 25.3001 24.4962L64.3001 14.1962L87.0001 28.6962Z" fill="url(#paint0_linear_1:1976)"/>
</g>
<path d="M86.2004 63.4962L57.1004 71.1962L53.9004 71.9962L44.2004 74.5962C43.8004 74.6962 43.5004 75.1962 43.7004 75.6962C43.8004 76.1962 44.3004 76.4962 44.7004 76.3962L54.4004 73.7962L57.6004 72.9962L86.7004 65.2962C87.1004 65.1962 87.4004 64.6962 87.2004 64.1962C87.1004 63.6962 86.6004 63.3962 86.2004 63.4962Z" fill="#A9AFC3"/>
<path d="M84.3002 56.6962L73.5002 59.4962L69.8002 60.4962L42.5002 67.7962C42.1002 67.8962 41.8002 68.3962 42.0002 68.8962C42.1002 69.3962 42.6002 69.6962 43.0002 69.5962L70.4002 62.2962L74.1002 61.2962L84.9002 58.4962C85.3002 58.3962 85.6002 57.8962 85.4002 57.3962C85.2002 56.9962 84.7002 56.5962 84.3002 56.6962Z" fill="#A9AFC3"/>
<path d="M82.7003 49.7961L79.9003 50.4961L77.1003 51.1961L40.6003 60.8961C40.2003 60.9961 39.9003 61.4961 40.1003 61.9961C40.2003 62.4961 40.7003 62.7961 41.1003 62.6961L77.6003 52.9961L80.7003 52.1961L83.2003 51.4961C83.6003 51.3961 83.9003 50.8961 83.7003 50.3961C83.6003 49.9961 83.2003 49.6961 82.7003 49.7961Z" fill="#A9AFC3"/>
<path d="M65.7999 85.1961L63.7999 85.6961C63.3999 85.7961 62.8999 85.4961 62.7999 84.9961C62.6999 84.4961 62.8999 83.9961 63.2999 83.8961L65.2999 83.3961C65.6999 83.2961 66.1999 83.5961 66.2999 84.0961C66.3999 84.6961 66.1999 85.0961 65.7999 85.1961Z" fill="#A9AFC3"/>
<path d="M59.7003 86.7962L48.2003 89.7962C47.8003 89.8962 47.3003 89.5962 47.2003 89.0962C47.1003 88.5962 47.3003 88.0962 47.7003 87.9962L59.2003 84.9962C59.6003 84.8962 60.1003 85.1962 60.2003 85.6962C60.4003 86.1962 60.2003 86.6962 59.7003 86.7962Z" fill="#A9AFC3"/>
<path d="M81.3001 42.8962L72.2001 45.2962L70.0001 45.8962L38.9001 54.0962C38.5001 54.1962 38.2001 54.6962 38.4001 55.1962C38.5001 55.6962 39.0001 55.9962 39.4001 55.8962L70.4001 47.7962L72.6001 47.1962L81.6001 44.7962C82.1001 44.6962 82.3001 44.1962 82.2001 43.5962C82.2001 43.1962 81.7001 42.7962 81.3001 42.8962Z" fill="#A9AFC3"/>
<path d="M59.7999 27.7961L33.9999 34.5961C33.3999 34.7961 32.7999 34.3961 32.5999 33.7961C32.3999 33.1961 32.7999 32.5961 33.3999 32.3961L59.1999 25.5961C59.7999 25.3961 60.3999 25.7961 60.5999 26.3961C60.7999 26.9961 60.3999 27.5961 59.7999 27.7961Z" fill="#A9AFC3"/>
<path d="M45.6001 38.1961L35.7001 40.7961C35.1001 40.9961 34.5001 40.5961 34.3001 39.9961C34.1001 39.3961 34.5001 38.7961 35.1001 38.5961L44.9001 35.9961C45.5001 35.7961 46.1001 36.1961 46.3001 36.7961C46.5001 37.3961 46.1001 37.9961 45.6001 38.1961Z" fill="#A9AFC3"/>
<path d="M64.3003 14.1962L68.3003 29.3962C68.9003 31.4962 71.2003 32.7962 73.3003 32.1962L87.0003 28.6962" fill="#3A4050"/>
<g filter="url(#filter1_d_1:1976)">
<path d="M127.4 44.1962L118.2 100.596C117.9 102.496 116 103.796 114.1 103.396L59.3 93.7962C57.4 93.4962 56.1 91.5962 56.4 89.6962L69.1 17.3962C69.4 15.4962 71.3 14.1962 73.2 14.5962L113 21.5962L127.4 44.1962Z" fill="url(#paint1_linear_1:1976)"/>
</g>
<path d="M112.1 75.4961L82.4999 70.2961L79.2999 69.6961L69.3999 67.9961C68.9999 67.8961 68.4999 68.2961 68.4999 68.7961C68.3999 69.2961 68.6998 69.7961 69.0998 69.8961L78.9999 71.5961L82.1998 72.1961L111.8 77.3961C112.2 77.4961 112.7 77.0961 112.7 76.5961C112.8 76.0961 112.6 75.5961 112.1 75.4961Z" fill="#A9AFC3"/>
<path d="M113.3 68.5961L102.3 66.6961L98.6001 65.9961L70.7001 61.0961C70.3001 60.9961 69.8001 61.3961 69.8001 61.8961C69.7001 62.3961 70.0001 62.8961 70.4001 62.9961L98.3001 67.8961L102 68.5961L113 70.4961C113.4 70.5961 113.9 70.1961 113.9 69.6961C114 69.1961 113.7 68.6961 113.3 68.5961Z" fill="#A9AFC3"/>
<path d="M114.7 61.5961L111.8 61.0961L108.9 60.5961L71.7001 54.0961C71.3001 53.9961 70.8001 54.3961 70.8001 54.8961C70.7001 55.3961 71.0001 55.8961 71.4001 55.9961L108.6 62.4961L111.8 63.0961L114.3 63.4961C114.7 63.5961 115.2 63.1961 115.2 62.6961C115.4 62.1961 115.2 61.6961 114.7 61.5961Z" fill="#A9AFC3"/>
<path d="M84.5002 86.6961L82.5002 86.3961C82.1002 86.2961 81.8002 85.7961 81.9002 85.2961C82.0002 84.7961 82.4002 84.3961 82.8002 84.4961L84.8002 84.7961C85.2002 84.8961 85.5002 85.3961 85.4002 85.8961C85.3002 86.4961 84.9002 86.6961 84.5002 86.6961Z" fill="#A9AFC3"/>
<path d="M78.4 85.5961L66.6999 83.5961C66.2999 83.4961 65.9999 82.9961 66.0999 82.4961C66.1999 81.9961 66.5999 81.5961 66.9999 81.6961L78.6999 83.6961C79.0999 83.7961 79.4 84.2961 79.3 84.7961C79.2 85.3961 78.8 85.6961 78.4 85.5961Z" fill="#E3EAF2"/>
<path d="M116.3 54.7961L107 53.1961L104.7 52.7961L72.9999 47.1961C72.5999 47.0961 72.0999 47.4961 72.0999 47.9961C71.9999 48.4961 72.2999 48.9961 72.6999 49.0961L104.4 54.6961L106.7 55.0961L115.9 56.6961C116.4 56.7961 116.8 56.3961 116.9 55.8961C117 55.3961 116.7 54.8961 116.3 54.7961Z" fill="#A9AFC3"/>
<path d="M103.2 32.0961L76.9002 27.4961C76.3002 27.3961 75.9002 26.7961 76.0002 26.1961C76.1002 25.5961 76.7002 25.1961 77.3002 25.2961L103.6 29.8961C104.2 29.9961 104.6 30.5961 104.5 31.1961C104.4 31.6961 103.8 32.1961 103.2 32.0961Z" fill="#A9AFC3"/>
<path d="M85.9001 35.4962L75.8001 33.6963C75.2001 33.5963 74.8001 32.9961 74.9001 32.3961C75.0001 31.7961 75.6001 31.3961 76.2001 31.4961L86.2001 33.2962C86.8001 33.3962 87.2001 33.9961 87.1001 34.5961C87.0001 35.1961 86.4001 35.5962 85.9001 35.4962Z" fill="#A9AFC3"/>
<path d="M112.9 21.5962L110.2 37.0962C109.8 39.2962 111.4 41.3962 113.6 41.7962L127.4 44.1962" fill="#3A4050"/>
<path d="M89.6999 95.2962C102.016 95.2962 112 85.3121 112 72.9962C112 60.6802 102.016 50.6962 89.6999 50.6962C77.3839 50.6962 67.3999 60.6802 67.3999 72.9962C67.3999 85.3121 77.3839 95.2962 89.6999 95.2962Z" fill="#5C6479"/>
<path d="M87.5999 76.5961C87.4999 76.1961 87.4999 75.7961 87.4999 75.2961C87.4999 73.5961 88.1999 72.0961 89.9999 70.7961L91.4999 69.6961C92.3999 68.9961 92.7999 68.1961 92.7999 67.1961C92.7999 65.7961 91.7999 64.3961 89.6999 64.3961C87.4999 64.3961 86.4999 66.1961 86.4999 67.8961C86.4999 68.2961 86.4999 68.5961 86.5999 68.8961L82.5999 68.7961C82.4999 68.3961 82.3999 67.8961 82.3999 67.3961C82.3999 63.9961 84.8999 60.7961 89.5999 60.7961C94.3999 60.7961 96.9999 63.8961 96.9999 66.9961C96.9999 69.4961 95.6999 71.1961 93.8999 72.4961L92.5999 73.3961C91.4999 74.1961 90.8999 75.1961 90.8999 76.3961V76.5961H87.5999ZM89.2999 78.5961C90.6999 78.5961 91.7999 79.6961 91.7999 81.0961C91.7999 82.4961 90.6999 83.5961 89.2999 83.5961C87.8999 83.5961 86.7999 82.4961 86.7999 81.0961C86.8999 79.7961 87.8999 78.5961 89.2999 78.5961Z" fill="#3A4050"/>
<g filter="url(#filter2_i_1:1976)">
<path d="M123.08 107.62C122.214 107.62 121.349 107.274 120.656 106.494L106.201 92.0391L105.681 92.3854C101.007 95.8477 95.5539 97.6655 90.0141 97.6655C83.3491 97.6655 76.684 94.9821 71.7502 90.308C66.5566 85.3741 63.7002 78.709 63.7002 71.4381C63.7002 56.9827 75.4722 45.2107 89.9276 45.2107C99.7953 45.2107 108.451 50.4042 113.125 59.2333C117.713 67.9757 117.107 78.1897 111.481 86.4128L111.135 86.9321L125.676 101.474C127.148 102.946 126.802 104.417 126.542 105.196C125.85 106.581 124.465 107.62 123.08 107.62ZM89.9276 52.3951C79.3674 52.3951 70.8846 60.9644 70.8846 71.4381C70.8846 83.3832 80.6658 90.5676 90.1873 90.5676C95.9867 90.5676 101.267 87.9709 104.989 83.2967C109.576 77.5838 110.356 69.88 107.153 63.215C103.864 56.5499 97.2851 52.3951 89.9276 52.3951Z" fill="url(#paint2_linear_1:1976)"/>
</g>
<defs>
<filter id="filter0_d_1:1976" x="0.679688" y="3.19617" width="123.741" height="132.22" filterUnits="userSpaceOnUse" color-interpolation-filters="sRGB">
<feFlood flood-opacity="0" result="BackgroundImageFix"/>
<feColorMatrix in="SourceAlpha" type="matrix" values="0 0 0 0 0 0 0 0 0 0 0 0 0 0 0 0 0 0 127 0" result="hardAlpha"/>
<feOffset dy="11"/>
<feGaussianBlur stdDeviation="11"/>
<feColorMatrix type="matrix" values="0 0 0 0 0 0 0 0 0 0 0 0 0 0 0 0 0 0 0.27 0"/>
<feBlend mode="normal" in2="BackgroundImageFix" result="effect1_dropShadow_1:1976"/>
<feBlend mode="normal" in="SourceGraphic" in2="effect1_dropShadow_1:1976" result="shape"/>
</filter>
<filter id="filter1_d_1:1976" x="34.3569" y="3.52368" width="115.043" height="132.945" filterUnits="userSpaceOnUse" color-interpolation-filters="sRGB">
<feFlood flood-opacity="0" result="BackgroundImageFix"/>
<feColorMatrix in="SourceAlpha" type="matrix" values="0 0 0 0 0 0 0 0 0 0 0 0 0 0 0 0 0 0 127 0" result="hardAlpha"/>
<feOffset dy="11"/>
<feGaussianBlur stdDeviation="11"/>
<feColorMatrix type="matrix" values="0 0 0 0 0 0 0 0 0 0 0 0 0 0 0 0 0 0 0.27 0"/>
<feBlend mode="normal" in2="BackgroundImageFix" result="effect1_dropShadow_1:1976"/>
<feBlend mode="normal" in="SourceGraphic" in2="effect1_dropShadow_1:1976" result="shape"/>
</filter>
<filter id="filter2_i_1:1976" x="63.7002" y="45.2107" width="63.0739" height="66.4093" filterUnits="userSpaceOnUse" color-interpolation-filters="sRGB">
<feFlood flood-opacity="0" result="BackgroundImageFix"/>
<feBlend mode="normal" in="SourceGraphic" in2="BackgroundImageFix" result="shape"/>
<feColorMatrix in="SourceAlpha" type="matrix" values="0 0 0 0 0 0 0 0 0 0 0 0 0 0 0 0 0 0 127 0" result="hardAlpha"/>
<feOffset dy="4"/>
<feGaussianBlur stdDeviation="2"/>
<feComposite in2="hardAlpha" operator="arithmetic" k2="-1" k3="1"/>
<feColorMatrix type="matrix" values="0 0 0 0 0 0 0 0 0 0 0 0 0 0 0 0 0 0 0.25 0"/>
<feBlend mode="normal" in2="shape" result="effect1_innerShadow_1:1976"/>
</filter>
<linearGradient id="paint0_linear_1:1976" x1="62.5241" y1="12.1555" x2="62.5241" y2="103.368" gradientUnits="userSpaceOnUse">
<stop stop-color="#5C6479"/>
<stop offset="0.9964" stop-color="#5C6479"/>
</linearGradient>
<linearGradient id="paint1_linear_1:1976" x1="91.8553" y1="12.4663" x2="91.8553" y2="104.428" gradientUnits="userSpaceOnUse">
<stop stop-color="#5C6479"/>
<stop offset="0.9964" stop-color="#5C6479"/>
</linearGradient>
<linearGradient id="paint2_linear_1:1976" x1="78.1684" y1="61.5931" x2="104.878" y2="107.294" gradientUnits="userSpaceOnUse">
<stop stop-color="#E3EAF7"/>
<stop offset="1" stop-color="#ADB6C8"/>
</linearGradient>
</defs>
</svg>
