<svg xmlns="http://www.w3.org/2000/svg" width="18" height="18" viewBox="0 0 18 18">
    <defs>
        <style>
            .cls-1{fill:none}.cls-2{fill:#a2a2a2}
        </style>
    </defs>
    <g id="그룹_457502" transform="translate(-1428 -76)">
        <path id="사각형_348274" d="M0 0H18V18H0z" class="cls-1" transform="translate(1428 76)"/>
        <g id="그룹_457500" transform="translate(1428 76)">
            <path id="패스_843952" d="M0 0h18v18H0z" class="cls-1"/>
            <g id="그룹_457510">
                <path id="패스_843962" d="M17.583 0H0v17.583h17.583z" class="cls-1"/>
                <path id="패스_843963" d="M13.9 13.257H3.465V4.465h11.723v9.806zm-.507 1.465l3.264 2.564V3.733A.733.733 0 0 0 15.92 3H2.733A.733.733 0 0 0 2 3.733V13.99a.733.733 0 0 0 .733.733z" class="cls-2" transform="translate(-0.535 -0.802)"/>
                <g id="그룹_457509" transform="translate(4.842 5.304)">
                    <path id="사각형_348402" d="M0 0H7.899V1.128H0z" class="cls-2" transform="translate(0)"/>
                    <path id="사각형_348403" d="M0 0H7.899V1.128H0z" class="cls-2" transform="translate(0 2.257)"/>
                    <path id="사각형_348404" d="M0 0H5.642V1.128H0z" class="cls-2" transform="translate(0 4.514)"/>
                </g>
            </g>
        </g>
    </g>
</svg>
