<svg xmlns="http://www.w3.org/2000/svg" width="18" height="18" viewBox="0 0 18 18">
    <defs>
        <style>
            .cls-1{fill:none}.cls-3{fill:#fff}
        </style>
    </defs>
    <g id="그룹_457504" transform="translate(-1428 -76)">
        <path id="사각형_348274" d="M0 0H18V18H0z" class="cls-1" transform="translate(1428 76)"/>
        <g id="그룹_457500" transform="translate(1428 76)">
            <path id="패스_843952" d="M0 0h18v18H0z" class="cls-1"/>
            <g id="그룹_457511" transform="translate(0.417 0.208)">
                <path id="패스_843962" d="M17.583 0H0v17.583h17.583z" class="cls-1"/>
                <path id="패스_843965" fill="#a2a2a2" d="M13.713 15.056l3.357 2.637V3.754A.754.754 0 0 0 16.317 3H2.754A.754.754 0 0 0 2 3.754V14.3a.754.754 0 0 0 .754.754z" transform="translate(-0.743 -1.207)"/>
                <g id="그룹_457509" transform="translate(4.842 5.304)">
                    <path id="사각형_348402" d="M0 0H7.899V1.128H0z" class="cls-3" transform="translate(0)"/>
                    <path id="사각형_348403" d="M0 0H7.899V1.128H0z" class="cls-3" transform="translate(0 2.257)"/>
                    <path id="사각형_348404" d="M0 0H5.642V1.128H0z" class="cls-3" transform="translate(0 4.514)"/>
                </g>
            </g>
        </g>
    </g>
</svg>
