<svg xmlns="http://www.w3.org/2000/svg" width="24" height="24">
    <g data-name="그룹 457316">
        <path data-name="패스 843751" d="M0 0h24v24H0z" style="fill:none"/>
        <g data-name="그룹 457317">
            <path data-name="패스 843754" d="m5822.328 57.143 7.188 6.582a.463.463 0 0 1 .151.342V80.4a.463.463 0 0 1-.463.463h-19.187a.463.463 0 0 1-.463-.463V57.484a.464.464 0 0 1 .463-.463h12a.463.463 0 0 1 .311.122z" style="fill:#f4d276" transform="translate(-5807.609 -56.943)"/>
            <path data-name="패스 843755" d="M5843.47 63.768 5841.535 62l-5.251-4.809a.472.472 0 0 0-.133-.082v6.6a.2.2 0 0 0 .2.2h7.222a.441.441 0 0 0-.103-.141z" transform="translate(-5821.564 -56.987)" style="fill:#ffe6a3"/>
        </g>
    </g>
</svg>
