<svg width="24" height="24" viewBox="0 0 24 24" fill="none" xmlns="http://www.w3.org/2000/svg">
<path d="M15.5952 11.9998L9.20117 7.73682V16.2628L15.5952 11.9998ZM18.5772 12.4158L7.97717 19.4818C7.90189 19.5317 7.81452 19.5602 7.72433 19.5644C7.63414 19.5685 7.54451 19.5482 7.46493 19.5056C7.38536 19.4629 7.31883 19.3995 7.27239 19.3221C7.22595 19.2447 7.20134 19.1561 7.20117 19.0658V4.93382C7.20122 4.84338 7.2258 4.75465 7.27229 4.67707C7.31878 4.59949 7.38544 4.53597 7.46517 4.49328C7.5449 4.45059 7.63472 4.43033 7.72506 4.43465C7.8154 4.43897 7.90288 4.46772 7.97817 4.51782L18.5782 11.5838C18.6467 11.6295 18.7028 11.6913 18.7416 11.7639C18.7805 11.8365 18.8008 11.9175 18.8008 11.9998C18.8008 12.0821 18.7805 12.1632 18.7416 12.2357C18.7028 12.3083 18.6467 12.3702 18.5782 12.4158H18.5772Z" fill="#A2A2A2"/>
</svg>
