<svg xmlns="http://www.w3.org/2000/svg" width="49" height="49">
    <g data-name="그룹 457438" transform="translate(-.189 -.189)">
        <circle data-name="타원 413" cx="24.5" cy="24.5" r="24.5" transform="translate(.189 .189)" style="fill:#f9f9f9"/>
        <g data-name="photo-camera-interface-symbol-for-button (1)" transform="translate(10.917 12.228)">
            <circle data-name="타원 77" cx="9.074" cy="9.074" r="9.074" transform="translate(4.537 3.574)" style="fill:#fff"/>
            <path data-name="패스 3997" d="M18.089 16.342a4.411 4.411 0 1 1-4.412-4.412 4.416 4.416 0 0 1 4.412 4.412zm9.266-6.264v12.53a3.025 3.025 0 0 1-3.025 3.025H3.025A3.025 3.025 0 0 1 0 22.608v-12.53a3.025 3.025 0 0 1 3.025-3.025h3.72V6.007A2.646 2.646 0 0 1 9.392 3.36h8.571a2.646 2.646 0 0 1 2.647 2.647v1.045h3.72a3.026 3.026 0 0 1 3.024 3.026zm-7 6.264a6.68 6.68 0 1 0-6.68 6.68 6.688 6.688 0 0 0 6.682-6.68z" transform="translate(0 -3.36)" style="fill:#a2a2a2"/>
        </g>
    </g>
</svg>
