<svg width="18" height="18" viewBox="0 0 18 18" fill="none" xmlns="http://www.w3.org/2000/svg">
<path d="M17.0555 4.54004H7.89636L7.28552 3.29309C7.25652 3.20755 7.20139 3.13316 7.12805 3.08044C7.05471 3.02773 6.96666 2.99925 6.87634 2.99902H2.05749C1.9671 2.99895 1.87894 3.02732 1.80554 3.08008C1.73214 3.13284 1.67704 3.20739 1.64831 3.29309L1.0155 4.58398C1.01157 4.58999 1.00822 4.59639 1.00549 4.60303L1.00036 4.61401C0.999879 4.61967 0.999879 4.62533 1.00036 4.63098V15.7831C1.00036 15.8072 1.00991 15.8303 1.02697 15.8474C1.04404 15.8645 1.06729 15.874 1.09143 15.874H17.0555C17.0797 15.874 17.1027 15.8645 17.1197 15.8474C17.1368 15.8303 17.1464 15.8072 17.1464 15.7831V4.63098C17.1464 4.60685 17.1368 4.58372 17.1197 4.56665C17.1027 4.54958 17.0797 4.54004 17.0555 4.54004V4.54004Z" fill="#7B68EE"/>
<path d="M16.621 5.29785H1.525C1.23505 5.29785 1 5.5329 1 5.82285V15.3499C1 15.6398 1.23505 15.8749 1.525 15.8749H16.621C16.9109 15.8749 17.146 15.6398 17.146 15.3499V5.82285C17.146 5.5329 16.9109 5.29785 16.621 5.29785Z" fill="#AEA1FB"/>
</svg>
