<svg width="18" height="18" viewBox="0 0 18 18" fill="none" xmlns="http://www.w3.org/2000/svg">
<path d="M9 18C13.9706 18 18 13.9706 18 9C18 4.02944 13.9706 0 9 0C4.02944 0 0 4.02944 0 9C0 13.9706 4.02944 18 9 18Z" fill="white"/>
<path d="M9 17.5C13.6944 17.5 17.5 13.6944 17.5 9C17.5 4.30558 13.6944 0.5 9 0.5C4.30558 0.5 0.5 4.30558 0.5 9C0.5 13.6944 4.30558 17.5 9 17.5Z" stroke="#E62E00"/>
<path d="M12 5H6C5.44772 5 5 5.44772 5 6V12C5 12.5523 5.44772 13 6 13H12C12.5523 13 13 12.5523 13 12V6C13 5.44772 12.5523 5 12 5Z" fill="#E62E00"/>
</svg>
