<svg xmlns="http://www.w3.org/2000/svg" width="76" height="76">
    <defs>
        <style>
            .cls-2{fill:#2f3437}.cls-3{fill:#2e3336}.cls-4{fill:#363c3e}
        </style>
    </defs>
    <g id="그룹_457461" data-name="그룹 457461" transform="translate(-1302 -577)">
        <g id="그룹_457464" data-name="그룹 457464" transform="translate(871.935 475.251)">
            <path id="패스_843927" data-name="패스 843927" class="cls-2" d="M484.1 162.231h-37.71c-3 0-5.253-1.146-6.352-3.229s-.762-4.6.943-7.068l14.334-20.824v-15.57a1.314 1.314 0 1 1 2.628 0v15.978a1.313 1.313 0 0 1-.231.745l-14.567 21.163c-.652.944-1.617 2.761-.78 4.352s2.881 1.826 4.025 1.826h37.71c1.144 0 3.192-.237 4.028-1.826s-.128-3.408-.78-4.352l-14.471-21.015a1.313 1.313 0 0 1-.231-.745v-16.54a1.314 1.314 0 1 1 2.628 0v16.132l14.242 20.679c1.7 2.472 2.036 4.983.937 7.066s-3.348 3.228-6.353 3.228z" transform="translate(0 7.718)"/>
            <path id="패스_843928" data-name="패스 843928" class="cls-3" d="M451.771 130.644h20.6l8.015 12.33h-36.854z" transform="translate(3.102 20.38)"/>
            <path id="패스_843929" data-name="패스 843929" class="cls-2" d="M467.472 118.469H450.96a4.1 4.1 0 0 1 0-8.151h16.512a4.095 4.095 0 0 1 0 8.151zm-16.512-5.523c-.578 0-1.065.662-1.065 1.446s.487 1.449 1.065 1.449h16.512c.58 0 1.071-.664 1.071-1.449s-.491-1.446-1.071-1.446z" transform="translate(5.91 5.091)"/>
            <path id="패스_843930" data-name="패스 843930" class="cls-3" d="M474.28 116.743a9.743 9.743 0 1 1-9.742-9.743 9.74 9.74 0 0 1 9.742 9.743z" transform="translate(11.573 2.595)"/>
            <path id="패스_843931" data-name="패스 843931" class="cls-3" d="M476.379 108.842a5.292 5.292 0 1 1-5.292-5.293 5.294 5.294 0 0 1 5.292 5.293z" transform="translate(18.846 .751)"/>
            <path id="패스_843932" data-name="패스 843932" class="cls-4" d="M457.668 116.854a.829.829 0 0 1-.827-.774 6.633 6.633 0 0 1 1.628-5.239 7.363 7.363 0 0 1 5.011-1.989.827.827 0 0 1 .81.846.835.835 0 0 1-.843.81 5.787 5.787 0 0 0-3.794 1.492 5.072 5.072 0 0 0-1.16 3.977.826.826 0 0 1-.773.88z" transform="translate(13.096 3.989)"/>
            <path id="패스_843933" data-name="패스 843933" class="cls-4" d="M467.919 109.355a.823.823 0 0 1-.825-.774 3.579 3.579 0 0 1 .9-2.83 3.844 3.844 0 0 1 2.716-1.083.828.828 0 0 1 .81.845.857.857 0 0 1-.839.811 2.279 2.279 0 0 0-1.5.58 2.03 2.03 0 0 0-.433 1.572.826.826 0 0 1-.773.878z" transform="translate(19.816 1.591)"/>
        </g>
    </g>
</svg>
