<svg width="57" height="67" viewBox="0 0 57 67" fill="none" xmlns="http://www.w3.org/2000/svg">
<g opacity="0.7">
<g opacity="0.7">
<path opacity="0.7" d="M45.0346 66.2H7.32459C4.32459 66.2 2.07157 65.054 0.972571 62.971C-0.126429 60.888 0.210564 58.371 1.91556 55.903L16.2496 35.079V19.509C16.2496 19.1605 16.388 18.8263 16.6344 18.5799C16.8809 18.3334 17.2151 18.195 17.5636 18.195C17.9121 18.195 18.2463 18.3334 18.4927 18.5799C18.7391 18.8263 18.8776 19.1605 18.8776 19.509V35.487C18.8778 35.753 18.7973 36.0128 18.6466 36.232L4.07957 57.395C3.42757 58.339 2.46257 60.156 3.29957 61.747C4.13657 63.338 6.18059 63.573 7.32459 63.573H45.0346C46.1786 63.573 48.2266 63.336 49.0626 61.747C49.8986 60.158 48.9346 58.339 48.2826 57.395L33.8116 36.38C33.6609 36.1608 33.5803 35.901 33.5806 35.635V19.095C33.5806 18.7465 33.719 18.4123 33.9654 18.1659C34.2119 17.9194 34.5461 17.781 34.8946 17.781C35.2431 17.781 35.5773 17.9194 35.8237 18.1659C36.0701 18.4123 36.2086 18.7465 36.2086 19.095V35.227L50.4506 55.906C52.1506 58.378 52.4866 60.889 51.3876 62.972C50.2886 65.055 48.0396 66.2 45.0346 66.2V66.2Z" fill="#A2A2A2"/>
<path opacity="0.7" d="M15.8073 47.2749H36.4073L44.4223 59.6049H7.56836L15.8073 47.2749Z" fill="#C5C5C5"/>
<path opacity="0.7" d="M34.3168 19.8109H17.8048C16.8009 19.7007 15.8731 19.2238 15.1991 18.4717C14.5251 17.7197 14.1523 16.7453 14.1523 15.7354C14.1523 14.7255 14.5251 13.7511 15.1991 12.9991C15.8731 12.247 16.8009 11.7702 17.8048 11.6599H34.3168C35.3289 11.759 36.2679 12.2312 36.9511 12.9846C37.6342 13.7379 38.0126 14.7185 38.0126 15.7354C38.0126 16.7524 37.6342 17.7329 36.9511 18.4863C36.2679 19.2396 35.3289 19.7118 34.3168 19.8109V19.8109ZM17.8048 14.2879C17.2268 14.2879 16.7398 14.9499 16.7398 15.7339C16.7398 16.5179 17.2268 17.1829 17.8048 17.1829H34.3168C34.8968 17.1829 35.3878 16.5189 35.3878 15.7339C35.3878 14.9489 34.8968 14.2879 34.3168 14.2879H17.8048Z" fill="#A2A2A2"/>
<path opacity="0.7" d="M46.7878 15.5889C46.7878 17.516 46.2163 19.3997 45.1457 21.002C44.0751 22.6042 42.5534 23.853 40.773 24.5904C38.9927 25.3278 37.0336 25.5207 35.1436 25.1447C33.2537 24.7687 31.5176 23.8406 30.1551 22.4779C28.7925 21.1153 27.8647 19.3791 27.4888 17.4891C27.113 15.5991 27.3061 13.6401 28.0437 11.8598C28.7813 10.0795 30.0302 8.5579 31.6326 7.48745C33.2349 6.417 35.1187 5.84575 37.0458 5.84595C38.3253 5.84568 39.5923 6.09752 40.7744 6.58707C41.9565 7.07663 43.0307 7.7943 43.9354 8.69908C44.84 9.60387 45.5576 10.678 46.047 11.8602C46.5364 13.0424 46.7882 14.3094 46.7878 15.5889V15.5889Z" fill="#C5C5C5"/>
<path opacity="0.7" d="M56.1592 5.84402C56.159 6.89064 55.8485 7.9137 55.2669 8.78383C54.6852 9.65396 53.8587 10.3321 52.8917 10.7325C51.9247 11.1329 50.8606 11.2375 49.8342 11.0332C48.8077 10.8289 47.8648 10.3248 47.1248 9.58468C46.3848 8.84454 45.8809 7.90159 45.6768 6.87507C45.4727 5.84855 45.5776 4.78456 45.9781 3.81763C46.3787 2.8507 47.057 2.02427 47.9272 1.44282C48.7975 0.861369 49.8206 0.551025 50.8672 0.551025C52.2707 0.551556 53.6166 1.10941 54.609 2.10195C55.6013 3.0945 56.1589 4.44049 56.1592 5.84402V5.84402Z" fill="#C5C5C5"/>
<path opacity="0.7" d="M31.6981 17.094C31.4878 17.094 31.2854 17.014 31.1318 16.8703C30.9783 16.7266 30.8851 16.5299 30.8711 16.32C30.7531 15.3812 30.8373 14.428 31.1181 13.5243C31.3989 12.6207 31.8698 11.7877 32.4991 11.081C33.8579 9.80838 35.6484 9.09768 37.5101 9.09204C37.6189 9.09425 37.7262 9.1179 37.8258 9.16164C37.9254 9.20538 38.0155 9.26836 38.0907 9.34695C38.166 9.42554 38.225 9.5182 38.2643 9.61963C38.3037 9.72106 38.3227 9.82927 38.3201 9.93804C38.3136 10.1565 38.2217 10.3637 38.064 10.5152C37.9064 10.6666 37.6957 10.7502 37.4771 10.748C36.0733 10.7687 34.725 11.299 33.6832 12.24C33.2208 12.784 32.8785 13.4194 32.6786 14.1047C32.4787 14.79 32.4257 15.5098 32.5231 16.217C32.5305 16.3256 32.5162 16.4346 32.4813 16.5377C32.4464 16.6408 32.3914 16.736 32.3196 16.8177C32.2478 16.8995 32.1605 16.9663 32.0627 17.0142C31.965 17.0622 31.8588 17.0903 31.7501 17.097L31.6981 17.094Z" fill="#F5F5F5"/>
<path opacity="0.7" d="M48.67 7.19699C48.4597 7.19788 48.2569 7.11815 48.1035 6.9742C47.95 6.83025 47.8576 6.63301 47.845 6.42299C47.7837 5.91434 47.8324 5.39847 47.9877 4.91024C48.1429 4.42201 48.4012 3.9728 48.745 3.59299C49.4724 2.88831 50.4484 2.49913 51.461 2.50999C51.6805 2.51471 51.8891 2.60637 52.041 2.76482C52.1928 2.92327 52.2756 3.13555 52.271 3.35499C52.2594 3.57114 52.1665 3.7749 52.0109 3.92534C51.8553 4.07578 51.6484 4.16175 51.432 4.16599C50.8782 4.17061 50.3449 4.3768 49.932 4.74599C49.7551 4.96385 49.6253 5.21603 49.5508 5.4866C49.4762 5.75718 49.4586 6.04026 49.499 6.31799C49.5061 6.42643 49.4917 6.5352 49.4566 6.63805C49.4215 6.74091 49.3665 6.83584 49.2947 6.9174C49.2229 6.99897 49.1357 7.06555 49.0381 7.11336C48.9406 7.16116 48.8345 7.18924 48.726 7.19598L48.67 7.19699Z" fill="#F5F5F5"/>
</g>
</g>
</svg>
