<svg width="56" height="66" viewBox="0 0 56 66" fill="none" xmlns="http://www.w3.org/2000/svg">
<path d="M44.6967 65.649H6.9867C3.9867 65.649 1.73368 64.503 0.634681 62.42C-0.464319 60.337 -0.127326 57.82 1.57767 55.352L15.9117 34.528V18.958C15.9117 18.6095 16.0501 18.2753 16.2965 18.0288C16.543 17.7824 16.8772 17.644 17.2257 17.644C17.5742 17.644 17.9084 17.7824 18.1548 18.0288C18.4012 18.2753 18.5397 18.6095 18.5397 18.958V34.936C18.5399 35.202 18.4594 35.4618 18.3087 35.681L3.74168 56.844C3.08968 57.788 2.12468 59.605 2.96168 61.196C3.79868 62.787 5.8427 63.022 6.9867 63.022H44.6967C45.8407 63.022 47.8887 62.785 48.7247 61.196C49.5607 59.607 48.5967 57.788 47.9447 56.844L33.4737 35.829C33.323 35.6098 33.2424 35.35 33.2427 35.084V18.544C33.2427 18.1955 33.3811 17.8613 33.6275 17.6148C33.874 17.3684 34.2082 17.23 34.5567 17.23C34.9052 17.23 35.2394 17.3684 35.4858 17.6148C35.7322 17.8613 35.8707 18.1955 35.8707 18.544V34.676L50.1127 55.355C51.8127 57.827 52.1487 60.338 51.0497 62.421C49.9507 64.504 47.7017 65.649 44.6967 65.649V65.649Z" fill="black"/>
<path d="M15.4695 46.7241H36.0695L44.0844 59.0541H7.23047L15.4695 46.7241Z" fill="#7B68EE"/>
<path d="M33.9789 19.2599H17.4669C16.463 19.1496 15.5352 18.6728 14.8612 17.9207C14.1872 17.1687 13.8145 16.1943 13.8145 15.1844C13.8145 14.1745 14.1872 13.2001 14.8612 12.4481C15.5352 11.696 16.463 11.2191 17.4669 11.1089H33.9789C34.991 11.208 35.93 11.6802 36.6132 12.4335C37.2963 13.1869 37.6747 14.1674 37.6747 15.1844C37.6747 16.2013 37.2963 17.1819 36.6132 17.9352C35.93 18.6886 34.991 19.1608 33.9789 19.2599V19.2599ZM17.4669 13.7369C16.8889 13.7369 16.4019 14.3989 16.4019 15.1829C16.4019 15.9669 16.8889 16.6319 17.4669 16.6319H33.9789C34.5589 16.6319 35.0499 15.9679 35.0499 15.1829C35.0499 14.3979 34.5589 13.7369 33.9789 13.7369H17.4669Z" fill="black"/>
<path d="M46.4499 15.0379C46.4499 16.9649 45.8784 18.8487 44.8078 20.4509C43.7372 22.0532 42.2155 23.302 40.4351 24.0394C38.6548 24.7768 36.6957 24.9697 34.8057 24.5936C32.9158 24.2176 31.1797 23.2896 29.8172 21.9269C28.4546 20.5642 27.5268 18.8281 27.151 16.9381C26.7751 15.048 26.9682 13.089 27.7058 11.3087C28.4434 9.52846 29.6923 8.00688 31.2947 6.93642C32.8971 5.86597 34.7808 5.29472 36.7079 5.29492C37.9874 5.29466 39.2544 5.5465 40.4365 6.03605C41.6186 6.5256 42.6928 7.24327 43.5975 8.14806C44.5022 9.05284 45.2197 10.127 45.7091 11.3092C46.1986 12.4914 46.4503 13.7584 46.4499 15.0379V15.0379Z" fill="#7B68EE"/>
<path d="M55.8213 5.293C55.8211 6.33962 55.5106 7.36267 54.929 8.2328C54.3474 9.10294 53.5208 9.78107 52.5538 10.1815C51.5868 10.5818 50.5227 10.6865 49.4963 10.4822C48.4698 10.2779 47.5269 9.77379 46.7869 9.03365C46.0469 8.29351 45.543 7.35056 45.3389 6.32404C45.1348 5.29752 45.2397 4.23353 45.6402 3.2666C46.0408 2.29967 46.7191 1.47324 47.5893 0.891792C48.4596 0.310344 49.4827 1.86861e-08 50.5293 0C51.9328 0.000530212 53.2787 0.558382 54.2711 1.55093C55.2634 2.54347 55.821 3.88946 55.8213 5.293V5.293Z" fill="#7B68EE"/>
<path d="M31.3602 16.543C31.1499 16.543 30.9475 16.463 30.7939 16.3193C30.6404 16.1756 30.5472 15.9789 30.5332 15.769C30.4152 14.8302 30.4994 13.8769 30.7802 12.9733C31.061 12.0697 31.5319 11.2366 32.1612 10.53C33.52 9.25735 35.3105 8.54666 37.1723 8.54102C37.281 8.54322 37.3883 8.56688 37.4879 8.61062C37.5876 8.65436 37.6776 8.71733 37.7528 8.79592C37.8281 8.87451 37.8871 8.96717 37.9264 9.0686C37.9658 9.17004 37.9848 9.27824 37.9823 9.38702C37.9757 9.6055 37.8838 9.81272 37.7262 9.96416C37.5685 10.1156 37.3578 10.1992 37.1392 10.197C35.7355 10.2177 34.3871 10.7479 33.3453 11.689C32.8829 12.233 32.5406 12.8684 32.3407 13.5537C32.1408 14.239 32.0878 14.9588 32.1853 15.666C32.1926 15.7746 32.1783 15.8836 32.1434 15.9867C32.1085 16.0898 32.0535 16.1849 31.9817 16.2667C31.9099 16.3485 31.8226 16.4153 31.7248 16.4632C31.6271 16.5111 31.5209 16.5393 31.4122 16.546L31.3602 16.543Z" fill="#F5F5F5"/>
<path d="M48.3321 6.64597C48.1218 6.64685 47.919 6.56712 47.7656 6.42317C47.6122 6.27922 47.5197 6.08198 47.5071 5.87196C47.4459 5.36332 47.4945 4.84744 47.6498 4.35921C47.805 3.87098 48.0633 3.42178 48.4071 3.04196C49.1345 2.33729 50.1105 1.9481 51.1231 1.95896C51.3426 1.96369 51.5512 2.05535 51.7031 2.2138C51.8549 2.37225 51.9377 2.58452 51.9331 2.80396C51.9216 3.02011 51.8286 3.22387 51.673 3.37431C51.5174 3.52475 51.3106 3.61072 51.0941 3.61496C50.5403 3.61959 50.007 3.82577 49.5941 4.19496C49.4172 4.41282 49.2874 4.665 49.2129 4.93558C49.1384 5.20615 49.1207 5.48924 49.1611 5.76696C49.1682 5.8754 49.1538 5.98417 49.1187 6.08703C49.0837 6.18989 49.0287 6.28482 48.9568 6.36638C48.885 6.44794 48.7978 6.51453 48.7003 6.56233C48.6027 6.61014 48.4966 6.63821 48.3881 6.64496L48.3321 6.64597Z" fill="#F5F5F5"/>
</svg>
