<svg width="76" height="76" viewBox="0 0 76 76" fill="none" xmlns="http://www.w3.org/2000/svg">
<path d="M54.0346 68.2H16.3246C13.3246 68.2 11.0716 67.054 9.97257 64.971C8.87357 62.888 9.21056 60.371 10.9156 57.903L25.2496 37.079V21.509C25.2496 21.1605 25.388 20.8263 25.6344 20.5799C25.8809 20.3334 26.2151 20.195 26.5636 20.195C26.9121 20.195 27.2463 20.3334 27.4927 20.5799C27.7391 20.8263 27.8776 21.1605 27.8776 21.509V37.487C27.8778 37.753 27.7973 38.0128 27.6466 38.232L13.0796 59.395C12.4276 60.339 11.4626 62.156 12.2996 63.747C13.1366 65.338 15.1806 65.573 16.3246 65.573H54.0346C55.1786 65.573 57.2266 65.336 58.0626 63.747C58.8986 62.158 57.9346 60.339 57.2826 59.395L42.8116 38.38C42.6609 38.1608 42.5803 37.901 42.5806 37.635V21.095C42.5806 20.7465 42.719 20.4123 42.9654 20.1659C43.2119 19.9194 43.5461 19.781 43.8946 19.781C44.2431 19.781 44.5773 19.9194 44.8237 20.1659C45.0701 20.4123 45.2086 20.7465 45.2086 21.095V37.227L59.4506 57.906C61.1506 60.378 61.4866 62.889 60.3876 64.972C59.2886 67.055 57.0396 68.2 54.0346 68.2V68.2Z" fill="white"/>
<path d="M24.8073 49.275H45.4073L53.4223 61.605H16.5684L24.8073 49.275Z" fill="#7B68EE"/>
<path d="M43.3168 21.811H26.8048C25.8009 21.7008 24.8731 21.2239 24.1991 20.4719C23.5251 19.7198 23.1523 18.7454 23.1523 17.7355C23.1523 16.7256 23.5251 15.7513 24.1991 14.9992C24.8731 14.2471 25.8009 13.7703 26.8048 13.66H43.3168C44.3289 13.7592 45.2679 14.2313 45.9511 14.9847C46.6342 15.738 47.0126 16.7186 47.0126 17.7355C47.0126 18.7525 46.6342 19.7331 45.9511 20.4864C45.2679 21.2397 44.3289 21.7119 43.3168 21.811V21.811ZM26.8048 16.288C26.2268 16.288 25.7398 16.95 25.7398 17.734C25.7398 18.518 26.2268 19.183 26.8048 19.183H43.3168C43.8968 19.183 44.3878 18.519 44.3878 17.734C44.3878 16.949 43.8968 16.288 43.3168 16.288H26.8048Z" fill="white"/>
<path d="M55.7878 17.589C55.7878 19.516 55.2163 21.3998 54.1457 23.002C53.0751 24.6043 51.5534 25.8531 49.773 26.5905C47.9927 27.3279 46.0336 27.5207 44.1436 27.1447C42.2537 26.7687 40.5176 25.8407 39.1551 24.478C37.7925 23.1153 36.8647 21.3792 36.4888 19.4892C36.113 17.5991 36.3061 15.6401 37.0437 13.8598C37.7813 12.0795 39.0302 10.558 40.6326 9.48751C42.2349 8.41706 44.1187 7.84581 46.0458 7.84601C47.3253 7.84575 48.5923 8.09758 49.7744 8.58714C50.9565 9.07669 52.0307 9.79436 52.9354 10.6991C53.84 11.6039 54.5576 12.6781 55.047 13.8603C55.5364 15.0425 55.7882 16.3095 55.7878 17.589V17.589Z" fill="#7B68EE"/>
<path d="M65.1592 7.84402C65.159 8.89064 64.8485 9.9137 64.2669 10.7838C63.6852 11.654 62.8587 12.3321 61.8917 12.7325C60.9247 13.1329 59.8606 13.2375 58.8342 13.0332C57.8077 12.8289 56.8648 12.3248 56.1248 11.5847C55.3848 10.8445 54.8809 9.90159 54.6768 8.87507C54.4727 7.84855 54.5776 6.78456 54.9781 5.81763C55.3787 4.8507 56.057 4.02427 56.9272 3.44282C57.7975 2.86137 58.8206 2.55103 59.8672 2.55103C61.2707 2.55156 62.6166 3.10941 63.609 4.10195C64.6013 5.0945 65.1589 6.44049 65.1592 7.84402V7.84402Z" fill="#7B68EE"/>
<path d="M40.6981 19.094C40.4878 19.094 40.2854 19.014 40.1318 18.8703C39.9783 18.7266 39.8851 18.5299 39.8711 18.32C39.7531 17.3812 39.8373 16.428 40.1181 15.5243C40.3989 14.6207 40.8698 13.7877 41.4991 13.081C42.8579 11.8084 44.6484 11.0977 46.5101 11.092C46.6189 11.0942 46.7262 11.1179 46.8258 11.1616C46.9254 11.2054 47.0155 11.2684 47.0907 11.3469C47.166 11.4255 47.225 11.5182 47.2643 11.6196C47.3037 11.7211 47.3227 11.8293 47.3201 11.938C47.3136 12.1565 47.2217 12.3637 47.064 12.5152C46.9064 12.6666 46.6957 12.7502 46.4771 12.748C45.0733 12.7687 43.725 13.299 42.6832 14.24C42.2208 14.784 41.8785 15.4194 41.6786 16.1047C41.4787 16.79 41.4257 17.5098 41.5231 18.217C41.5305 18.3256 41.5162 18.4346 41.4813 18.5377C41.4464 18.6408 41.3914 18.736 41.3196 18.8177C41.2478 18.8995 41.1605 18.9663 41.0627 19.0142C40.965 19.0622 40.8588 19.0903 40.7501 19.097L40.6981 19.094Z" fill="#C6A5A5"/>
<path d="M57.67 9.19705C57.4597 9.19794 57.2569 9.11821 57.1035 8.97426C56.95 8.83031 56.8576 8.63307 56.845 8.42305C56.7837 7.9144 56.8324 7.39853 56.9877 6.9103C57.1429 6.42207 57.4012 5.97286 57.745 5.59305C58.4724 4.88838 59.4484 4.49919 60.461 4.51005C60.6805 4.51477 60.8891 4.60644 61.041 4.76489C61.1928 4.92333 61.2756 5.13561 61.271 5.35505C61.2594 5.5712 61.1665 5.77496 61.0109 5.9254C60.8553 6.07584 60.6484 6.16181 60.432 6.16605C59.8782 6.17068 59.3449 6.37686 58.932 6.74605C58.7551 6.96391 58.6253 7.21609 58.5508 7.48666C58.4762 7.75724 58.4586 8.04032 58.499 8.31805C58.5061 8.42649 58.4917 8.53526 58.4566 8.63811C58.4215 8.74097 58.3665 8.8359 58.2947 8.91747C58.2229 8.99903 58.1357 9.06561 58.0381 9.11342C57.9406 9.16122 57.8345 9.1893 57.726 9.19604L57.67 9.19705Z" fill="#C6A5A5"/>
</svg>
