<svg width="54" height="68" viewBox="0 0 54 68" fill="none" xmlns="http://www.w3.org/2000/svg">
<path d="M24.3532 48.637C18.4831 48.6346 12.819 46.4732 8.4396 42.5645C4.06015 38.6557 1.27132 33.2728 0.604208 27.4407C-0.0629022 21.6087 1.43832 15.7351 4.82198 10.9384C8.20564 6.14165 13.2353 2.757 18.9532 1.42902C20.7348 1.01406 22.5579 0.803378 24.3872 0.801025C30.7308 0.806197 36.8125 3.33113 41.2944 7.82037C45.7764 12.3096 48.2914 18.3954 48.2862 24.739C48.281 31.0826 45.7561 37.1643 41.2668 41.6462C36.7776 46.1282 30.6918 48.6432 24.3482 48.638L24.3532 48.637ZM24.3922 3.24902C21.5606 3.2273 18.7526 3.76595 16.1301 4.83392C13.5075 5.9019 11.1221 7.4781 9.11117 9.4718C7.10028 11.4655 5.50364 13.8373 4.4132 16.4506C3.32276 19.0639 2.76007 21.8672 2.7575 24.6989C2.75493 27.5306 3.31252 30.3348 4.39821 32.9501C5.48391 35.5654 7.07622 37.9401 9.08349 39.9374C11.0907 41.9348 13.4733 43.5154 16.094 44.5881C18.7146 45.6609 21.5215 46.2046 24.3532 46.188C25.9939 46.1848 27.6289 45.9964 29.2272 45.626C34.3595 44.4347 38.8744 41.3974 41.9124 37.0927C44.9503 32.788 46.299 27.5163 45.7018 22.2816C45.1045 17.0468 42.603 12.2145 38.6735 8.70465C34.744 5.19484 29.661 3.25266 24.3922 3.24799V3.24902Z" fill="black"/>
<path d="M27.3667 3.29907C31.4022 3.88043 35.1912 5.59047 38.2968 8.23206C38.2968 8.23206 43.5858 12.514 45.1578 18.696C44.5523 18.6592 43.9633 18.4844 43.4357 18.1851C42.8339 17.6819 42.2046 17.2125 41.5508 16.7791C41.5508 16.7791 40.1418 15.946 39.3508 16.585C39.3508 16.585 38.8418 16.802 38.1148 15.873C37.5632 15.5041 36.9718 15.1985 36.3518 14.962C36.3518 14.962 38.3518 17.445 39.3748 17.83C39.7597 17.9312 40.1504 18.0091 40.5448 18.063C40.5448 18.063 40.7178 18.3311 40.5728 19.9501C40.3718 21.1197 40.0707 22.27 39.6727 23.3881C39.5581 23.7311 39.5132 24.0936 39.5407 24.4542C39.5681 24.8149 39.6674 25.1663 39.8328 25.488C40.1103 26.2534 40.1928 27.0758 40.0728 27.881C39.7394 28.622 39.2927 29.3065 38.7488 29.91C38.6566 30.2363 38.6511 30.581 38.7328 30.91C38.6186 31.4597 38.3955 31.9809 38.0768 32.4431C37.8482 32.7776 37.6806 33.15 37.5818 33.543C36.9163 34.4873 36.0045 35.2309 34.9458 35.6931C34.9458 35.6931 34.0738 36.256 33.9388 35.704C33.4999 34.3009 32.9447 32.9368 32.2788 31.626C32.0098 31.3228 31.8276 30.9527 31.7512 30.5546C31.6748 30.1566 31.7071 29.7453 31.8448 29.3641C31.9993 29.0915 32.0972 28.7904 32.1326 28.4791C32.168 28.1677 32.1402 27.8524 32.0508 27.5521C31.5911 26.7565 31.0004 26.0442 30.3038 25.4451C29.9934 25.0554 29.834 24.5668 29.8548 24.069C29.8548 24.069 29.9658 22.918 29.5378 22.662C29.1619 22.5986 28.7758 22.6412 28.4227 22.785C28.4227 22.785 28.0658 23.004 27.6608 22.285C27.6608 22.285 27.3098 21.7431 26.0818 22.6851C26.0818 22.6851 23.5628 24.2001 21.7818 23.2911C21.575 23.0329 21.4066 22.7463 21.2818 22.4401C21.1637 22.3647 21.0287 22.32 20.889 22.3101C20.7493 22.3001 20.6093 22.3252 20.4818 22.3831C20.4818 22.3831 20.0248 22.561 19.9708 22.11C19.9708 22.11 20.0217 21.5841 19.6037 21.6281C19.5002 21.6471 19.3937 21.6421 19.2924 21.6136C19.1911 21.5852 19.0976 21.5339 19.0191 21.4637C18.9407 21.3936 18.8793 21.3064 18.8397 21.2089C18.8001 21.1113 18.7834 21.0061 18.7908 20.9011C18.7987 20.7026 18.8471 20.5079 18.9331 20.3289C19.0191 20.1498 19.1408 19.9903 19.2908 19.86C19.2908 19.86 19.5618 19.6601 19.2708 19.2531C19.085 19.0219 18.9561 18.7504 18.8946 18.4603C18.8331 18.1702 18.8407 17.8697 18.9168 17.5831C18.9568 17.1823 19.1216 16.8042 19.3881 16.5023C19.6545 16.2003 20.0091 15.9896 20.4018 15.9C20.4018 15.9 20.7948 15.8841 20.7768 15.3381C20.6596 14.9765 20.6499 14.5887 20.749 14.2217C20.848 13.8548 21.0515 13.5245 21.3348 13.2711C21.3348 13.2711 21.6698 12.7831 23.0078 12.7711C23.221 12.7963 23.4371 12.7727 23.6398 12.702C23.8425 12.6313 24.0265 12.5154 24.1778 12.363C24.428 12.072 24.7377 11.838 25.0859 11.6768C25.4342 11.5155 25.813 11.4307 26.1968 11.428C26.2836 11.4336 26.3684 11.4567 26.446 11.4959C26.5237 11.5351 26.5926 11.5896 26.6486 11.6561C26.7047 11.7226 26.7467 11.7998 26.7721 11.8829C26.7976 11.9661 26.806 12.0536 26.7968 12.1401C26.7968 12.1401 26.7818 12.5711 27.4608 12.4401C27.9699 12.2689 28.5259 12.3048 29.0088 12.54C29.0088 12.54 29.8918 13.319 29.9948 12.751C29.9948 12.751 29.6748 12.199 29.9558 12.051C30.5601 11.8121 31.2314 11.8051 31.8407 12.0311C31.9741 12.1148 32.1314 12.1521 32.2882 12.1373C32.445 12.1224 32.5924 12.0563 32.7078 11.949C32.7078 11.949 32.7627 11.578 33.5307 11.618C33.5307 11.618 33.8788 11.365 33.4638 10.926C33.2059 10.7703 33.0159 10.5233 32.9318 10.2341C32.9318 10.2341 32.7798 9.93405 32.2168 10.334C32.0751 10.4462 31.9042 10.5152 31.7244 10.533C31.5447 10.5507 31.3636 10.5163 31.2028 10.434C31.008 10.3951 30.827 10.3054 30.6782 10.1738C30.5295 10.0423 30.4182 9.87361 30.3558 9.68506C30.3558 9.68506 29.6488 9.17405 29.6178 9.48505C29.6178 9.48505 29.1818 9.59906 29.5578 10.1381C29.5578 10.1381 30.1578 10.696 29.6378 10.856C29.6378 10.856 29.4048 10.93 28.6278 10.192C28.6278 10.192 27.6278 9.31205 27.2728 9.50305C27.2728 9.50305 26.9788 9.48502 27.4198 9.94702C27.4198 9.94702 27.6618 10.174 27.3328 10.301C26.9463 10.3606 26.5525 10.3528 26.1687 10.2781C26.1687 10.2781 25.2627 9.84202 24.8237 10.262C24.8363 10.3171 24.8377 10.3742 24.8278 10.4298C24.818 10.4854 24.797 10.5385 24.7662 10.5859C24.7354 10.6333 24.6955 10.6739 24.6487 10.7056C24.6019 10.7372 24.5492 10.7591 24.4938 10.77C24.3137 10.8791 24.1033 10.9272 23.8938 10.907C23.7836 10.9147 23.6799 10.9617 23.6017 11.0396C23.5235 11.1175 23.4759 11.221 23.4678 11.3311C23.368 11.5411 23.2212 11.7252 23.0388 11.8693C22.8564 12.0134 22.6432 12.1135 22.4158 12.1619C22.1884 12.2102 21.9529 12.2056 21.7276 12.1482C21.5024 12.0908 21.2933 11.9823 21.1167 11.8311C21.1167 11.8311 20.2168 11.242 21.5448 10.808C21.5448 10.808 22.3448 10.5631 22.4708 10.2891C22.4708 10.2891 22.6058 9.68905 21.8128 9.58905C21.8128 9.58905 21.0028 9.08005 22.4278 8.64905C22.4278 8.64905 22.7628 8.58207 23.2898 7.87207C23.2898 7.87207 23.2248 7.41802 23.8898 7.31702C24.3565 7.3627 24.8262 7.26581 25.2368 7.03906C25.2368 7.03906 25.3188 6.74806 25.8588 6.71106C25.8588 6.71106 26.1378 6.74904 25.9308 6.37604C25.9308 6.37604 25.5748 5.94203 26.0838 5.98303C26.0838 5.98303 26.3778 5.67404 25.7328 5.68304C25.7328 5.68304 25.0558 5.74003 24.8558 5.31903C24.8558 5.31903 24.7448 4.79004 24.4638 4.98804C24.4638 4.98804 24.2438 5.21006 24.4508 5.39606C24.4508 5.39606 25.2328 6.07506 24.8698 6.50806C24.8698 6.50806 24.4638 7.01604 23.6178 6.17004C23.6178 6.17004 23.3798 6.02104 23.2618 6.42004C23.168 6.48644 23.0574 6.52487 22.9427 6.53088C22.828 6.5369 22.7139 6.51026 22.6138 6.45404C22.6138 6.45404 22.1138 6.02603 22.8438 5.17603C23.3311 4.40828 24.0892 3.85184 24.9678 3.61707C24.9678 3.61707 26.0828 3.36607 25.8168 3.10107C25.8128 3.12807 26.8217 3.19707 27.3667 3.29907V3.29907Z" fill="#7B68EE"/>
<path d="M3.01709 28.1129C3.01709 28.1129 3.8641 34.5789 8.0531 38.8769C10.599 41.6977 13.8558 43.7829 17.4831 44.9149C17.4831 44.9149 18.0981 44.5299 17.3021 44.1089C17.3021 44.1089 17.0081 44.1089 16.3391 43.4499C16.3391 43.4499 16.0831 42.7199 15.5391 42.6209C15.2663 42.5911 15.0155 42.4571 14.8391 42.2469C14.6662 42.0231 14.5066 41.7894 14.3611 41.5469C14.3552 41.3394 14.3717 41.1319 14.4101 40.9279C14.447 40.7699 14.4291 40.6041 14.3593 40.4576C14.2896 40.3111 14.172 40.1928 14.0261 40.1219C14.0261 40.1219 13.6671 39.9379 13.9261 39.2829C13.9261 39.2829 14.1711 39.0829 14.1811 38.3529C14.2602 37.8205 14.1459 37.2774 13.8591 36.8219C13.5043 35.8818 13.2968 34.8924 13.2441 33.8889C13.3375 33.2187 13.6206 32.5893 14.0601 32.0749C14.0601 32.0749 15.3601 30.0919 14.0601 28.9309C13.8715 28.686 13.6152 28.5018 13.3231 28.401C13.0309 28.3003 12.7156 28.2874 12.4161 28.3639C12.153 28.6071 11.8042 28.7362 11.4461 28.7229C11.3333 28.6504 11.2381 28.5536 11.1675 28.4395C11.0969 28.3255 11.0527 28.1972 11.0381 28.0639C11.0079 27.8956 10.9229 27.742 10.7963 27.6272C10.6696 27.5123 10.5085 27.4426 10.3381 27.4289C10.175 27.4186 10.0113 27.4341 9.85309 27.4749C9.85309 27.4749 9.5821 27.5159 9.5531 27.3439C9.5531 27.3439 9.32609 26.5209 8.84509 26.5149C8.84509 26.5149 8.6701 26.4449 8.2821 26.6389C8.2821 26.6389 7.92108 26.8809 7.83508 26.6389C7.83508 26.6389 7.32609 25.2389 6.26309 25.2389C5.88723 25.2213 5.51364 25.306 5.1821 25.4839C5.11382 25.5142 5.03735 25.5208 4.96487 25.5027C4.8924 25.4846 4.82808 25.4428 4.7821 25.3839C4.5018 25.1702 4.17392 25.0276 3.82651 24.9682C3.47909 24.9088 3.12247 24.9344 2.78711 25.0429C2.80455 26.0698 2.88133 27.0948 3.01709 28.1129V28.1129Z" fill="#7B68EE"/>
<path d="M24.5651 53.859C17.5626 53.867 10.7978 51.3193 5.54015 46.694C5.29575 46.4801 5.14634 46.1779 5.12478 45.8538C5.10321 45.5298 5.21123 45.2104 5.42513 44.966C5.63903 44.7216 5.94128 44.5722 6.26534 44.5507C6.5894 44.5291 6.90876 44.6371 7.15316 44.851C9.76995 47.1716 12.82 48.9514 16.1276 50.0881C19.4353 51.2247 22.9351 51.6958 26.4256 51.4739C29.916 51.2521 33.3281 50.3419 36.4653 48.7957C39.6024 47.2495 42.4026 45.0978 44.7046 42.4647C47.0066 39.8316 48.7649 36.7691 49.8782 33.4535C50.9914 30.1379 51.4377 26.6348 51.1912 23.146C50.9448 19.6572 50.0105 16.2517 48.4421 13.1255C46.8738 9.99935 44.7025 7.21438 42.0532 4.93104C41.8132 4.71579 41.6678 4.41462 41.6484 4.09285C41.629 3.77107 41.7372 3.45462 41.9496 3.21211C42.162 2.9696 42.4614 2.8206 42.7829 2.79738C43.1044 2.77415 43.4221 2.87856 43.6671 3.08803C47.9789 6.85878 51.0757 11.8234 52.5661 17.3541C54.0565 22.8848 53.8734 28.7332 52.0401 34.1599C50.2069 39.5865 46.8056 44.3477 42.2665 47.8415C37.7274 51.3353 32.2543 53.4047 26.5391 53.788C25.8805 53.8347 25.2225 53.8584 24.5651 53.859V53.859Z" fill="black"/>
<path d="M27.348 60.4291C27.0235 60.4288 26.7123 60.2998 26.4828 60.0703C26.2533 59.8408 26.1243 59.5296 26.124 59.2051V53.1051C26.124 52.7803 26.253 52.4689 26.4827 52.2393C26.7123 52.0096 27.0238 51.8806 27.3485 51.8806C27.6733 51.8806 27.9847 52.0096 28.2144 52.2393C28.444 52.4689 28.573 52.7803 28.573 53.1051V59.2051C28.573 59.3659 28.5413 59.5251 28.4798 59.6737C28.4182 59.8223 28.3279 59.9573 28.2142 60.0709C28.1004 60.1846 27.9654 60.2747 27.8167 60.3362C27.6681 60.3976 27.5088 60.4292 27.348 60.4291V60.4291Z" fill="black"/>
<path d="M41.2173 67.199H13.6613C13.4967 67.1987 13.3339 67.1653 13.1825 67.1008C13.0311 67.0363 12.8942 66.942 12.7801 66.8235C12.6659 66.705 12.5767 66.5647 12.5178 66.4111C12.4589 66.2574 12.4315 66.0935 12.4373 65.929C12.6203 60.707 19.2113 56.616 27.4373 56.616C35.6633 56.616 42.2593 60.707 42.4373 65.929C42.4435 66.0936 42.4164 66.2577 42.3577 66.4116C42.2989 66.5654 42.2097 66.7058 42.0954 66.8244C41.9812 66.943 41.8441 67.0373 41.6926 67.1016C41.541 67.166 41.378 67.1991 41.2133 67.199H41.2173ZM15.1283 64.75H39.7443C38.5723 61.52 33.4613 59.064 27.4363 59.064C21.4113 59.064 16.3053 61.52 15.1333 64.75H15.1283Z" fill="black"/>
<path d="M38.8307 8.45786C38.5525 8.45705 38.2827 8.36264 38.0647 8.18985C37.8112 7.98669 37.6488 7.69125 37.6129 7.36838C37.5771 7.04551 37.6709 6.72164 37.8737 6.46787L42.0457 1.25583C42.2508 1.00889 42.5446 0.852348 42.8639 0.819796C43.1833 0.787244 43.5026 0.881332 43.7533 1.08182C44.0039 1.28231 44.1659 1.57314 44.2043 1.89182C44.2428 2.2105 44.1546 2.53154 43.9587 2.78586L39.7867 7.99985C39.672 8.14313 39.5265 8.25875 39.361 8.33805C39.1955 8.41734 39.0142 8.45827 38.8307 8.45786V8.45786Z" fill="black"/>
<path d="M4.13827 47.6871C3.90595 47.6868 3.67853 47.6204 3.48251 47.4957C3.28649 47.371 3.12997 47.1931 3.03122 46.9828C2.93247 46.7725 2.89554 46.5384 2.92477 46.308C2.954 46.0775 3.04817 45.8601 3.19629 45.6811L7.67929 40.2731C7.78042 40.145 7.90615 40.0385 8.04907 39.9597C8.19199 39.8809 8.34921 39.8315 8.5115 39.8144C8.6738 39.7972 8.8379 39.8128 8.99411 39.86C9.15032 39.9072 9.29551 39.9852 9.42114 40.0894C9.54677 40.1935 9.6503 40.3218 9.72565 40.4665C9.80099 40.6113 9.84662 40.7696 9.85986 40.9323C9.87311 41.0949 9.8537 41.2586 9.80276 41.4137C9.75183 41.5687 9.67041 41.712 9.56329 41.8351L5.08029 47.2431C4.96591 47.3822 4.82208 47.4942 4.65918 47.571C4.49628 47.6477 4.31836 47.6874 4.13827 47.6871V47.6871Z" fill="black"/>
</svg>
