<svg xmlns="http://www.w3.org/2000/svg" width="76" height="76">
    <defs>
        <style>
            .cls-2{fill:#2e3336}
        </style>
    </defs>
    <g id="그룹_457460" data-name="그룹 457460" transform="translate(-1302 -577)">
        <g id="그룹_457463" data-name="그룹 457463" transform="translate(874.073 68.458)">
            <path id="패스_843919" data-name="패스 843919" class="cls-2" d="M463.28 561.179a23.914 23.914 0 0 1-5.4-47.208 24.092 24.092 0 0 1 5.434-.628 23.918 23.918 0 0 1-.039 47.837zm.039-45.388a21.47 21.47 0 1 0-.039 42.939 21.778 21.778 0 0 0 4.874-.562 21.467 21.467 0 0 0-4.835-42.378z"/>
            <path id="패스_843922" data-name="패스 843922" class="cls-2" d="M461.681 565.631a28.754 28.754 0 0 1-19.025-7.165 1.224 1.224 0 0 1 1.613-1.843 26.513 26.513 0 1 0 34.9-39.92 1.225 1.225 0 0 1 1.614-1.843 28.963 28.963 0 0 1-17.128 50.7q-.988.07-1.974.071z" transform="translate(1.811 .77)"/>
            <path id="패스_843923" data-name="패스 843923" class="cls-2" d="M456.328 553.183a1.225 1.225 0 0 1-1.224-1.224v-6.1a1.224 1.224 0 0 1 2.449 0v6.1a1.224 1.224 0 0 1-1.225 1.224z" transform="translate(9.947 19.788)"/>
            <path id="패스_843924" data-name="패스 843924" class="cls-2" d="M475.5 558.118h-27.556a1.227 1.227 0 0 1-1.224-1.27c.183-5.222 6.774-9.313 15-9.313s14.822 4.091 15 9.313a1.224 1.224 0 0 1-1.224 1.27zm-26.089-2.449h24.616c-1.172-3.23-6.283-5.686-12.308-5.686s-11.131 2.456-12.303 5.686z" transform="translate(4.644 21.623)"/>
            <path id="패스_843925" data-name="패스 843925" class="cls-2" d="M463.363 521a1.239 1.239 0 0 1-.766-.268 1.226 1.226 0 0 1-.191-1.722l4.172-5.212a1.225 1.225 0 0 1 1.913 1.53l-4.172 5.214a1.221 1.221 0 0 1-.956.458z" transform="translate(14.394)"/>
            <path id="패스_843926" data-name="패스 843926" class="cls-2" d="M442.11 545.109a1.225 1.225 0 0 1-.942-2.006l4.483-5.408a1.224 1.224 0 1 1 1.884 1.562l-4.483 5.408a1.217 1.217 0 0 1-.942.444z" transform="translate(.955 15.12)"/>
            <path id="패스_843920" data-name="패스 843920" class="cls-2" d="M459.192 514.939a21.63 21.63 0 0 1 10.93 4.933s5.289 4.282 6.861 10.464a3.979 3.979 0 0 1-1.722-.511 21.2 21.2 0 0 0-1.885-1.406s-1.409-.833-2.2-.194c0 0-.509.217-1.236-.712a8.825 8.825 0 0 0-1.763-.911s2 2.483 3.023 2.868a9.856 9.856 0 0 0 1.17.233s.173.268.028 1.887a20.718 20.718 0 0 1-.9 3.438 2.713 2.713 0 0 0 .16 2.1 4.9 4.9 0 0 1 .24 2.393 7.829 7.829 0 0 1-1.324 2.029 1.951 1.951 0 0 0-.016 1 4.208 4.208 0 0 1-.656 1.533 3.434 3.434 0 0 0-.495 1.1 6.316 6.316 0 0 1-2.636 2.15s-.872.563-1.007.011a26.408 26.408 0 0 0-1.66-4.078 2.255 2.255 0 0 1-.434-2.262 2.328 2.328 0 0 0 .206-1.812 8.17 8.17 0 0 0-1.747-2.107 2.07 2.07 0 0 1-.449-1.376s.111-1.151-.317-1.407a2.051 2.051 0 0 0-1.115.123s-.357.219-.762-.5c0 0-.351-.542-1.579.4 0 0-2.519 1.515-4.3.606a3.438 3.438 0 0 1-.5-.851.841.841 0 0 0-.8-.057s-.457.178-.511-.273c0 0 .051-.526-.367-.482a.69.69 0 0 1-.813-.727 1.456 1.456 0 0 1 .5-1.041s.271-.2-.02-.607a1.891 1.891 0 0 1-.354-1.67 1.922 1.922 0 0 1 1.485-1.683s.393-.016.375-.562a1.962 1.962 0 0 1 .558-2.067s.335-.488 1.673-.5a1.414 1.414 0 0 0 1.17-.408 2.687 2.687 0 0 1 2.019-.935.645.645 0 0 1 .6.712s-.015.431.664.3a2.046 2.046 0 0 1 1.548.1s.883.779.986.211c0 0-.32-.552-.039-.7a2.635 2.635 0 0 1 1.885-.02.715.715 0 0 0 .867-.082s.055-.371.823-.331c0 0 .348-.253-.067-.692a1.2 1.2 0 0 1-.532-.692s-.152-.3-.715.1a.942.942 0 0 1-1.014.1 1.124 1.124 0 0 1-.847-.749s-.707-.511-.738-.2c0 0-.436.114-.06.653 0 0 .6.558.08.718 0 0-.233.074-1.01-.664 0 0-1-.88-1.355-.689 0 0-.294-.018.147.444 0 0 .242.227-.087.354a3.388 3.388 0 0 1-1.164-.023s-.906-.436-1.345-.016a.422.422 0 0 1-.33.508.977.977 0 0 1-.6.137.459.459 0 0 0-.426.424 1.513 1.513 0 0 1-2.351.5s-.9-.589.428-1.023c0 0 .8-.245.926-.519 0 0 .135-.6-.658-.7 0 0-.81-.509.615-.94 0 0 .335-.067.862-.777 0 0-.065-.454.6-.555a2.319 2.319 0 0 0 1.347-.278s.082-.291.622-.328c0 0 .279.038.072-.335 0 0-.356-.434.153-.393 0 0 .294-.309-.351-.3 0 0-.677.057-.877-.364 0 0-.111-.529-.392-.331 0 0-.22.222-.013.408 0 0 .782.679.419 1.112 0 0-.406.508-1.252-.338 0 0-.238-.149-.356.25a.607.607 0 0 1-.648.034s-.5-.428.23-1.278a3.624 3.624 0 0 1 2.124-1.559s1.115-.251.849-.516c-.004.027 1.005.096 1.55.198z" transform="translate(7.102 .902)"/>
            <path id="패스_843921" data-name="패스 843921" d="M441.038 531.308s.847 6.466 5.036 10.764a21.217 21.217 0 0 0 9.43 6.038s.615-.385-.181-.806c0 0-.294 0-.963-.659 0 0-.256-.73-.8-.829a1.065 1.065 0 0 1-.7-.374 7.242 7.242 0 0 1-.478-.7 2.9 2.9 0 0 1 .049-.619.715.715 0 0 0-.384-.806s-.359-.184-.1-.839c0 0 .245-.2.255-.93a2.252 2.252 0 0 0-.322-1.531 9.755 9.755 0 0 1-.615-2.933 3.546 3.546 0 0 1 .816-1.814s1.3-1.983 0-3.144a1.581 1.581 0 0 0-1.644-.567 1.355 1.355 0 0 1-.97.359.9.9 0 0 1-.408-.659.774.774 0 0 0-.7-.635 1.549 1.549 0 0 0-.485.046s-.271.041-.3-.131c0 0-.227-.823-.708-.829 0 0-.175-.07-.563.124 0 0-.361.242-.447 0 0 0-.509-1.4-1.572-1.4a2.08 2.08 0 0 0-1.081.245.335.335 0 0 1-.4-.1 2.183 2.183 0 0 0-1.995-.341 26.648 26.648 0 0 0 .23 3.07z" transform="translate(.906 9.347)" style="fill:#2f3437"/>
        </g>
    </g>
</svg>
