<svg width="76" height="76" viewBox="0 0 76 76" fill="none" xmlns="http://www.w3.org/2000/svg">
<path d="M35.3532 52.637C29.4831 52.6346 23.819 50.4732 19.4396 46.5645C15.0601 42.6557 12.2713 37.2728 11.6042 31.4407C10.9371 25.6087 12.4383 19.7351 15.822 14.9384C19.2056 10.1416 24.2353 6.757 29.9532 5.42902C31.7348 5.01406 33.5579 4.80338 35.3872 4.80103C41.7308 4.8062 47.8125 7.33113 52.2944 11.8204C56.7764 16.3096 59.2914 22.3954 59.2862 28.739C59.281 35.0826 56.7561 41.1643 52.2668 45.6462C47.7776 50.1282 41.6918 52.6432 35.3482 52.638L35.3532 52.637ZM35.3922 7.24902C32.5606 7.2273 29.7526 7.76595 27.1301 8.83392C24.5075 9.9019 22.1221 11.4781 20.1112 13.4718C18.1003 15.4655 16.5036 17.8373 15.4132 20.4506C14.3228 23.0639 13.7601 25.8672 13.7575 28.6989C13.7549 31.5306 14.3125 34.3348 15.3982 36.9501C16.4839 39.5654 18.0762 41.9401 20.0835 43.9374C22.0907 45.9348 24.4733 47.5154 27.094 48.5881C29.7146 49.6609 32.5215 50.2046 35.3532 50.188C36.9939 50.1848 38.6289 49.9964 40.2272 49.626C45.3595 48.4347 49.8744 45.3974 52.9124 41.0927C55.9503 36.788 57.299 31.5163 56.7018 26.2816C56.1045 21.0468 53.603 16.2145 49.6735 12.7047C45.744 9.19484 40.661 7.25266 35.3922 7.24799V7.24902Z" fill="white"/>
<path d="M35.5651 57.859C28.5626 57.867 21.7978 55.3193 16.5402 50.694C16.2958 50.4801 16.1463 50.1779 16.1248 49.8538C16.1032 49.5298 16.2112 49.2104 16.4251 48.966C16.639 48.7216 16.9413 48.5722 17.2653 48.5507C17.5894 48.5291 17.9088 48.6371 18.1532 48.851C20.7699 51.1716 23.82 52.9514 27.1276 54.0881C30.4353 55.2247 33.9351 55.6958 37.4256 55.4739C40.916 55.2521 44.3281 54.3419 47.4653 52.7957C50.6024 51.2495 53.4026 49.0978 55.7046 46.4647C58.0066 43.8316 59.7649 40.7691 60.8782 37.4535C61.9914 34.1379 62.4377 30.6348 62.1912 27.146C61.9448 23.6572 61.0105 20.2517 59.4421 17.1255C57.8738 13.9994 55.7025 11.2144 53.0532 8.93104C52.8132 8.71579 52.6678 8.41462 52.6484 8.09285C52.629 7.77107 52.7372 7.45462 52.9496 7.21211C53.162 6.9696 53.4614 6.8206 53.7829 6.79738C54.1044 6.77415 54.4221 6.87856 54.6671 7.08803C58.9789 10.8588 62.0757 15.8234 63.5661 21.3541C65.0565 26.8848 64.8734 32.7332 63.0401 38.1599C61.2069 43.5865 57.8056 48.3477 53.2665 51.8415C48.7274 55.3353 43.2543 57.4047 37.5391 57.788C36.8805 57.8347 36.2225 57.8584 35.5651 57.859V57.859Z" fill="white"/>
<path d="M38.348 64.429C38.0235 64.4288 37.7123 64.2997 37.4828 64.0703C37.2533 63.8408 37.1243 63.5296 37.124 63.205V57.105C37.124 56.7803 37.253 56.4688 37.4827 56.2392C37.7123 56.0096 38.0238 55.8806 38.3485 55.8806C38.6733 55.8806 38.9847 56.0096 39.2144 56.2392C39.444 56.4688 39.573 56.7803 39.573 57.105V63.205C39.573 63.3658 39.5413 63.5251 39.4798 63.6736C39.4182 63.8222 39.3279 63.9572 39.2142 64.0709C39.1004 64.1845 38.9654 64.2747 38.8167 64.3361C38.6681 64.3976 38.5088 64.4291 38.348 64.429V64.429Z" fill="white"/>
<path d="M52.2173 71.199H24.6613C24.4967 71.1987 24.3339 71.1653 24.1825 71.1008C24.0311 71.0363 23.8942 70.942 23.7801 70.8235C23.6659 70.705 23.5767 70.5647 23.5178 70.4111C23.4589 70.2574 23.4315 70.0935 23.4373 69.929C23.6203 64.707 30.2113 60.616 38.4373 60.616C46.6633 60.616 53.2593 64.707 53.4373 69.929C53.4435 70.0936 53.4164 70.2577 53.3577 70.4116C53.2989 70.5654 53.2097 70.7058 53.0954 70.8244C52.9812 70.943 52.8441 71.0373 52.6926 71.1016C52.541 71.166 52.378 71.1991 52.2133 71.199H52.2173ZM26.1283 68.75H50.7443C49.5723 65.52 44.4613 63.064 38.4363 63.064C32.4113 63.064 27.3053 65.52 26.1333 68.75H26.1283Z" fill="white"/>
<path d="M49.8307 12.458C49.5525 12.4572 49.2827 12.3628 49.0647 12.19C48.8112 11.9868 48.6488 11.6914 48.6129 11.3685C48.5771 11.0456 48.6709 10.7218 48.8737 10.468L53.0457 5.25595C53.2508 5.00901 53.5446 4.85247 53.8639 4.81992C54.1833 4.78737 54.5026 4.88145 54.7533 5.08194C55.0039 5.28243 55.1659 5.57326 55.2043 5.89194C55.2428 6.21062 55.1546 6.53166 54.9587 6.78598L50.7867 12C50.672 12.1433 50.5265 12.2589 50.361 12.3382C50.1955 12.4175 50.0142 12.4584 49.8307 12.458V12.458Z" fill="white"/>
<path d="M15.1383 51.687C14.9059 51.6867 14.6785 51.6203 14.4825 51.4956C14.2865 51.3709 14.13 51.193 14.0312 50.9827C13.9325 50.7724 13.8955 50.5383 13.9248 50.3078C13.954 50.0774 14.0482 49.86 14.1963 49.681L18.6793 44.273C18.7804 44.1449 18.9061 44.0383 19.0491 43.9596C19.192 43.8808 19.3492 43.8314 19.5115 43.8142C19.6738 43.7971 19.8379 43.8127 19.9941 43.8599C20.1503 43.9071 20.2955 43.9851 20.4211 44.0893C20.5468 44.1934 20.6503 44.3216 20.7256 44.4664C20.801 44.6112 20.8466 44.7695 20.8599 44.9322C20.8731 45.0948 20.8537 45.2585 20.8028 45.4135C20.7518 45.5686 20.6704 45.7119 20.5633 45.835L16.0803 51.243C15.9659 51.382 15.8221 51.4941 15.6592 51.5708C15.4963 51.6476 15.3184 51.6873 15.1383 51.687V51.687Z" fill="white"/>
<path d="M38.3667 7.29901C42.4022 7.88037 46.1912 9.59041 49.2968 12.232C49.2968 12.232 54.5858 16.514 56.1578 22.696C55.5523 22.6591 54.9633 22.4844 54.4357 22.185C53.8339 21.6818 53.2046 21.2124 52.5508 20.779C52.5508 20.779 51.1418 19.946 50.3508 20.585C50.3508 20.585 49.8418 20.802 49.1148 19.873C48.5632 19.504 47.9718 19.1984 47.3518 18.962C47.3518 18.962 49.3518 21.445 50.3748 21.83C50.7597 21.9312 51.1504 22.009 51.5448 22.063C51.5448 22.063 51.7178 22.331 51.5728 23.95C51.3718 25.1197 51.0707 26.2699 50.6727 27.388C50.5581 27.731 50.5132 28.0935 50.5407 28.4542C50.5681 28.8148 50.6674 29.1663 50.8328 29.488C51.1103 30.2533 51.1928 31.0758 51.0728 31.881C50.7394 32.6219 50.2927 33.3064 49.7488 33.91C49.6566 34.2363 49.6511 34.5809 49.7328 34.91C49.6186 35.4596 49.3955 35.9809 49.0768 36.443C48.8482 36.7776 48.6806 37.15 48.5818 37.543C47.9163 38.4872 47.0045 39.2309 45.9458 39.693C45.9458 39.693 45.0738 40.256 44.9388 39.704C44.4999 38.3008 43.9447 36.9367 43.2788 35.626C43.0098 35.3227 42.8276 34.9526 42.7512 34.5546C42.6748 34.1565 42.7071 33.7453 42.8448 33.364C42.9993 33.0914 43.0972 32.7904 43.1326 32.479C43.168 32.1676 43.1402 31.8523 43.0508 31.552C42.5911 30.7564 42.0004 30.0441 41.3038 29.445C40.9934 29.0553 40.834 28.5667 40.8548 28.069C40.8548 28.069 40.9658 26.918 40.5378 26.662C40.1619 26.5986 39.7758 26.6412 39.4227 26.785C39.4227 26.785 39.0658 27.004 38.6608 26.285C38.6608 26.285 38.3098 25.743 37.0818 26.685C37.0818 26.685 34.5628 28.2 32.7818 27.291C32.575 27.0329 32.4066 26.7462 32.2818 26.44C32.1637 26.3646 32.0287 26.32 31.889 26.31C31.7493 26.3 31.6093 26.3251 31.4818 26.383C31.4818 26.383 31.0248 26.561 30.9708 26.11C30.9708 26.11 31.0217 25.584 30.6037 25.628C30.5002 25.647 30.3937 25.6421 30.2924 25.6136C30.1911 25.5851 30.0976 25.5338 30.0191 25.4637C29.9407 25.3935 29.8793 25.3063 29.8397 25.2088C29.8001 25.1113 29.7834 25.006 29.7908 24.901C29.7987 24.7026 29.8471 24.5078 29.9331 24.3288C30.0191 24.1498 30.1408 23.9902 30.2908 23.86C30.2908 23.86 30.5618 23.66 30.2708 23.253C30.085 23.0219 29.9561 22.7503 29.8946 22.4602C29.8331 22.1701 29.8407 21.8696 29.9168 21.583C29.9568 21.1823 30.1216 20.8042 30.3881 20.5022C30.6545 20.2002 31.0091 19.9895 31.4018 19.9C31.4018 19.9 31.7948 19.884 31.7768 19.338C31.6596 18.9765 31.6499 18.5886 31.749 18.2217C31.848 17.8547 32.0515 17.5245 32.3348 17.271C32.3348 17.271 32.6698 16.783 34.0078 16.771C34.221 16.7963 34.4371 16.7727 34.6398 16.702C34.8425 16.6313 35.0265 16.5153 35.1778 16.363C35.428 16.072 35.7377 15.838 36.0859 15.6767C36.4342 15.5154 36.813 15.4306 37.1968 15.428C37.2836 15.4336 37.3684 15.4567 37.446 15.4958C37.5237 15.535 37.5926 15.5895 37.6486 15.656C37.7047 15.7225 37.7467 15.7997 37.7721 15.8829C37.7976 15.966 37.806 16.0535 37.7968 16.14C37.7968 16.14 37.7818 16.571 38.4608 16.44C38.9699 16.2689 39.5259 16.3047 40.0088 16.54C40.0088 16.54 40.8918 17.319 40.9948 16.751C40.9948 16.751 40.6748 16.199 40.9558 16.051C41.5601 15.8121 42.2314 15.805 42.8407 16.031C42.9741 16.1147 43.1314 16.152 43.2882 16.1372C43.445 16.1224 43.5924 16.0562 43.7078 15.949C43.7078 15.949 43.7627 15.578 44.5307 15.618C44.5307 15.618 44.8788 15.365 44.4638 14.926C44.2059 14.7703 44.0159 14.5233 43.9318 14.234C43.9318 14.234 43.7798 13.934 43.2168 14.334C43.0751 14.4461 42.9042 14.5152 42.7244 14.5329C42.5447 14.5506 42.3636 14.5163 42.2028 14.434C42.008 14.3951 41.827 14.3053 41.6782 14.1738C41.5295 14.0422 41.4182 13.8735 41.3558 13.685C41.3558 13.685 40.6488 13.174 40.6178 13.485C40.6178 13.485 40.1818 13.599 40.5578 14.138C40.5578 14.138 41.1578 14.696 40.6378 14.856C40.6378 14.856 40.4048 14.93 39.6278 14.192C39.6278 14.192 38.6278 13.312 38.2728 13.503C38.2728 13.503 37.9788 13.485 38.4198 13.947C38.4198 13.947 38.6618 14.174 38.3328 14.301C37.9463 14.3605 37.5525 14.3528 37.1687 14.278C37.1687 14.278 36.2627 13.842 35.8237 14.262C35.8363 14.317 35.8377 14.3741 35.8278 14.4297C35.818 14.4854 35.797 14.5384 35.7662 14.5858C35.7354 14.6332 35.6955 14.6739 35.6487 14.7055C35.6019 14.7371 35.5492 14.7591 35.4938 14.77C35.3137 14.8791 35.1033 14.9271 34.8938 14.907C34.7836 14.9146 34.6799 14.9617 34.6017 15.0396C34.5235 15.1174 34.4759 15.2209 34.4678 15.331C34.368 15.541 34.2212 15.7252 34.0388 15.8693C33.8564 16.0134 33.6432 16.1134 33.4158 16.1618C33.1884 16.2102 32.9529 16.2055 32.7276 16.1481C32.5024 16.0908 32.2933 15.9822 32.1167 15.831C32.1167 15.831 31.2168 15.242 32.5448 14.808C32.5448 14.808 33.3448 14.563 33.4708 14.289C33.4708 14.289 33.6058 13.689 32.8128 13.589C32.8128 13.589 32.0028 13.08 33.4278 12.649C33.4278 12.649 33.7628 12.582 34.2898 11.872C34.2898 11.872 34.2248 11.418 34.8898 11.317C35.3565 11.3626 35.8262 11.2657 36.2368 11.039C36.2368 11.039 36.3188 10.748 36.8588 10.711C36.8588 10.711 37.1378 10.749 36.9308 10.376C36.9308 10.376 36.5748 9.94197 37.0838 9.98297C37.0838 9.98297 37.3778 9.67398 36.7328 9.68298C36.7328 9.68298 36.0558 9.73997 35.8558 9.31897C35.8558 9.31897 35.7448 8.78998 35.4638 8.98798C35.4638 8.98798 35.2438 9.21 35.4508 9.396C35.4508 9.396 36.2328 10.075 35.8698 10.508C35.8698 10.508 35.4638 11.016 34.6178 10.17C34.6178 10.17 34.3798 10.021 34.2618 10.42C34.168 10.4864 34.0574 10.5248 33.9427 10.5308C33.828 10.5368 33.7139 10.5102 33.6138 10.454C33.6138 10.454 33.1138 10.026 33.8438 9.17596C34.3311 8.40822 35.0892 7.85178 35.9678 7.617C35.9678 7.617 37.0828 7.36601 36.8168 7.10101C36.8128 7.12801 37.8217 7.19701 38.3667 7.29901V7.29901Z" fill="#7B68EE"/>
<path d="M14.0171 32.113C14.0171 32.113 14.8641 38.579 19.0531 42.877C21.599 45.6978 24.8558 47.7831 28.4831 48.915C28.4831 48.915 29.0981 48.53 28.3021 48.109C28.3021 48.109 28.0081 48.109 27.3391 47.45C27.3391 47.45 27.0831 46.72 26.5391 46.621C26.2663 46.5912 26.0155 46.4572 25.8391 46.247C25.6662 46.0232 25.5066 45.7895 25.3611 45.547C25.3552 45.3395 25.3717 45.132 25.4101 44.928C25.447 44.77 25.4291 44.6042 25.3593 44.4577C25.2896 44.3113 25.172 44.1929 25.0261 44.122C25.0261 44.122 24.6671 43.938 24.9261 43.283C24.9261 43.283 25.1711 43.083 25.1811 42.353C25.2602 41.8206 25.1459 41.2775 24.8591 40.822C24.5043 39.8819 24.2968 38.8925 24.2441 37.889C24.3375 37.2189 24.6206 36.5895 25.0601 36.075C25.0601 36.075 26.3601 34.092 25.0601 32.931C24.8715 32.6861 24.6152 32.5019 24.3231 32.4011C24.0309 32.3004 23.7156 32.2875 23.4161 32.364C23.153 32.6073 22.8042 32.7363 22.4461 32.723C22.3333 32.6505 22.2381 32.5537 22.1675 32.4397C22.0969 32.3256 22.0527 32.1973 22.0381 32.064C22.0079 31.8957 21.9229 31.7422 21.7963 31.6273C21.6696 31.5124 21.5085 31.4427 21.3381 31.429C21.175 31.4187 21.0113 31.4342 20.8531 31.475C20.8531 31.475 20.5821 31.516 20.5531 31.344C20.5531 31.344 20.3261 30.521 19.8451 30.515C19.8451 30.515 19.6701 30.445 19.2821 30.639C19.2821 30.639 18.9211 30.881 18.8351 30.639C18.8351 30.639 18.3261 29.239 17.2631 29.239C16.8872 29.2214 16.5136 29.3061 16.1821 29.484C16.1138 29.5144 16.0374 29.521 15.9649 29.5028C15.8924 29.4847 15.8281 29.4429 15.7821 29.384C15.5018 29.1703 15.1739 29.0277 14.8265 28.9683C14.4791 28.909 14.1225 28.9346 13.7871 29.043C13.8046 30.0699 13.8813 31.095 14.0171 32.113V32.113Z" fill="#7B68EE"/>
</svg>
