<svg width="54" height="67" viewBox="0 0 54 67" fill="none" xmlns="http://www.w3.org/2000/svg">
<path d="M23.904 47.836C18.0339 47.8335 12.3698 45.6721 7.99038 41.7634C3.61093 37.8547 0.822099 32.4717 0.154989 26.6397C-0.512121 20.8077 0.989106 14.934 4.37276 10.1373C7.75642 5.34062 12.7861 1.95597 18.504 0.627991C20.2856 0.213035 22.1087 0.00235298 23.938 0C30.2816 0.00517193 36.3633 2.5301 40.8452 7.01935C45.3271 11.5086 47.8422 17.5944 47.837 23.938C47.8318 30.2816 45.3069 36.3633 40.8176 40.8452C36.3284 45.3271 30.2426 47.8421 23.899 47.837L23.904 47.836ZM23.943 2.448C21.1114 2.42627 18.3034 2.96492 15.6808 4.0329C13.0583 5.10088 10.6728 6.67707 8.66195 8.67078C6.65106 10.6645 5.05442 13.0363 3.96398 15.6496C2.87354 18.2629 2.31085 21.0661 2.30828 23.8978C2.30571 26.7295 2.8633 29.5338 3.949 32.1491C5.03469 34.7644 6.62701 37.1391 8.63427 39.1364C10.6415 41.1338 13.0241 42.7144 15.6447 43.7871C18.2654 44.8598 21.0723 45.4035 23.904 45.387C25.5446 45.3838 27.1797 45.1953 28.778 44.825C33.9103 43.6337 38.4252 40.5964 41.4632 36.2917C44.5011 31.9869 45.8498 26.7153 45.2526 21.4805C44.6553 16.2457 42.1538 11.4134 38.2243 7.90363C34.2948 4.39382 29.2117 2.45164 23.943 2.44696V2.448Z" fill="#D8D8D8"/>
<path d="M26.9175 2.49805C30.953 3.0794 34.742 4.78945 37.8476 7.43103C37.8476 7.43103 43.1365 11.713 44.7085 17.895C44.1031 17.8582 43.5141 17.6834 42.9865 17.384C42.3847 16.8809 41.7554 16.4115 41.1016 15.978C41.1016 15.978 39.6925 15.145 38.9015 15.784C38.9015 15.784 38.3925 16.001 37.6655 15.072C37.114 14.703 36.5226 14.3974 35.9025 14.161C35.9025 14.161 37.9026 16.644 38.9256 17.029C39.3105 17.1302 39.7012 17.2081 40.0955 17.262C40.0955 17.262 40.2686 17.53 40.1236 19.149C39.9226 20.3187 39.6214 21.4689 39.2235 22.587C39.1089 22.9301 39.064 23.2926 39.0914 23.6532C39.1189 24.0138 39.2182 24.3653 39.3835 24.687C39.6611 25.4524 39.7436 26.2748 39.6236 27.08C39.2902 27.821 38.8435 28.5055 38.2995 29.109C38.2074 29.4353 38.2019 29.7799 38.2836 30.109C38.1693 30.6587 37.9463 31.1799 37.6276 31.642C37.3989 31.9766 37.2314 32.349 37.1326 32.742C36.467 33.6863 35.5553 34.4299 34.4965 34.892C34.4965 34.892 33.6246 35.455 33.4896 34.903C33.0507 33.4998 32.4954 32.1358 31.8295 30.825C31.5606 30.5218 31.3783 30.1517 31.302 29.7536C31.2256 29.3555 31.2579 28.9443 31.3956 28.563C31.5501 28.2904 31.648 27.9894 31.6834 27.678C31.7188 27.3667 31.6909 27.0514 31.6016 26.751C31.1418 25.9555 30.5512 25.2431 29.8545 24.644C29.5442 24.2544 29.3847 23.7658 29.4055 23.268C29.4055 23.268 29.5165 22.117 29.0885 21.861C28.7127 21.7976 28.3265 21.8402 27.9735 21.984C27.9735 21.984 27.6165 22.203 27.2115 21.484C27.2115 21.484 26.8606 20.942 25.6326 21.884C25.6326 21.884 23.1135 23.3991 21.3325 22.4901C21.1258 22.2319 20.9574 21.9453 20.8325 21.639C20.7145 21.5637 20.5795 21.519 20.4398 21.509C20.3001 21.4991 20.1601 21.5242 20.0325 21.582C20.0325 21.582 19.5755 21.76 19.5215 21.309C19.5215 21.309 19.5725 20.783 19.1545 20.827C19.051 20.846 18.9445 20.8411 18.8432 20.8126C18.7419 20.7841 18.6484 20.7329 18.5699 20.6627C18.4914 20.5926 18.4301 20.5054 18.3905 20.4078C18.3509 20.3103 18.3342 20.205 18.3415 20.1C18.3495 19.9016 18.3979 19.7069 18.4839 19.5278C18.5699 19.3488 18.6916 19.1893 18.8415 19.059C18.8415 19.059 19.1126 18.859 18.8216 18.452C18.6357 18.2209 18.5069 17.9493 18.4454 17.6592C18.3839 17.3691 18.3915 17.0687 18.4675 16.782C18.5075 16.3813 18.6724 16.0032 18.9389 15.7012C19.2053 15.3992 19.5599 15.1886 19.9525 15.099C19.9525 15.099 20.3455 15.083 20.3275 14.537C20.2103 14.1755 20.2007 13.7877 20.2998 13.4207C20.3988 13.0538 20.6023 12.7235 20.8855 12.47C20.8855 12.47 21.2206 11.982 22.5586 11.97C22.7717 11.9953 22.9879 11.9717 23.1906 11.901C23.3933 11.8303 23.5773 11.7144 23.7285 11.562C23.9788 11.271 24.2884 11.037 24.6367 10.8757C24.985 10.7145 25.3638 10.6296 25.7475 10.627C25.8343 10.6326 25.9191 10.6557 25.9968 10.6949C26.0744 10.7341 26.1433 10.7885 26.1994 10.855C26.2554 10.9216 26.2975 10.9987 26.3229 11.0819C26.3484 11.1651 26.3568 11.2526 26.3476 11.3391C26.3476 11.3391 26.3326 11.77 27.0116 11.639C27.5207 11.4679 28.0767 11.5038 28.5596 11.739C28.5596 11.739 29.4426 12.518 29.5456 11.95C29.5456 11.95 29.2255 11.398 29.5065 11.25C30.1109 11.0111 30.7822 11.004 31.3915 11.23C31.5249 11.3138 31.6822 11.3511 31.839 11.3362C31.9957 11.3214 32.1432 11.2552 32.2585 11.148C32.2585 11.148 32.3135 10.777 33.0815 10.817C33.0815 10.817 33.4295 10.564 33.0145 10.125C32.7566 9.96929 32.5667 9.72231 32.4825 9.43304C32.4825 9.43304 32.3305 9.13302 31.7675 9.53302C31.6259 9.64517 31.455 9.7142 31.2752 9.73193C31.0954 9.74966 30.9144 9.71531 30.7536 9.633C30.5588 9.59411 30.3778 9.50437 30.229 9.3728C30.0802 9.24124 29.969 9.07258 29.9065 8.88403C29.9065 8.88403 29.1995 8.37302 29.1685 8.68402C29.1685 8.68402 28.7325 8.79804 29.1085 9.33704C29.1085 9.33704 29.7086 9.89499 29.1886 10.055C29.1886 10.055 28.9555 10.129 28.1785 9.39099C28.1785 9.39099 27.1785 8.51103 26.8235 8.70203C26.8235 8.70203 26.5295 8.684 26.9705 9.146C26.9705 9.146 27.2125 9.373 26.8835 9.5C26.4971 9.55955 26.1033 9.55182 25.7195 9.47705C25.7195 9.47705 24.8135 9.041 24.3745 9.461C24.3871 9.51608 24.3885 9.57316 24.3786 9.62878C24.3687 9.68441 24.3478 9.73748 24.317 9.78485C24.2862 9.83223 24.2463 9.8729 24.1995 9.90454C24.1526 9.93618 24.1 9.95809 24.0445 9.96899C23.8645 10.0781 23.6541 10.1262 23.4445 10.106C23.3344 10.1137 23.2307 10.1607 23.1525 10.2386C23.0742 10.3165 23.0267 10.4199 23.0185 10.53C22.9188 10.74 22.772 10.9242 22.5896 11.0683C22.4071 11.2124 22.194 11.3125 21.9666 11.3608C21.7392 11.4092 21.5037 11.4045 21.2784 11.3472C21.0531 11.2898 20.8441 11.1813 20.6675 11.03C20.6675 11.03 19.7675 10.441 21.0955 10.007C21.0955 10.007 21.8955 9.76204 22.0215 9.48804C22.0215 9.48804 22.1565 8.88802 21.3635 8.78802C21.3635 8.78802 20.5535 8.27902 21.9785 7.84802C21.9785 7.84802 22.3135 7.78104 22.8405 7.07104C22.8405 7.07104 22.7755 6.61699 23.4405 6.51599C23.9073 6.56167 24.377 6.46479 24.7876 6.23804C24.7876 6.23804 24.8695 5.94703 25.4095 5.91003C25.4095 5.91003 25.6886 5.94801 25.4816 5.57501C25.4816 5.57501 25.1255 5.14101 25.6345 5.18201C25.6345 5.18201 25.9286 4.87302 25.2836 4.88202C25.2836 4.88202 24.6065 4.93901 24.4065 4.51801C24.4065 4.51801 24.2955 3.98901 24.0145 4.18701C24.0145 4.18701 23.7945 4.40903 24.0015 4.59503C24.0015 4.59503 24.7836 5.27403 24.4206 5.70703C24.4206 5.70703 24.0145 6.21502 23.1685 5.36902C23.1685 5.36902 22.9305 5.22002 22.8125 5.61902C22.7188 5.68542 22.6082 5.72384 22.4935 5.72986C22.3788 5.73588 22.2647 5.70924 22.1645 5.65302C22.1645 5.65302 21.6645 5.225 22.3945 4.375C22.8819 3.60726 23.64 3.05082 24.5185 2.81604C24.5185 2.81604 25.6335 2.56505 25.3675 2.30005C25.3635 2.32705 26.3725 2.39605 26.9175 2.49805V2.49805Z" fill="#DFDFDF"/>
<path d="M2.56787 27.3121C2.56787 27.3121 3.41488 33.7781 7.60388 38.0761C10.1498 40.8969 13.4066 42.9822 17.0339 44.1141C17.0339 44.1141 17.6489 43.7291 16.8529 43.3081C16.8529 43.3081 16.5589 43.3081 15.8899 42.6491C15.8899 42.6491 15.6339 41.9191 15.0899 41.8201C14.8171 41.7903 14.5663 41.6563 14.3899 41.4461C14.217 41.2223 14.0574 40.9886 13.9119 40.7461C13.906 40.5386 13.9224 40.3311 13.9609 40.1271C13.9978 39.9691 13.9799 39.8033 13.9101 39.6568C13.8403 39.5104 13.7228 39.392 13.5769 39.3211C13.5769 39.3211 13.2179 39.1371 13.4769 38.4821C13.4769 38.4821 13.7219 38.2821 13.7319 37.5521C13.811 37.0197 13.6967 36.4766 13.4099 36.0211C13.055 35.081 12.8476 34.0916 12.7949 33.0881C12.8883 32.418 13.1714 31.7886 13.6109 31.2741C13.6109 31.2741 14.9109 29.2911 13.6109 28.1301C13.4223 27.8852 13.166 27.701 12.8738 27.6002C12.5817 27.4995 12.2663 27.4866 11.9669 27.5631C11.7037 27.8064 11.355 27.9354 10.9969 27.9221C10.8841 27.8496 10.7889 27.7528 10.7183 27.6388C10.6477 27.5247 10.6035 27.3964 10.5889 27.2631C10.5587 27.0948 10.4737 26.9413 10.347 26.8264C10.2204 26.7115 10.0593 26.6418 9.88889 26.6281C9.7258 26.6178 9.5621 26.6333 9.40387 26.6741C9.40387 26.6741 9.13288 26.7151 9.10388 26.5431C9.10388 26.5431 8.87687 25.7201 8.39587 25.7141C8.39587 25.7141 8.22089 25.6441 7.83289 25.8381C7.83289 25.8381 7.47186 26.0801 7.38586 25.8381C7.38586 25.8381 6.87687 24.4381 5.81387 24.4381C5.43801 24.4205 5.06442 24.5052 4.73288 24.6831C4.6646 24.7135 4.58813 24.72 4.51566 24.7019C4.44318 24.6838 4.37886 24.642 4.33289 24.5831C4.05258 24.3694 3.72471 24.2268 3.37729 24.1674C3.02987 24.1081 2.67325 24.1337 2.33789 24.2421C2.35533 25.269 2.43211 26.2941 2.56787 27.3121V27.3121Z" fill="#DFDFDF"/>
<path d="M24.1159 53.058C17.1134 53.066 10.3486 50.5183 5.09093 45.893C4.84654 45.6791 4.69712 45.3769 4.67556 45.0528C4.65399 44.7287 4.76201 44.4094 4.97591 44.165C5.18981 43.9206 5.49206 43.7712 5.81612 43.7496C6.14018 43.7281 6.45954 43.8361 6.70394 44.05C9.32073 46.3705 12.3708 48.1504 15.6784 49.2871C18.9861 50.4237 22.4859 50.8947 25.9764 50.6729C29.4668 50.4511 32.8789 49.5408 36.016 47.9946C39.1532 46.4484 41.9534 44.2968 44.2554 41.6637C46.5574 39.0306 48.3157 35.9681 49.4289 32.6525C50.5422 29.3369 50.9885 25.8338 50.742 22.345C50.4955 18.8562 49.5612 15.4506 47.9929 12.3245C46.4246 9.19833 44.2532 6.41336 41.6039 4.13002C41.364 3.91476 41.2185 3.6136 41.1991 3.29182C41.1798 2.97005 41.288 2.65359 41.5004 2.41109C41.7127 2.16858 42.0121 2.01958 42.3337 1.99635C42.6552 1.97313 42.9729 2.07753 43.2179 2.287C47.5297 6.05776 50.6265 11.0224 52.1169 16.5531C53.6072 22.0837 53.4242 27.9322 51.5909 33.3588C49.7576 38.7855 46.3564 43.5467 41.8173 47.0405C37.2782 50.5342 31.8051 52.6036 26.0899 52.987C25.4313 53.0337 24.7733 53.0573 24.1159 53.058V53.058Z" fill="#D8D8D8"/>
<path d="M26.8988 59.6281C26.5743 59.6278 26.2631 59.4988 26.0336 59.2693C25.8041 59.0398 25.6751 58.7286 25.6748 58.4041V52.3041C25.6748 51.9793 25.8038 51.6679 26.0334 51.4382C26.2631 51.2086 26.5745 51.0796 26.8993 51.0796C27.224 51.0796 27.5355 51.2086 27.7652 51.4382C27.9948 51.6679 28.1238 51.9793 28.1238 52.3041V58.4041C28.1238 58.5649 28.0921 58.7241 28.0305 58.8727C27.969 59.0212 27.8787 59.1562 27.765 59.2699C27.6512 59.3836 27.5161 59.4737 27.3675 59.5352C27.2189 59.5966 27.0596 59.6282 26.8988 59.6281V59.6281Z" fill="#D8D8D8"/>
<path d="M40.7681 66.3979H13.2121C13.0475 66.3976 12.8847 66.3643 12.7333 66.2997C12.5819 66.2352 12.445 66.141 12.3308 66.0225C12.2166 65.904 12.1275 65.7637 12.0686 65.61C12.0097 65.4564 11.9823 65.2925 11.9881 65.128C12.1711 59.906 18.7621 55.8149 26.9881 55.8149C35.2141 55.8149 41.8101 59.906 41.9881 65.128C41.9942 65.2926 41.9672 65.4567 41.9084 65.6105C41.8497 65.7644 41.7605 65.9048 41.6462 66.0234C41.5319 66.142 41.3949 66.2362 41.2433 66.3006C41.0918 66.365 40.9287 66.3981 40.7641 66.3979H40.7681ZM14.6791 63.949H39.2951C38.1231 60.719 33.0121 58.2629 26.9871 58.2629C20.9621 58.2629 15.856 60.719 14.684 63.949H14.6791Z" fill="#D8D8D8"/>
<path d="M38.3815 7.65708C38.1033 7.65627 37.8335 7.56186 37.6155 7.38907C37.362 7.18591 37.1995 6.89046 37.1637 6.5676C37.1279 6.24473 37.2217 5.92086 37.4245 5.66709L41.5965 0.45505C41.8016 0.208105 42.0954 0.0515665 42.4147 0.0190144C42.734 -0.0135377 43.0534 0.0805509 43.304 0.281038C43.5547 0.481526 43.7167 0.772356 43.7551 1.09104C43.7935 1.40972 43.7053 1.73076 43.5095 1.98508L39.3375 7.19907C39.2228 7.34235 39.0773 7.45797 38.9118 7.53726C38.7463 7.61656 38.565 7.65749 38.3815 7.65708V7.65708Z" fill="#D8D8D8"/>
<path d="M3.68905 46.8858C3.45673 46.8855 3.22931 46.8191 3.03329 46.6944C2.83727 46.5697 2.68075 46.3918 2.582 46.1816C2.48325 45.9713 2.44632 45.7372 2.47555 45.5067C2.50478 45.2762 2.59895 45.0588 2.74707 44.8799L7.23007 39.4718C7.3312 39.3438 7.45693 39.2372 7.59985 39.1584C7.74277 39.0796 7.89999 39.0302 8.06228 39.0131C8.22458 38.996 8.38868 39.0115 8.54489 39.0587C8.7011 39.106 8.84629 39.184 8.97192 39.2881C9.09755 39.3923 9.20108 39.5205 9.27643 39.6653C9.35177 39.81 9.3974 39.9684 9.41064 40.131C9.42389 40.2937 9.40448 40.4574 9.35354 40.6124C9.30261 40.7674 9.2212 40.9107 9.11407 41.0338L4.63107 46.4418C4.51669 46.5809 4.37286 46.6929 4.20996 46.7697C4.04706 46.8465 3.86914 46.8861 3.68905 46.8858V46.8858Z" fill="#D8D8D8"/>
</svg>
