<svg xmlns="http://www.w3.org/2000/svg" width="40" height="40">
    <defs>
        <style>
            .cls-1{fill:none}
        </style>
    </defs>
    <g id="그룹_457335" data-name="그룹 457335" transform="translate(-498 -979)">
        <path id="패스_843760" data-name="패스 843760" class="cls-1" d="M5 0h30a5 5 0 0 1 5 5v30a5 5 0 0 1-5 5H5a5 5 0 0 1-5-5V5a5 5 0 0 1 5-5z" transform="translate(498 979)"/>
        <g id="그룹_457334" data-name="그룹 457334" transform="translate(16 642)">
            <path id="패스_843751" data-name="패스 843751" class="cls-1" d="M0 0h24v24H0z" transform="translate(490 345)"/>
            <path id="패스_843756" data-name="패스 843756" d="m5796.118 125.284-5.482 3.069a1.15 1.15 0 0 1-1.689-1.227l1.224-6.163a1.153 1.153 0 0 0-.346-1.069l-4.614-4.266a1.15 1.15 0 0 1 .645-1.986l6.24-.74a1.15 1.15 0 0 0 .908-.66l2.632-5.706a1.15 1.15 0 0 1 2.088 0l2.632 5.706a1.15 1.15 0 0 0 .908.66l6.24.74a1.15 1.15 0 0 1 .646 1.986l-4.614 4.266a1.152 1.152 0 0 0-.346 1.069l1.224 6.163a1.15 1.15 0 0 1-1.689 1.227l-5.482-3.069a1.148 1.148 0 0 0-1.125 0z" transform="translate(-5294.519 239.527)" style="fill:#ffe32a"/>
        </g>
    </g>
</svg>
