<svg width="18" height="18" viewBox="0 0 18 18" fill="none" xmlns="http://www.w3.org/2000/svg">
<path d="M6.66797 2.63H11.332V4.489H6.66797V2.63Z" stroke="#E6E6E6" stroke-linecap="round" stroke-linejoin="round"/>
<path d="M5.09229 6.35596H12.9083V13.369C12.9083 13.8994 12.6976 14.4081 12.3225 14.7832C11.9474 15.1582 11.4387 15.369 10.9083 15.369H7.09229C6.56185 15.369 6.05314 15.1582 5.67807 14.7832C5.303 14.4081 5.09229 13.8994 5.09229 13.369V6.35596Z" stroke="#E6E6E6" stroke-linecap="round" stroke-linejoin="round"/>
<path d="M4.03906 4.48999H13.9611Z" fill="white"/>
<path d="M4.03906 4.48999H13.9611" stroke="#E6E6E6" stroke-linecap="round" stroke-linejoin="round"/>
<path d="M10.895 8.92596V12.8Z" fill="white"/>
<path d="M10.895 8.92596V12.8" stroke="#E6E6E6" stroke-linecap="round" stroke-linejoin="round"/>
<path d="M9.00098 8.92596V12.8Z" fill="white"/>
<path d="M9.00098 8.92596V12.8" stroke="#E6E6E6" stroke-linecap="round" stroke-linejoin="round"/>
<path d="M7.10596 8.92596V12.8Z" fill="white"/>
<path d="M7.10596 8.92596V12.8" stroke="#E6E6E6" stroke-linecap="round" stroke-linejoin="round"/>
</svg>
