<svg width="24" height="24" viewBox="0 0 24 24" fill="none" xmlns="http://www.w3.org/2000/svg">
<path d="M16.088 7.77405C16.088 8.5899 15.846 9.38732 15.3927 10.0657C14.9394 10.744 14.2954 11.2727 13.5416 11.585C12.7879 11.8972 11.9585 11.9789 11.1583 11.8197C10.3582 11.6605 9.62292 11.2677 9.04603 10.6908C8.46913 10.1139 8.07628 9.37891 7.91712 8.57874C7.75796 7.77856 7.83977 6.94918 8.15198 6.19543C8.4642 5.44169 8.99267 4.7975 9.67103 4.34424C10.3494 3.89098 11.1472 3.64905 11.963 3.64905C13.057 3.64931 14.106 4.08389 14.8795 4.85742C15.6531 5.63095 16.0878 6.68011 16.088 7.77405Z" stroke="#A2A2A2" stroke-width="1.5"/>
<path d="M4.6001 19.671C4.6001 16.265 7.913 13.504 12 13.504C16.087 13.504 19.3999 16.265 19.3999 19.671" stroke="#A2A2A2" stroke-width="1.5" stroke-linecap="round"/>
</svg>
